<?xml version="1.0" encoding="UTF-8" standalone="no"?>
<!-- Generator: Adobe Illustrator 22.1.0, SVG Export Plug-In . SVG Version: 6.00 Build 0)  -->

<svg
   xmlns:dc="http://purl.org/dc/elements/1.1/"
   xmlns:cc="http://creativecommons.org/ns#"
   xmlns:rdf="http://www.w3.org/1999/02/22-rdf-syntax-ns#"
   xmlns:svg="http://www.w3.org/2000/svg"
   xmlns="http://www.w3.org/2000/svg"
   xmlns:sodipodi="http://sodipodi.sourceforge.net/DTD/sodipodi-0.dtd"
   xmlns:inkscape="http://www.inkscape.org/namespaces/inkscape"
   version="1.1"
   id="Warstwa_1"
   x="0px"
   y="0px"
   viewBox="0 0 883.7 475.5"
   style="enable-background:new 0 0 883.7 475.5;"
   xml:space="preserve"
   sodipodi:docname="kontynenty-radek.svg"
   inkscape:version="0.92.3 (2405546, 2018-03-11)"><metadata
   id="metadata4183"><rdf:RDF><cc:Work
       rdf:about=""><dc:format>image/svg+xml</dc:format><dc:type
         rdf:resource="http://purl.org/dc/dcmitype/StillImage" /></cc:Work></rdf:RDF></metadata><defs
   id="defs4181" /><sodipodi:namedview
   pagecolor="#ffffff"
   bordercolor="#666666"
   borderopacity="1"
   objecttolerance="10"
   gridtolerance="10"
   guidetolerance="10"
   inkscape:pageopacity="0"
   inkscape:pageshadow="2"
   inkscape:window-width="1920"
   inkscape:window-height="1052"
   id="namedview4179"
   showgrid="false"
   inkscape:zoom="1.7749737"
   inkscape:cx="350.58105"
   inkscape:cy="237.75"
   inkscape:window-x="0"
   inkscape:window-y="0"
   inkscape:window-maximized="1"
   inkscape:current-layer="Warstwa_1" />
<g
   id="g4176"
   style="fill:#f5f3c5;fill-opacity:1">
	<path
   d="M328,313.4c-1.9-1.1-4-2.9-4.5-3.8c-0.7-1.3-2.5-1.9-7.2-2.2c-5.4-0.4-6.8-0.9-9.6-3.6c-4-3.8-6.4-4-8.6-0.7   c-1.1,1.7-2.5,2.5-4.4,2.4c-2.7-0.1-2.7-0.1-0.3-0.8c3.2-0.9,5-3.7,3.3-5.3c-1-1-1.9-0.7-4.2,1c-1.7,1.2-3,1.9-3,1.4   c0-1.2,2.9-4.8,4-4.9c0.5-0.1,1.3-0.2,1.6-0.3c0.4-0.1-0.2-1-1.2-2.1c-1-1.1-1.5-2-1.2-2c0.3,0,0-1.4-0.7-3c-1.8-4.2-7.2-8-11.6-8   c-2.8,0-4.3-0.8-7.2-3.8c-2-2.1-4.6-4.6-5.7-5.6c-1.1-1-2-2.4-1.8-3c0.1-0.6-1.4-1.3-3.3-1.6s-3.4-0.9-3.3-1.3   c0.1-0.4,0-0.8-0.3-0.8h-1.1c-0.3,0-0.1,0.7,0.6,1.5c1,1.3,0.9,1.5-0.8,1.5c-1.1,0-2.3-0.5-2.7-1c-0.3-0.6-1.2-0.9-1.8-0.8   c-1.7,0.3-5-1.3-6.4-3.1c-1.1-1.4-1.3-1.3-1.8,0.6c-0.3,1.2-1.2,2.4-2,2.7c-1.7,0.6-1.8-0.6-0.3-2.1c0.8-0.8,0.8-1.3-0.1-1.8   c-0.7-0.4-2.4,0.4-3.9,1.9c-1.5,1.4-3,2.3-3.4,2c-1.1-1.1-3.5,1.6-4.2,4.8l-0.7,3l-2.4-2.3c-2.2-2.1-2.8-2.2-6.4-1.2   c-3.7,1-4.1,0.9-6.1-1.6c-1.8-2.3-2-3.5-1.4-8.8l0.6-6.2l-3.3-1.4c-1.8-0.8-4.8-1.2-6.6-0.9c-3.2,0.5-3.2,0.4-2.6-2.4   c0.4-1.6,1-3.3,1.5-3.9s0.9-3,1.1-5.5l0.3-4.5l-3.7,0.1c-4.6,0.1-6.8,1.8-6.8,5.4c0,2.5-0.4,2.8-4.2,3.3c-5.4,0.7-7.3-0.4-9.8-5.5   c-2-4.1-2.7-12.7-1.3-14.2c0.4-0.4,0.6-2.2,0.5-3.9c-0.2-2.7,0.3-3.6,3-5.3c3.4-2.2,4.3-2.2,12.3-0.6c5.6,1.1,7.2,0.7,5.4-1.5   c-1.7-2,0.7-3.6,4.1-2.7c1.4,0.4,3.7,0.6,5.1,0.6c2.8-0.1,4.8,2.4,5.2,6.8c0.3,3.2,3.5,8,5.3,8c2.5,0,2.6-2.6,0.4-10.2   c-1.1-4.1-2.1-7.9-2.1-8.6s2.5-3.7,5.5-6.7s5.2-5.5,4.8-5.5s0-0.5,1-1.1c1-0.6,1.5-1.4,1.2-1.9c-0.3-0.5-0.1-1.2,0.5-1.5   c0.7-0.4,0.7-1.2,0-2.5c-0.6-1-1-3.1-0.9-4.7c0.1-2.8,0.1-2.8,0.8-0.3c0.8,3,2.4,2.8,3.2-0.4c1-3.9,4-7.6,6.1-7.6   c1.1,0,2.9-0.5,3.9-1.1c1.6-0.9,1.8-1.3,0.8-2.5c-1.5-1.9,0.3-6.4,2.6-6.4c0.9,0,3.3-0.9,5.5-2c4.9-2.5,5.8-2.5,3.5,0   c-1,1.2-1.5,2.7-1.1,3.6c0.6,1.5,0.8,1.5,2.9-0.3c1.2-1.1,3.9-2.7,6-3.6s3.8-2.2,3.8-2.8s0.4-0.8,0.9-0.5c1.5,0.9,2.3-1.4,1-3   c-1-1.3-1.5-1.1-3.6,1.1c-2.1,2.3-5.2,2.6-3.9,0.5c0.3-0.5,0.1-1.1-0.4-1.4c-0.5-0.3-1.2-0.2-1.5,0.4c-0.3,0.5-1.6,0-2.8-1.2   c-2.2-2.1-2.2-2.2-0.2-2.7c1.1-0.3,2-1.4,2-2.5c0-3.1-6.8-2.5-10.4,0.9c-3.3,3.1-5.3,3.5-2.5,0.5c4.3-4.8,7.4-6.1,15.7-6.9   c7.3-0.7,12.2-1.8,16.7-4c0.9-0.4,1.5-2.1,1.5-3.9c0-4.8-2.1-6.2-6.8-4.6c-2.1,0.7-3.8,0.9-3.8,0.4s1.4-1.2,3-1.5   c3.7-0.7,4.7-2.1,2.3-3c-1-0.4-3.1-1.5-4.6-2.6c-1.5-1-2.8-1.5-2.8-1.1c0,0.4-0.6-0.1-1.2-1.2c-0.6-1.1-1-2.1-0.7-2.2   c0.2-0.1-0.6-1.3-1.9-2.6c-1.3-1.3-2.5-3.7-2.8-5.3c-1-5.3-2.4-5.9-5.6-2.4c-1.6,1.7-3.3,2.8-3.9,2.5c-0.6-0.4-1.6-0.2-2.3,0.3   c-2.2,1.7-5.5-3.3-3.5-5.3c1.5-1.5,0.7-3.5-1.7-4.4c-1.4-0.5-3.4-2-4.6-3.3c-1.7-2-3-2.4-7.3-2.3c-4.9,0.1-5.3,0.3-6.8,3.6   c-1.2,2.5-1.4,4-0.7,5.3c0.7,1.2,0.6,2.3-0.2,3.3c-0.7,0.8-0.9,1.4-0.4,1.4s0.2,0.6-0.4,1.4c-0.9,1-0.7,2,0.9,3.9   c2.5,3.1,2.6,6.5,0.3,9.8c-1.1,1.6-1.8,4.6-1.9,8.3c-0.2,7.4-1.5,8.3-6.1,4.1c-3.2-2.9-3.5-3.7-3.2-7.6l0.4-4.4l-4.9-0.7   c-3.2-0.5-6.8-2-10.1-4.3c-2.9-2-5.8-3.5-6.6-3.3c-0.8,0.2-1.2-0.4-1.1-1.5c0.4-2.5-1.5-4.6-3.7-4c-1.3,0.3-2-0.2-2.4-1.8   c-0.7-2.6,4.3-11.2,7.5-13c1.1-0.6,1.7-1.6,1.4-2.4c-0.6-1.5,1.7-2.7,3.7-1.9c1.4,0.5,6.7-3.1,6.7-4.6c0-0.5-1.5-1.3-3.3-1.8   l-3.3-0.9l3.8-0.1c3.6-0.1,3.8,0.1,3.8,3c0,1.8-0.7,3.7-1.7,4.3c-1.5,1.1-1.3,1.4,1.8,2.9c3.3,1.7,3.4,1.7,5.5-0.7   c1.9-2.2,2.2-2.3,4.3-0.9c1.7,1.2,2.5,1.2,3.7,0.2c1.3-1.1,1.1-1.6-1.2-4.1c-1.5-1.6-4.2-3.2-5.9-3.5c-3.8-0.7-5.4-3.4-2-3.4   c2.4,0,8.7-3.5,8.7-4.8c0-0.5-0.6-1.7-1.4-2.8c-1.1-1.4-1.1-2.3-0.3-3.3c2.2-2.6-7.1-7-9.6-4.5c-0.3,0.3-0.2,1.4,0.3,2.4   c1,1.9-0.4,3.8-1.5,1.9c-0.4-0.6-1.1-0.8-1.6-0.4c-0.5,0.3-0.7,1-0.4,1.5c0.3,0.5,1,0.7,1.5,0.4c1.5-0.9,1.1,1.2-0.5,2.4   c-1.5,1.2-2.6-0.4-2.6-3.8c0-1-0.8-2.5-1.9-3.5c-1.8-1.6-2-1.6-4,1c-2,2.6-2.1,2.6-2.1,0.5c0-1.4-0.8-2.4-2-2.8   c-1.4-0.4-1.7-0.9-1-1.7c0.7-0.8,0.1-2.1-1.9-4.3c-2.4-2.6-2.6-3.3-1.5-4.3c0.8-0.6,1.1-1.6,0.8-2s0.1-0.9,0.8-0.9s2.4-1.1,3.6-2.3   c2.8-3,1.2-4.6-3.8-4c-5.3,0.6-6.7,2.5-5.4,7.4c0.6,2.2,0.7,4,0.2,4s-1.6,1.2-2.5,2.6c-1.4,2.1-1.5,3-0.5,4.5   c1,1.5,0.9,1.9-0.2,1.9c-0.8,0-2-0.7-2.7-1.5c-1.1-1.4-1.5-1.3-3.4,0.4c-1.2,1.1-2.4,2-2.8,2c-1.1,0.1-0.9,1.5,0.3,1.7   c0.6,0.1,1.4,0.2,1.8,0.3c0.5,0.1,0.8,0.7,0.8,1.5c0,0.9-1.7,1.6-4.9,2c-5.2,0.6-10-0.5-8-1.7c0.7-0.4,0.9-1.2,0.6-1.7   c-0.3-0.5-1-0.7-1.5-0.4c-0.5,0.3-0.7,1-0.4,1.5c0.3,0.5,0.1,0.9-0.4,0.9s-1.2-0.7-1.5-1.5c-0.4-1-1.9-1.5-4.4-1.5   c-3.7,0-3.7-0.1-1.4-1.4c2-1.1,3.1-1.1,6.9,0c2.5,0.7,5,1.8,5.7,2.4c1.9,1.6,2.7-0.2,0.9-2.1c-1.5-1.7-1.5-1.9,1.1-2.8   c3.2-1.2,2.5-3-1.2-3c-3.8,0-5.1-1.1-6.7-5.6c-1-2.8-1-4.3-0.3-5.2s0.8-1.6,0-2.4c-1.2-1.2-3.6-0.2-2.7,1.2c0.3,0.5-0.5,1-1.7,1.2   c-1.6,0.2-2.4,1.2-2.8,3.3c-0.4,2.2-0.7,2.6-1.2,1.4c-0.4-0.9-2.1-2.3-3.8-3.2c-2.7-1.4-3.2-1.4-3.7-0.1c-0.4,1.1-0.9,1.2-1.9,0.4   c-0.7-0.6-1.8-0.9-2.3-0.5c-0.5,0.3-1.2-0.1-1.5-1c-0.4-1.1-1.3-1.4-2.7-0.9c-1.4,0.4-1.9,0.3-1.5-0.4c1-1.6-3.9-4.3-7.1-4.1   c-1.5,0.1-3.6-0.1-4.5-0.5c-2.6-1.1-7.3,0.8-7.4,3c-0.1,1.1-0.2,2.7-0.3,3.7c-0.1,1-0.8,1.8-1.5,1.8c-2.3,0-2.9,1.9-0.9,2.7   c1,0.4,2.5,1.5,3.3,2.5c1.3,1.6,1.8,1.7,4,0.4c1.4-0.8,3.5-1.9,4.8-2.5c1.2-0.6,2.3-1.5,2.3-2c0-2.2,1.5-0.9,1.6,1.5   c0.3,4.4,2.2,5.8,7.4,5.2c2.5-0.3,5.2-0.1,6,0.3c0.9,0.6-1,1-5.6,1.2c-7.4,0.3-8.8,1.7-3.2,3.1c1.8,0.5,4.2,1.7,5.3,2.8   c1.2,1.1,2.7,1.7,3.5,1.5s3.4-0.7,5.9-1.1c4.1-0.6,4.3-0.5,2.5,0.8c-1.7,1.2-1.7,1.6-0.5,2.1c1.6,0.6,2.3,6.6,0.9,6.6   c-0.5,0-0.9-0.8-0.9-1.9c0-2.6-5.1-4.5-10.5-3.9c-5,0.6-6.3,0-3.8-1.8c1.5-1.1,1.4-1.4-1-3c-2.1-1.4-3-1.5-4.1-0.6   c-1.1,0.9-2.2,0.8-4.7-0.6c-4.4-2.3-11-3.5-12.5-2.2c-0.8,0.7-2.2,0.4-4.2-0.6c-3.3-1.7-4.4-1.4-10,2.7c-3.3,2.4-5.3,2.2-2.1-0.2   c3.7-2.9,0.3-3.7-4.3-1c-2.3,1.4-3.8,1.7-4.2,1c-0.4-0.6-1.1-0.8-1.6-0.5c-0.6,0.4-0.6,1.1-0.1,1.8c1.4,1.7,2.4,7.9,1.2,7.2   c-0.5-0.3-1-1.7-1-3c0-2.5-0.8-3.4-3.7-4c-1-0.2-3.7-1.1-6.1-1.9s-5.4-1.6-6.7-1.6c-1.3,0-2.6-0.4-2.9-0.9s-3.3-0.9-6.6-1   c-3.3,0-6.9-0.6-8-1.1c-1.3-0.7-2.6-0.7-3.9,0c-1.4,0.8-2.2,0.6-3.1-0.5c-0.7-0.8-2.5-1.5-4-1.5c-1.6,0-3.1-0.5-3.5-1   c-0.4-0.7-1.1-0.7-2,0c-0.9,0.7-1.5,0.8-2,0.1c-0.4-0.7-1.5-0.5-3.1,0.6c-1.3,0.9-2.5,1.2-2.5,0.7c0-0.5-0.6-0.2-1.3,0.6   s-2.3,1.6-3.7,1.8c-1.4,0.2-3.2,1.3-4.1,2.4S18,71,17.1,71.1c-0.9,0.1-2.8,1-4.2,1.9l-2.6,1.7l3.4,2.9c3.4,2.9,7.7,5.3,9.1,5   c0.4-0.1,0.8,0.2,0.8,0.7c0,1.7-2.8,1.9-5.5,0.5c-1.9-1-3.1-1.1-3.8-0.4c-0.6,0.6-1.8,1-2.7,1S9.2,85.2,8.5,86   c-1,1.2-0.9,1.6,0.6,2.3c1,0.4,1.9,1.4,1.9,2.2c0,2.2,9.6,3.5,11.1,1.5c1.5-2,2.1-1.8,1.9,0.7c-0.1,2-2.6,3.6-6.5,4.4   c-2.5,0.5-5.1,4.5-4.4,6.8c0.9,3.1,4.6,6.7,6.4,6.4c0.8-0.2,2,0.3,2.6,1.1c1.7,2.2,7.9,4,9.9,2.9c1.5-0.8,1.6-0.6,1,1.4   c-1.1,3.6-2.2,4.6-8,7.3c-2.9,1.4-5.6,2.9-5.9,3.5c-0.9,1.4,1.5,2.4,2.7,1.2c1.3-1.3,4.1-1.5,3.3-0.2c-0.9,1.4,1.5,2.5,2.7,1.2   c0.8-0.8,0.6-1.3-0.6-1.7c-1.9-0.7-2.2-0.6,6.2-5.1c4.6-2.5,11.4-9.1,10.7-10.3c-0.3-0.4,0-1.1,0.6-1.5s1.5-1.7,2-3.1   c0.5-1.3,1.7-2.4,2.7-2.4c1.7,0,1.7,0.1,0,1c-1.9,1.1-2.4,4.4-0.7,5.4c0.6,0.3,2.4,0,4-0.9c1.7-0.9,3.2-1.1,3.6-0.6   c0.3,0.5,1,0.7,1.5,0.3c0.5-0.3,0.7-1,0.4-1.5c-0.3-0.5-1-0.7-1.5-0.4c-0.9,0.5-1.2-0.7-0.7-2.3c0.4-1.1,2.8-1.3,2.8-0.2   c0,1.4,6.1,3.7,11.6,4.4c2.8,0.3,7.3,1.7,9.9,3.1c3.3,1.7,5.2,2.1,6,1.5c0.8-0.7,1.6,0,2.7,2.2c1.7,3.5,1.3,5.5-0.8,3.8   c-0.9-0.8-1.5-0.8-2,0c-0.4,0.6-0.4,1.1-0.1,1.2l1.3,0.3c0.4,0.1,1.3,0.5,2,0.9c1.2,0.7,1.6,0.2,1.4-1.6c-0.2-1.3,1.6-0.8,2.9,0.8   c0.7,0.8,1.9,1.5,2.6,1.5c0.8,0,1.4,0.7,1.4,1.5s-0.4,1.4-0.9,1.3c-0.8-0.2-1.1,0.2-1.1,1.9c0,0.3,0.7,0.1,1.5-0.6   c0.8-0.7,1.6-1,1.6-0.6c0.5,2.4,0.4,3.3-0.4,4.4c-0.5,0.7-0.6,1.3-0.2,1.3s0.2,0.6-0.4,1.4c-0.8,1-0.8,1.6-0.1,2.1   c1,0.6,1.4,0,1.2-1.7c-0.1-0.9,0.2-0.9,2.3-0.1c1.5,0.6,1.5,0.8,0,2.4c-1,1.1-1.2,2-0.6,2.4c0.5,0.3,1.3,0.2,1.6-0.4   c0.3-0.5,1.3-0.7,2.1-0.4c1.1,0.4,1.2,0.9,0.3,2c-0.6,0.8-0.8,1.4-0.4,1.4s0.1,0.7-0.6,1.6c-1.2,1.4-0.9,1.9,1.6,4   c1.6,1.3,4.3,3.1,5.8,3.9c3,1.5,5.1,1.1,4-0.7c-0.4-0.6-0.1-0.9,0.7-0.6c0.8,0.3,1.5,1.7,1.7,3.3c0.3,2.5,0.1,2.7-1.3,1.5   c-2.4-2-2.8-0.9-3.1,7.2c-0.2,4-0.4,9.5-0.6,12.3c-0.2,3.7,0.2,6,1.9,9c1.2,2.2,2.7,3.9,3.4,3.7c0.7-0.2,0.9,0.3,0.6,1.2   c-0.8,2,4.8,10.5,7.6,11.5c1,0.4,1.8,0.9,2.1,1.4c-0.1,0.2,0,0.4,0.2,0.5c0.1,0.4,0.6,0.7,1.2,0.6c0.7-0.1,1.9,2.2,2.8,5.1   c0.8,2.9,2.4,6.1,3.5,7c1.5,1.3,1.7,2.1,0.9,3.1c-0.9,1-0.4,2,2,4.1c1.7,1.5,3.1,3.6,3.1,4.8c0,2.8,6.8,8.2,8.3,6.6   c0.9-0.9,0.7-1.5-0.6-2.5c-1-0.7-1.8-1.6-1.8-2s-1.3-2.7-3-5.2c-1.7-2.4-3-4.9-3-5.4c0-0.5-0.9-2.4-2-4.2c-1.1-1.8-2-3.8-2-4.5   c0-2.3,2-1.3,3.1,1.5c0.6,1.5,2.8,5.1,5,8c2.2,2.9,3.9,5.6,3.9,6.1s1.5,2.6,3.3,4.8c4.4,5.2,5.7,7.7,5,10.1   c-0.7,2.7,3.6,6.2,14.2,11.5c7,3.5,8.8,4,10.4,3.1c1.5-0.9,2.5-0.7,5.5,1.3c4.7,3.2,11.1,6.4,12.7,6.4c2.3,0,5.9,4.3,5.9,7.1   c0,3,1.4,4.6,2.6,2.8c0.5-0.8,1.1-0.4,2,1.2c0.7,1.4,2.4,2.5,4.1,2.7c1.6,0.2,3.4,0.8,4,1.4c0.9,0.7,1.5,0.4,2.3-1   c2.3-4.3,6,1.2,5.9,8.9c-0.1,3.5-0.8,5.3-3.4,8.5c-4.2,5.1-6.5,13.4-4.2,14.9c1.4,0.9,1.3,1.2-0.3,2.6c-1.8,1.5-1.8,1.7,0.2,6.1   c1.2,2.5,3.8,9.2,5.9,15c3.4,9.5,4.2,10.8,8.1,13.8c2.4,1.8,5.7,4.4,7.3,5.9l2.9,2.6l-1.2,17.1c-0.7,9.4-1.3,19.6-1.5,22.6   c-0.2,3.6-1.2,7.4-3,10.9c-2,3.9-2.6,6.2-2.1,8.4c0.3,1.7,0.1,4.5-0.6,6.4c-1,2.7-1,3.8,0,5.3c0.7,1.1,1.2,3.6,1.2,5.6   c0,3.1-0.2,3.5-1.5,2.4c-1.4-1.2-1.8-0.9-1.3,0.8c0.1,0.4,0.6,0.6,1,0.5c0.4-0.1,0.8,0.2,0.9,0.8c0.1,0.5,0.2,1.6,0.3,2.3   c0.4,2.3-0.6,2.9-1.9,1.1c-1.2-1.6-1.4-1.6-2.5,0.5c-1.1,2.1-0.8,3.6,0.8,3.6c0.7,0,5.2,4.2,5.2,4.9c0,0.2-0.8,0.3-1.8,0.3   c-1.5-0.1-1.8,0.7-1.8,4.9c0,2.8-0.4,5.6-0.8,6.3c-0.8,1.2-0.5,1.4,1.8,1.7c2,0.2,5.7,3.4,5.1,4.4c-1.2,1.9,1.7,2.5,3.1,0.6   c1.5-2,1.5-2,1.8,1.3c0.2,1.7-0.2,2.1-1.2,1.7c-0.8-0.3-1.9-0.3-2.4,0c-1.7,1,1.2,3.4,4.2,3.4c1.6,0,3.1,0.4,3.4,0.9l0,0   c0.7,1.2,3,0.8,4.9-0.8c1.3-1.1,1-1.8-2.5-5.3c-2.3-2.3-4.6-3.8-5.4-3.5c-0.8,0.3-1.4,0.2-1.4-0.3s0.7-1.1,1.5-1.4s1.5-1.6,1.5-3   s0.9-3.2,2-4.2s1.8-2,1.5-2.3c-0.3-0.3,0.9-2,2.5-3.9c2.9-3.4,3.1-5.3,0.5-5.3c-1.4,0-2.5-2.1-2.5-4.6c0-0.8,1.1-1.9,2.5-2.4   c1.9-0.7,2.5-1.7,2.5-3.9c0-2.2,0.6-3.1,2.3-3.5c2-0.6,2.1-0.8,0.7-1.9c-0.9-0.7-1.9-2.1-2.3-3.1c-0.6-1.6-0.3-1.8,1.5-1.3   c2.6,0.7,5.8-1.8,5.8-4.5c0-1.4,1.1-2,5.1-2.5c7.9-1,10.8-5.1,7.3-10.1c-1.5-2.1-1.5-2.2,1.3-1.7c5.6,1,9.8-3.3,16.8-17.4   c2.1-4.3,2.5-5.8,1.7-7.6c-0.6-1.2-0.7-2.7-0.4-3.2c1-1.4,7-5.4,8.1-5.4c0.5,0,1.4-0.7,1.8-1.4c0.4-0.8,2.6-1.6,4.8-1.8   c3.8-0.4,4.2-0.7,6.9-6.3c2.4-4.9,3-7.5,3.4-14.9c0.3-5.6,0.9-9.4,1.7-10c0.7-0.6,2.9-3.4,4.9-6.4c2.6-3.9,3.6-6.4,3.6-9.3   C331.5,316,331.1,315.2,328,313.4z"
   id="path3976"
   style="fill:#f5f3c5;fill-opacity:1" />
	<path
   d="M237.1,463.5c0.5,0,0.3-0.5-0.3-1.1s-1.7-0.8-2.4-0.3c-0.9,0.6-0.7,1.1,0.7,2.2c1,0.8,1.8,1.6,1.7,1.8s-0.3,0.7-0.3,1v0   c0,0.3,0.5,0.3,1-0.1c0.7-0.4,0.7-1.1-0.1-2.1C236.8,464.2,236.6,463.5,237.1,463.5z"
   id="path3978"
   style="fill:#f5f3c5;fill-opacity:1" />
	<path
   d="M841.6,422.6c-1.5-0.8-2.3-0.5-4,1.3c-1.2,1.3-2.1,2.8-2.1,3.4s-1.1,1.9-2.3,2.7c-3.1,2.1-8.9,10.3-8.2,11.5   c0.3,0.6,1,0.8,1.6,0.4s1.7-0.1,2.7,0.5v0c1,0.6,2.3,1,2.9,1.1c1.1,0,5.1-3.9,4.7-4.6c-0.9-1.4,0.1-3.8,2.3-5.9   c1.4-1.3,2.3-2.8,2-3.3s0.1-1.2,0.9-1.5C844.1,427.4,843.9,423.8,841.6,422.6z"
   id="path3980"
   style="fill:#f5f3c5;fill-opacity:1" />
	<path
   d="M775.3,422c-2.4,0-4.2,0.3-4.1,0.6s0.5,1.9,0.9,3.5c0.4,1.6,1.2,3.6,1.7,4.2v0c1.5,1.9,6,0.7,6.3-1.6   c0-0.4,0.4-1.5,0.9-2.4C782.1,423.5,780,421.9,775.3,422z"
   id="path3982"
   style="fill:#f5f3c5;fill-opacity:1" />
	<path
   d="M851,411.9c-0.7,0.3-1.5-0.4-1.8-1.6c-0.5-1.8-0.8-1.9-2.1-0.8c-1.3,1-1.6,1-1.6,0c0-2.3-5.1-8.2-6.2-7.1   c-0.7,0.7-0.4,1.9,1,3.8c3.2,4.5,3.6,7.1,1.8,10c-1.6,2.4-1.6,2.6,0.4,3.1c1.1,0.3,2.1,1.3,2.1,2.3s0.3,2,0.7,2.4h0   c1.3,1.3,2.8,0,3.9-3.2c0.6-1.8,1.4-2.9,1.7-2.5c0.9,0.9,2.9-4.5,2.1-5.8C852.6,411.8,851.7,411.6,851,411.9z"
   id="path3984"
   style="fill:#f5f3c5;fill-opacity:1" />
	<path
   d="M792,371c-1.6-0.1-5.5-2.9-5.5-4c0-0.6-1.1-2.1-2.5-3.4c-1.4-1.3-2.2-2.8-1.9-3.2c0.3-0.5-0.5-1.4-1.9-2   c-3.1-1.4-5.7-6.8-5.7-11.8c0-2.5-0.7-4.4-2-5.6c-1.1-1-2.3-3.3-2.6-5.1s-1.2-3.8-2-4.5c-1.7-1.4-3.1,1.8-4.4,9.8   c-0.7,4.3-2.2,8.5-3.5,10.1c-0.1,0.2-2.6-1.3-5.4-3.4c-4.8-3.4-5.1-3.9-4.5-6.8c0.4-1.7,1.1-3.7,1.7-4.4c1.2-1.5,0.2-4.7-1.2-3.8   c-0.5,0.3-1.2,0.2-1.5-0.3s-1.6-0.9-2.8-1s-3.2-0.2-4.2-0.4c-1.2-0.2-2,0.3-2,1.1c0,0.8-0.6,1.6-1.4,1.9c-0.8,0.3-1.1,0-0.7-0.6   c0.4-0.6,0.2-1.3-0.3-1.6c-0.5-0.3-1.2-0.2-1.5,0.4s-0.1,1.2,0.5,1.6c0.7,0.5,0.7,1.1-0.1,2.1c-0.6,0.8-0.8,1.4-0.4,1.4   s0,0.8-0.9,1.8c-1.3,1.4-1.4,2.1-0.4,3s0.5,1.2-2.3,0.9c-1.9-0.2-3.7-0.9-4.1-1.7c-0.9-2.1-4.1-2.2-4.6-0.1c-0.3,1-1.5,2.3-2.8,2.9   c-1.8,0.8-2.2,1.6-1.8,3.4c0.5,2.3,0.5,2.3-1,0.3c-1.5-2-1.6-2-2.5,0.5c-0.5,1.4-0.7,3-0.5,3.6c0.4,1.1-4.6,5.4-6.4,5.4   c-1,0-6.1,2.6-11.6,5.9c-2.9,1.8-3.8,2.9-3.8,5.1c0,1.5,0.7,3.3,1.5,4c0.8,0.7,1.5,2,1.5,2.8c0,1.3-0.3,1.2-1.4-0.4   c-1.3-1.8-1.5-1.8-2.1-0.2c-0.4,1,0.2,2.9,1.5,4.8c2.4,3.4,5.2,14.8,4.8,19.4c-0.2,2.4,0.3,3.3,2.9,4.8c3.2,1.9,3.2,1.9,7-0.7   c2.3-1.5,5.2-2.6,7.3-2.6c2.4,0,4.2-0.8,5.9-2.5c1.5-1.6,3.5-2.5,5.3-2.5c1.6,0,3.9-0.5,5-1.1c1.6-0.8,3.3-0.7,7.4,0.6   c4.3,1.4,5.6,2.3,6.9,5.1c0.9,1.9,2,3.4,2.6,3.4s1.8-1.7,2.9-3.8c1.1-2.1,2-3.2,2-2.4c0,0.7-0.4,2.2-1,3.3   c-1.4,2.7-0.3,4.4,1.8,2.7c1.4-1.1,1.5-1,1,0.4c-0.4,1,0,2.2,1,3c0.9,0.7,2.2,2.8,2.9,4.5c1.7,4,6.8,5.9,9.5,3.5   c1.5-1.3,1.9-1.2,3.5,0.6l0,0c2.3,2.7,2.8,2.6,4.8-0.5c1.2-1.8,2.2-2.4,3.5-2c1.9,0.6,3.3-0.7,3.6-3.5c0.3-2.1,2.3-7.7,4.5-12.5   C792.4,390.9,794.2,371.1,792,371z"
   id="path3986"
   style="fill:#f5f3c5;fill-opacity:1" />
	<path
   d="M879.9,81.6c-5.9-2.6-6.3-2.6-7.4,0.2c-0.9,2.2-0.9,2.2-1,0.1c-0.2-5.2-13.5-11.9-26.1-13.2c-4.7-0.5-9.2-1-10-1.2   c-1.1-0.3-1.4,0.4-1.2,2.8c0.3,3.8,0.3,3.8-4,1.4c-2.3-1.3-5.2-1.8-9.8-1.7c-8.7,0.2-11-0.3-11-2.6c0-3.1-3.3-4-11.6-3.4   c-5.8,0.5-7.8,0.3-8.5-0.7c-0.4-0.7-1.6-1.3-2.6-1.3c-1,0-1.8-0.6-1.8-1.4c0-2.6-3.1-3.6-6.2-2.1c-4.7,2.3-4.9,2.4-3.5,0.7   c1.2-1.4,1.1-1.7-0.1-2.2c-0.8-0.3-2.6-0.5-3.9-0.4s-4,0.1-5.9-0.1l-3.5-0.3l4-0.6c4.2-0.6,4.9-1.9,1.9-3.6c-1-0.6-2.3-1.6-2.9-2.4   c-1.7-2.1-3.1-0.6-2.9,2.9c0.1,1.7-0.4,3.5-1,4s-1,2.2-0.7,3.6c0.4,2.3,0.2,2.5-1.6,2c-1.1-0.4-2.3-0.2-2.7,0.3   c-0.4,0.6-1.6,0.5-3.2-0.4c-2-1.1-3-1.1-4.5-0.2c-1.4,0.9-2.3,0.9-3.9-0.1c-1.8-1.1-2.1-1-3,1.3c-1.3,3.4-2.6,3.2-7.6-1.5   c-3.2-2.9-3.9-4-2.5-4c2.7,0,3.2-1,1.6-3.4c-1.2-1.7-2.6-2.1-7.1-2.2c-3.8-0.1-5.8,0.3-6.1,1.2c-0.3,0.9-2.4,1.3-6.1,1.3   c-3.5,0-5.1-0.3-4.3-0.9c1.1-0.7,1-1-0.3-1.5c-2.8-1.1-10.3-0.7-11.1,0.5c-0.5,0.8-1,0.5-1.7-0.8c-0.6-1-1-2.1-0.9-2.4   c0.1-0.3-0.3-1-0.8-1.6c-0.6-0.8-0.4-1.3,0.7-1.8c1.3-0.5,1.4-0.9,0.5-2c-0.8-1-0.8-1.6-0.1-2.1c1.4-0.8,0.2-2.8-1.3-2.2   c-0.6,0.2-1.9-0.2-2.8-1c-1.3-1.1-2.6-1.2-6.4-0.3c-3.3,0.7-5.1,0.8-5.8,0c-0.6-0.6-1.9-1-3-1c-1.9,0-1.9-0.1-0.1-1.3   c2-1.5,1.5-2-2.6-3c-2.2-0.5-3.2-0.1-5.3,2.5c-2.1,2.5-2.4,3.4-1.4,4.6c1,1.2,0.8,1.3-1.5,0.8c-1.7-0.4-4,0-6.4,1.1   c-2.7,1.3-4.1,1.5-5.3,0.7c-1.2-0.7-3.2-0.6-7,0.4c-3,0.8-6.8,1.4-8.6,1.4c-7.3,0-12.5,4.4-8.4,7c2.3,1.4,0.8,1.7-3.8,0.7   c-2.3-0.5-4.1-1.3-4-1.7c0.2-0.8-0.3-1-1.9-1c-0.3,0,0,0.7,0.7,1.6c1.2,1.4,0.9,1.6-2.1,1.3c-3.1-0.3-3.5-0.1-3.8,2.4   c-0.3,2.3,0.2,2.9,3.3,4.2c2,0.8,3.6,2.1,3.6,3s0.2,2.1,0.5,2.9c0.3,0.8-0.1,1.4-1,1.4c-1.1,0-1.5-0.8-1.3-2.5   c0.2-2.2-0.5-2.8-5.2-4.8c-3-1.3-5.1-2.3-4.6-2.3c0.5,0,0.4-0.6-0.3-1.2c-0.9-0.9-1.5-0.9-2.4,0c-0.9,0.9-0.8,1.3,0.5,1.8   c0.9,0.4,1.4,1.1,1.1,1.6c-0.4,0.6-1.1,0.5-1.9-0.2c-1-0.8-1.5-0.8-2.1,0.1c-0.5,0.7,0.4,2.1,2.2,3.5c3.2,2.6,2.9,3-1.1,1.2   c-1.6-0.7-2.8-2.3-3.2-4c-0.7-3.5-2.1-4.5-3-2.1c-0.4,1-1.3,2.6-2.1,3.5c-1.1,1.3-1.2,2.1-0.3,3.8c0.6,1.2,0.9,2.4,0.6,2.7   c-1.3,1.3,1.6,4.3,4.3,4.3c1.5,0,3.5,0.8,4.3,1.8c1.8,2.1,3,6.3,1.7,6.3c-0.5,0-0.9-0.8-0.9-1.8c0-2.4-3.5-5.6-5.5-4.8   c-0.8,0.3-2.2,2.4-3.1,4.5s-2.2,4.2-3,4.5c-1.7,0.7-1.8,0.1-0.3-2.7c1.3-2.4,1.2-13.2-0.1-15.6c-0.5-0.9-0.4-2.5,0.2-4   c0.9-2,0.8-2.7-0.9-3.9c-3.1-2.2-6.7-1.3-8.4,2.1c-0.8,1.6-2.4,3.8-3.7,4.8c-2.1,1.6-2.2,2-0.8,4.7c0.8,1.6,2.1,3.1,2.9,3.5   c1.8,0.7,2,3.6,0.3,3.6c-0.7,0-2.1-0.9-3.3-1.9c-1.2-1.1-4.3-2.2-7.6-2.6c-5.2-0.6-5.7-0.5-7.3,1.9c-0.9,1.4-2.4,2.6-3.3,2.6   c-1.2,0-1.3-0.3-0.5-1.3c1.8-2.2,0.1-2.7-2.7-0.9c-1.4,0.9-4,2.2-5.8,2.8c-2.8,1-3.3,0.9-3.7-0.8c-0.5-1.8-0.7-1.8-3.5-0.4   c-1.7,0.9-4,1.6-5.2,1.6s-3.7,1.3-5.6,3c-3.5,3.1-5.8,3.7-6.8,2c-0.3-0.5,0.1-1,0.9-1c3.2,0,2.5-2-1.3-4c-4.7-2.4-5.7-1.5-4.1,3.5   c1.4,4.1,0.6,5.9-1.9,4.6c-1.3-0.7-2.6-0.3-4.9,1.6c-1.8,1.4-3,2.9-2.7,3.4c1.1,1.7-1.5,2-4.4,0.5c-3.5-1.8-5.6-0.1-2.6,2.1   c2.6,1.9,1.3,2.7-1.9,1.2c-1.5-0.7-2.9-2.3-3.3-3.8c-0.3-1.4-1.6-3.4-2.7-4.3c-2.7-2.2-0.3-2.4,3.4-0.3c3.3,1.9,8.4,1.9,12,0   c5-2.6,3.9-5-4-9c-3.8-1.9-7.6-3.5-8.4-3.5s-2-0.7-2.7-1.5c-0.9-1.1-2.5-1.4-6.4-1c-4,0.4-4.6,0.3-2.8-0.5c2.8-1.2,2-3-1.3-3   c-1.3,0-2.7-0.5-3-1c-0.3-0.6-1.7-0.8-3-0.6c-1.3,0.2-2.7,0-3-0.5c-0.3-0.5-1.3-0.6-2.3-0.1c-2,1-3.2,0.9-4.9-0.1   c-0.6-0.4-1.5-0.3-1.8,0.3c-0.3,0.6-0.4,1.1-0.1,1.1c0.3,0.1,1,0.2,1.6,0.4c0.6,0.1,1.3,0.3,1.8,0.4c0.4,0.1,0.1,0.5-0.7,1   c-0.8,0.5-2.4,0.5-3.8,0c-1.3-0.5-2.3-0.6-2.3-0.3s-0.6,0.1-1.4-0.6c-1-0.8-1.6-0.8-2.1-0.1c-0.6,1-0.5,1.2,1.5,1.4   c1.2,0.1,1.4,2.1,0.3,2.2c-0.4,0-1.4,0.3-2.3,0.7s-2.2,0.6-3,0.6c-3.1,0.1-5.5,0.9-5.3,1.7c0.1,0.5,0.7,0.9,1.3,0.9s1,0.3,1,0.8   v1.7c0,0.5-0.6,0.7-1.3,0.5c-0.7-0.3-2.8,1.3-4.5,3.5c-1.8,2.2-3.8,3.9-4.4,3.8c-0.7-0.1-1.2,0.5-1.1,1.5c0.1,1.1-0.6,1.8-1.6,1.8   c-2.6,0-4.5,2.6-2.8,3.7c1.6,1,1.8,4.5,0.4,5.5c-0.5,0.4-1.8,0.2-2.8-0.3c-2-1.1-4.2-0.3-3.2,1.2c0.3,0.5-0.2,1.2-1.2,1.6   c-4.8,1.7-6.7,5.4-4.9,9.4c0.4,0.8,0.5,2.6,0.3,4c-0.9,5.3,4.2,6.7,9.2,2.4l3-2.5l2.1,5.6c1.1,3.1,2.1,5.9,2.1,6.4   c0,2.1,2.6,3,4.6,1.7c1.1-0.8,3.1-1.5,4.4-1.7c1.8-0.3,2.5-1,2.6-2.8c0.2-5.2,0.4-5.8,2.5-6.3c1.2-0.3,1.8-1,1.5-1.5   s-0.1-1.3,0.5-1.7c0.7-0.4,0.4-1.4-1-2.9c-1.6-1.7-1.9-3-1.4-6c0.3-2.1,1.3-4.1,2.2-4.4c3.6-1.3,7.1-4.7,7.1-6.8   c0-2.8,2.3-4.7,5.1-4.3c3.6,0.5,3.2,2-1.9,7.5c-4.3,4.7-4.7,5.6-4.4,9.2c0.2,2.2,1.1,4.7,2,5.5c1.5,1.3,2.1,1.3,5.7,0   c4.6-1.7,10.4-1.9,11.9-0.4c1.1,1.1,0.6,1.2-7,1.5c-2.3,0.1-4.9,0.5-5.8,0.8c-1.8,0.7-2.2,4.2-0.6,5.2c1.1,0.7,1.4,4.5,0.4,4.5   c-0.4,0-1.2-0.8-1.9-1.7c-1.2-1.6-1.4-1.6-3.4,0.2c-1.5,1.4-2,2.7-1.6,4.5c0.6,3.2-3.7,7-5.8,5.1c-1.5-1.3-7.2,0.4-9.5,2.7   c-1.2,1.2-1.5,1.2-2.2-0.6c-0.7-1.8-1.1-2-3.8-1c-3.6,1.2-6.5-0.4-5.5-3.1c2-5,0-8-3.2-4.8c-1.2,1.2-1.3,2.4-0.5,6.1l1,4.6   l-2.8-0.2c-1.6-0.1-3.6,0.5-4.6,1.4c-1,0.9-2.2,1.6-2.8,1.5c-0.5-0.1-1.2,0.9-1.5,2.3c-0.4,1.6-1.4,2.6-2.8,2.8   c-1.2,0.2-2.9,1.3-3.7,2.6c-1.7,2.6-6.1,4.9-7.6,4c-0.5-0.3-1.2,0.3-1.5,1.4c-0.4,1.5-1.3,2-3.2,1.9c-3.4-0.2-3.6,2.3-0.3,3.9   c6.1,3.1,6.8,15.3,0.8,13.9c-4.3-1-12.2-1.2-13.7-0.4c-1.3,0.7-1.5,1.9-1.1,5.7c0.3,2.7,0,5.8-0.6,6.9c-1.5,2.8,1.2,8.3,4.1,8.3   c1.1,0,2.6,0.8,3.3,1.7c1,1.4,1.7,1.5,3.6,0.6c1.3-0.6,3.5-1.4,5-1.7c3.9-0.9,7.1-3.8,7.4-7.1c0.2-1.6,0.7-3,1.1-3.2   c3.7-1.3,7.2-4.5,7.5-7c0.3-2.5,0.7-2.8,3.8-2.8c1.9,0,4.5-0.6,5.7-1.3c3.4-1.9,5.2-1.5,7.1,1.6c1.7,2.8,8,8.8,9.5,9.1   c0.4,0.1,1.2,0.1,1.7,0.1c1.5,0,3.2,3.9,2.3,5.3c-0.4,0.7-2.3,1.2-4.2,1.2c-4.5,0-5,2-1.1,4c3.5,1.8,5,1.3,5-1.6   c0-1.1,0.4-1.8,0.9-1.5c1.6,1,3.4-2.3,2.7-5.1c-0.6-2.3-0.5-2.5,0.8-1.5c1,0.8,1.7,0.9,2.1,0.2c1-1.6-0.1-2.7-5-5.2   c-2.5-1.2-4.5-2.5-4.5-2.9c0-0.4-1.2-2.4-2.6-4.5c-2.7-4-2.7-8.5,0.1-4.9c0.8,1,1.5,1.5,1.5,1.1s1.1,0.5,2.5,2.1s4,4,6,5.3   c2.2,1.5,3.8,3.5,4.2,5.4c0.4,1.6,1.9,4.5,3.4,6.3c1.6,1.9,2.5,4.1,2.3,5.1c-0.7,2.8,1.4,3.3,4.6,1.1c2.6-1.9,2.9-1.9,3.5-0.4   c0.5,1.2,0.9,1.4,1.7,0.6c1.2-1.2,0.2-3.6-1.2-2.7c-0.5,0.3-0.9-0.1-0.9-0.9c0-0.8-0.9-2-2-2.6c-1.1-0.6-2-1.5-2-2.1s0.5-0.7,1-0.4   c0.6,0.3,1.3,0,1.5-0.8s1.8-1.4,3.2-1.5c2.3-0.1,2.7,0.4,2.9,2.9c0.2,2.5,0,2.8-1.2,1.9c-0.9-0.8-1.6-0.8-2-0.1   c-0.4,0.6-0.4,1.1-0.1,1.2l1.3,0.3c1.6,0.3,3.3,1.8,2.8,2.6c-0.3,0.4,0.2,1.4,1,2.1c1.1,0.9,1.2,1.6,0.4,2.5   c-0.7,0.9-0.7,1.5,0,1.9c1,0.6,1.2,0.5,1.4-1.5c0.2-1.2,0.6-1.3,2.9-0.4c1,0.4,2.3,0.2,2.8-0.3c0.7-0.7,2.1-0.7,4.4,0   c2.5,0.8,4.1,0.7,6-0.1c2.6-1.2,2.6-1.1,1.9,2.1c-1.6,7.8-3.7,13.8-5.2,14.6c-1,0.6-2.5,0.4-4.1-0.4c-1.9-1-3.1-1-4.9-0.2   c-2.5,1.2-6.4,0.3-15.6-3.5c-4.5-1.9-4.9-1.9-6.7-0.2c-1.1,1-2.1,2.7-2.2,3.9c-0.5,3.4-3.3,3.1-10-1.3c-3.4-2.2-7-4.1-8-4.1   c-2.9,0-5-2.8-3.8-5c1.3-2.5,0.2-6.7-2-8c-1.2-0.6-3.8-0.6-7.5,0.1c-3.1,0.6-6.3,0.8-7.1,0.5c-0.8-0.3-5.2,0.8-9.8,2.4   c-8.9,3.1-12.1,3.6-13.1,2c-1.1-1.8-2.5-1-3.9,2.4c-0.8,1.9-2.8,4.1-4.5,5c-2.9,1.5-3.9,4.1-3.1,8c0.4,2.1-2.2,6.2-4.8,7.7   c-1.5,0.9-4.1,3.8-5.7,6.5c-1.6,2.7-3.5,5.4-4.4,6c-2.2,1.6-2.5,3.8-2.3,13.6c0.2,5.8-0.3,9.8-1.2,12.2c-1.4,3.2-1.3,3.6,0.5,5.2   c1.1,1,1.9,2.2,1.9,2.7s1.6,3,3.6,5.4c2,2.4,3.4,5,3.1,5.8c-0.8,2,3.7,7.5,8.8,10.9c4.3,2.8,4.7,2.9,9.1,1.8   c2.6-0.6,5.8-0.9,7.2-0.6c1.5,0.3,5-0.3,8.1-1.5c8.3-3.1,9.8-2.8,13.3,2.2c1,1.4,1.8,1.6,4.4,0.8c4.3-1.2,5.2,0.1,4.6,6.9   c-0.9,9.9-0.6,12.1,2.1,14.9c2.3,2.4,4.6,6.8,4.3,8.3c-0.1,0.4,0.6,1.5,1.5,2.5c0.9,1,1.7,3,1.7,4.4c0,1.4,0.3,3.7,0.7,5.2   c0.4,1.8,0.1,4-0.9,6.1c-0.9,1.9-2.1,5.6-2.8,8.4c-1,4.4-0.9,5.5,0.9,9.4c2.4,5.1,3.2,7.8,3.9,13.4c0.9,7,2.5,11.8,6.5,19.5   c4.4,8.5,4.6,9.5,2.2,10.4c-1.4,0.5-1.2,1.1,1.6,3.7l0,0c2.4,2.2,3.9,2.9,5.4,2.4c1.2-0.4,5.1-1,8.7-1.4c7.9-1,9.6-1.8,14-6.9   c5.7-6.6,8.2-11.3,8.3-15.9c0.1-2.3,0.4-4.2,0.8-4.3c0.4,0,2.1-1.2,3.8-2.6c2.9-2.4,3.1-3,2.5-6.8c-0.4-2.3-1.1-4.8-1.5-5.7   c-1-1.9,1.4-4.8,7.1-8.4c3.4-2.1,6-5.3,6.6-7.7c0.1-0.4,0.3-1.1,0.4-1.5c0.7-2.5-0.4-12-1.5-13.7c-0.8-1.1-1.4-3.3-1.4-4.9   s-0.4-3.6-0.9-4.5c-1.8-3.4,5.9-16.3,12.7-21.2c2.1-1.5,5.2-4.7,6.8-7.1c3.9-5.5,9.3-16.6,9.6-19.8c0.1-1.4,1.1-2.8,2.1-3.2   c2.4-1,1-3.1-1.7-2.4c-13.1,3.2-15.1,3.4-17.3,1.9c-1.2-0.8-2.1-1.8-1.8-2.3s-0.2-1.3-1-2c-0.8-0.7-2.6-3.2-4-5.6s-3-4.4-3.4-4.4   c-0.5,0-1.3-1.4-1.9-3c-0.6-1.7-1.7-3.3-2.6-3.6c-1.1-0.4-1.5-2-1.5-5.3c0-2.6-0.6-5.6-1.4-6.6s-1.6-3.1-2-4.5s-2.2-4.9-4.1-7.8   s-3.5-6.1-3.5-7c0-1.1,0.4-0.8,1.1,0.8c0.9,2.3,1.1,2.3,2.2,0.8c1.1-1.5,1.4-1.5,2.7,0.5c2.2,3.4,4,7.7,4,9.8   c0,1.1,0.8,2.2,1.8,2.6c2.4,0.9,3.2,2.3,3.2,5.8c0,3.2,1.6,6.1,5.8,10.7c1.7,1.9,2.6,4,2.7,7c0.4,8.3,2.8,11.2,7.2,8.8   c1-0.5,5.1-2.6,9.2-4.6c4.1-2,8.9-4.4,10.7-5.4c4.1-2.3,10.9-8.3,10.6-9.3c-0.1-0.4,0.7-1.3,1.8-1.9c1.1-0.6,1.7-1.5,1.4-2.1   c-0.3-0.6,0.1-1.8,1-2.8c1.5-1.7,1.5-2-1-3.9c-1.5-1.2-3.1-2.1-3.6-2.1s-1.6-1.6-2.4-3.6l-1.5-3.6l-2.9,3.1   c-1.6,1.7-3.3,3.1-3.9,3.1s-1.7,0.3-2.6,0.6c-1,0.4-1.6,0.1-1.6-0.9c0-0.8-0.7-2-1.5-2.7c-0.8-0.7-1.5-2-1.5-2.9s-1.4-3.6-3-6.1   c-2-3-2.6-4.7-1.9-5.1c1.8-1.1,4.8,0.1,5.4,2.1c0.3,1,2.4,3.3,4.6,5c3.3,2.7,4.5,3,7.4,2.5c2.8-0.5,3.5-0.3,3.5,0.9   c0,2.4,4.7,3.8,13.9,4c7.8,0.2,8.5,0.4,10.3,2.8c1,1.4,3.3,2.9,5,3.3c2.7,0.6,2.9,0.8,1.4,1.7c-1.6,0.9-1.7,1.1,0,2.9   c2.3,2.5,4.3,2.4,5.4-0.3c0.7-1.8,0.9-1,0.9,3.3c0,3,0.2,6.2,0.4,7s1,3.6,1.7,6.3c0.7,2.6,1.7,5,2.2,5.3c0.5,0.3,0.9,1.3,0.9,2.2   s1.7,5,3.7,9l3.7,7.3l2.2-2.6c2.8-3.3,4.3-8.6,4.3-15.3c0-3,0.5-5.3,1.1-5.3c1.5,0,15.9-14.3,15.9-15.8c0-0.7,1.3-1.3,3.2-1.3   c1.7,0,4-0.7,4.9-1.6c1.6-1.5,1.9-1.4,3.5,1.8c0.9,1.8,2.6,4.2,3.6,5.2c1.5,1.4,1.9,2.9,1.7,6.5c-0.3,4.1,0,4.7,1.9,5   c1.2,0.2,3-0.6,4.1-1.6c1.9-1.9,2-1.9,2.6,3.4c0.4,3,1.1,5.7,1.6,6c0.5,0.3,0.8,3.6,0.5,7.5c-0.4,5.7-0.2,7.3,1.5,9.3   c1.1,1.4,1.9,3.1,1.9,4c0,5.5,7.6,15.5,10,13.1c1.6-1.7-1.4-11.5-4.2-13.9c-1.5-1.3-3-3.5-3.3-4.9c-0.4-1.4-1.3-3-2.1-3.4   c-1.2-0.7-1.2-1.5-0.2-5.5c0.9-3.3,1.7-4.5,2.6-4.2c0.8,0.3,2.2,0.5,3.3,0.5c1.2,0,1.9,0.7,1.9,2c0,1.1,0.9,2.4,2,3   c1.1,0.6,2,2.1,2,3.5c0,1.3,0.3,2.6,0.8,2.9c0.4,0.2,3.2-1.7,6.1-4.4l5.4-4.8l-0.5-5.5c-0.3-4-1.3-6.6-3.4-9.6   c-1.6-2.3-3.5-5-4.3-6c-1.2-1.7-1-2.3,1.8-5.1c3-3,3.2-3.1,5.1-1.4c1.8,1.6,2,1.6,2.6,0.1c0.3-0.9,1.4-1.6,2.3-1.6   c0.9,0,2.1-0.5,2.7-1c0.6-0.6,3-1.3,5.4-1.6c3.6-0.5,5.2-1.5,9.2-5.7c2.6-2.8,4.8-5.7,4.8-6.5c0-0.7,1.2-2.9,2.6-4.7   c2.6-3.3,2.7-6.4,0.2-6.4c-0.7,0-0.3-0.6,0.7-1.4c1.9-1.4,1.9-1.5-0.5-2.3c-2.4-0.9-2.4-0.9-0.2-1.5c2.2-0.6,2.2-0.6-0.9-5.1   c-3.6-5.4-3-7.9,2.6-10.2c4.6-1.9,3.4-3.8-2-3.1c-4.1,0.5-7.6-0.9-7.6-3c0-1.3,8.6-7.4,9.3-6.7c0.3,0.3-0.1,1.7-1,3   c-1.1,1.7-1.3,2.7-0.5,3.5s1.5,0.4,2.4-1.1c2.1-3.4,8.7-2.5,6.8,0.9c-0.8,1.4-0.5,2.2,1.3,3.4c1.7,1.2,2.3,2.6,2.3,5.6   c0,4.4,0,4.4,3.7,3.5c4.8-1.2,5.2-2.7,2.4-9.5c-2.3-5.8-2.4-6.3-0.8-7.9c0.9-1,3.3-3.7,5.4-6.1c3.1-3.6,4-4.1,5.2-3.1   c2,1.7,4.4,0.3,9.2-5.6c6-7.3,9.2-12.9,9.9-17c0.3-2.1,0.8-4.9,1.1-6.3c1-4.9,2.6,0.8,2.7,9.8c0.1,7.4,0.4,8.5,1.9,8.8   c2.2,0.3,3.4-2.3,1.8-3.8c-0.6-0.6-1.1-2.4-1.1-4.1c0-2.4,0.3-2.7,1.4-1.8c1.7,1.4,3.2-0.4,1.8-2.2s-3.3-11.8-3-15.7   c0.2-2.6-0.1-3.5-1.2-3.5c-0.8,0-1.4,0.5-1.3,1.2c0.1,0.6-0.4,2.4-1.2,4c-0.8,1.6-1.5,2.1-1.5,1.2c0-2.3-3.6-5.3-5.2-4.3   c-2.2,1.4-6.1,1.6-5.3,0.4c0.4-0.6-0.2-1.3-1.4-1.7c-2.8-0.7-1.6-2.3,8.2-10.7c7.5-6.4,11.8-8.2,14-5.9c1,1,7.8,0.3,9.3-0.9   c0.8-0.6,2-0.5,3.5,0.3c4,2.2,13.4,1.6,9.8-0.7c-1.9-1.2,7.1-7.9,10.9-8.2c3-0.2,3.3-0.1,2.2,1.2c-0.7,0.8-1,2.2-0.6,3.1   c0.5,1.3,0.9,1.4,2.1,0.4c0.8-0.7,1.5-0.8,1.5-0.3c0,1.3-8.4,9.3-9.7,9.3c-0.6,0-2.1,1.6-3.3,3.6c-1.9,3-2.1,4.6-1.7,9.8   c0.3,3.4,1.1,7.5,1.7,9.2l1.2,3l2.8-3.1c1.5-1.7,3.5-3.4,4.5-3.7c1-0.4,1.5-1.1,1.1-1.7c-1-1.6,1.4-5.1,3.3-4.8   c1.1,0.2,1.7-0.4,1.8-1.7c0.2-4,0.4-4.6,1.3-4c1.4,0.9,2.4-1.4,1.2-2.8c-0.6-0.7-0.8-1.6-0.4-1.9c0.3-0.3,0.1-1.2-0.5-1.9   c-0.6-0.7-0.7-1.9-0.3-2.6c0.6-0.9,1-1,1.5-0.2c0.4,0.6,1.1,0.9,1.6,0.5c0.5-0.3,0.7-1,0.4-1.5c-0.3-0.5-1.1-0.7-1.6-0.3   c-0.6,0.4-0.9,0.1-0.6-0.7c0.3-0.8,1.2-1.4,2-1.4s2.2-0.6,3.1-1.3c0.8-0.7,1.9-1.2,2.4-1.1c0.5,0.1,2.1-0.2,3.7-0.6   c2.1-0.6,3.3-0.4,4.4,0.8c1.4,1.4,1.9,1.3,4.7-0.8c5.3-4.1,13.9-7.4,16-6.3c1.3,0.7,2.2,0.6,3.2-0.4c1.2-1.2,1.2-1.9-0.2-4.7   c-0.9-1.8-2.8-3.7-4.2-4.2s-2.3-1.2-2-1.5c0.3-0.3,1.7,0,3.2,0.5c3.7,1.4,6.6-0.2,6.6-3.8c0.1-2.6,0.1-2.6,1-0.5   c1,2.5,1.4,2.6,3.9,1.3c1.4-0.7,2.2-0.5,3.6,1c1,1.1,2.3,2,3,2s1.8,0.7,2.5,1.5c1.6,2,3.5,1.4,3.5-1.1c0-1.1,1.2-2.5,2.6-3.2   C885,85.2,885,83.9,879.9,81.6z"
   id="path3988"
   style="fill:#f5f3c5;fill-opacity:1" />
	<path
   d="M536.9,336.2c-1.5,4.5-3,6.5-6.3,8.2c-4.5,2.3-6.3,5.6-5.5,10.3c0.4,2.5,0.1,4.5-1.1,6.2c-1.8,2.8-1.4,6.8,1.2,11.9v0   c1.2,2.3,1.9,2.7,4.1,2.1c4.6-1.1,5.2-2.4,8.7-18.9c0.9-4.4,2.1-8.7,2.5-9.6c1.1-2.2,0-9.6-1.6-11   C537.8,334.6,537.4,334.7,536.9,336.2z"
   id="path3990"
   style="fill:#f5f3c5;fill-opacity:1" />
	<path
   d="M819.4,359.3c-0.7,0.7-0.3,1.5,1.3,2.6v0c2.7,1.9,3.5,2,4.3,0.7C825.9,361.1,820.6,358,819.4,359.3z"
   id="path3992"
   style="fill:#f5f3c5;fill-opacity:1" />
	<path
   d="M728.3,322.8c-1.6-1.3-9.4,4.9-8.4,6.6v0c0.4,0.7,1.8,0.4,4.1-0.9C728.6,325.7,729.8,324.1,728.3,322.8z"
   id="path3994"
   style="fill:#f5f3c5;fill-opacity:1" />
	<path
   d="M779.9,320.7c-0.5-4.2-9.3-10.5-19.9-14.2l-5.8-2l-2.3,2.2c-1.9,1.7-2.6,1.9-3.8,0.9c-0.8-0.7-1.3-1.8-1-2.5   c0.3-0.7-0.1-1.7-0.8-2.3c-1.6-1.3-7.4-2.4-8.2-1.6c-0.9,0.9,2.4,4.3,4.3,4.3c1.4,0,1.3,0.2-0.2,1.1c-1.4,0.8-1.5,1.4-0.7,3.1   c0.8,1.4,1.4,1.7,2.1,1s2.5-0.3,5.9,1.5c6,3.1,7.7,5.7,5.3,8.3c-1.6,1.8-0.6,3.8,1.3,2.6c0.5-0.3,2.5,0.4,4.6,1.5   c4,2.1,8.2,2.2,7.8,0.1c-0.3-1.4,4.1-2.7,5.7-1.7c0.6,0.4,1.5,1.8,2,3.1c0.5,1.4,2.2,2.7,4.2,3.3l0,0c4.3,1.2,4.3,1.2,5.2,0.4   c0.4-0.4,1.2-0.8,1.7-0.9c1.9-0.3,2-0.4,1.4-1.4c-0.4-0.7-1.1-0.7-1.8-0.1C785.5,328.8,780.3,324,779.9,320.7z"
   id="path3996"
   style="fill:#f5f3c5;fill-opacity:1" />
	<path
   d="M707.5,325c-0.5-1-2.9-1.4-4.3-0.7c-0.4,0.2-0.5,0.7-0.3,1.2v0C703.7,326.6,708.1,326.2,707.5,325z"
   id="path3998"
   style="fill:#f5f3c5;fill-opacity:1" />
	<path
   d="M715,325.5c0.8-1.2-2-2.4-3.5-1.5c-0.6,0.4-0.8,1.1-0.5,1.6v0C711.8,326.8,714.2,326.8,715,325.5z"
   id="path4000"
   style="fill:#f5f3c5;fill-opacity:1" />
	<path
   d="M694.3,325.1c0.3,0.3,1,0.4,1.5,0.2c4.1-1.4-2.8-7-8.8-7.2c-2.2-0.1-5.5-0.7-7.3-1.3c-2.8-0.9-3.4-0.8-4.3,0.8   c-0.8,1.6-0.5,2.1,2.3,3.3c1.8,0.8,4.8,1.7,6.8,2.1l6.4,1.1C692.5,324.3,694.1,324.8,694.3,325.1L694.3,325.1z"
   id="path4002"
   style="fill:#f5f3c5;fill-opacity:1" />
	<path
   d="M695,319.6c0.3,0.5,1,0.9,1.5,0.9c1.4,0,2.1-1.8,1-2.5C696.2,317.2,694.3,318.4,695,319.6z"
   id="path4004"
   style="fill:#f5f3c5;fill-opacity:1" />
	<path
   d="M708.6,311.1c0.6,0.7,0.8,1.8,0.5,2.3s0.1,2.1,1,3.5l0,0c2.4,3.6,3.4,2.3,2.8-3.7c-0.4-3.9-0.3-4.8,0.5-3.7   c0.6,0.8,1.1,2.5,1.1,3.6c0,2.8,2.5,5,3.7,3.2c1.8-2.8,1.2-6.7-1.3-8.3c-3.2-2.1-3-3.7,0.4-3.3c1.9,0.2,2.8-0.2,2.8-1.2   c0-1.1-1.1-1.5-3.8-1.5c-2.1,0-3.8-0.5-3.8-1.1c0-1.6,2.1-2.2,5.2-1.7c2.7,0.5,7.4-1.4,6.3-2.5c-1.2-1.2-10-1-12.1,0.3   C709.3,298.7,706.9,309.1,708.6,311.1z"
   id="path4006"
   style="fill:#f5f3c5;fill-opacity:1" />
	<path
   d="M788.1,315c2.8-2.8,2.3-5.6-0.5-3.1c-1,0.9-2.2,1.6-2.8,1.6c-1.5,0-2.5,1.8-1.7,3v0C784,318.1,785.4,317.7,788.1,315z"
   id="path4008"
   style="fill:#f5f3c5;fill-opacity:1" />
	<path
   d="M677.7,308.8c0.9-0.9,0.8-1.5-0.1-2.7c-0.7-0.8-1.7-1.3-2.1-1c-1,0.6-5.6-3.7-5.2-4.8c0.1-0.4-1.9-2.9-4.6-5.5   s-5.4-5.7-6-6.9c-1.1-2.1-6.7-4.5-8.4-3.6c-0.4,0.2,1,2.7,3.3,5.5c2.2,2.8,4,5.8,4,6.8s1.1,2.8,2.5,4s2.5,3.1,2.5,3.9   c0,0.9,2.1,3.9,4.7,6.8l0,0c2.6,2.9,5,5.3,5.3,5.3c1.3,0,3-2.5,3-4.5C676.5,310.9,677,309.4,677.7,308.8z"
   id="path4010"
   style="fill:#f5f3c5;fill-opacity:1" />
	<path
   d="M688.8,309.2c1.4,1.6,2.8,2.1,5.3,1.8c1.9-0.2,3.7,0.1,4,0.7l0,0c0.4,0.6,1,0.6,1.8,0c0.6-0.5,1.6-1.1,2.2-1.3   c0.6-0.2,0.9-1.5,0.7-2.9c-0.2-1.4,0.4-3.2,1.3-3.9c0.8-0.7,1.5-1.9,1.5-2.6s0.9-2.2,2.1-3.3c1.4-1.3,1.7-2.2,0.9-2.6   c-0.6-0.4-0.9-1.4-0.6-2.2c0.4-0.9-0.1-1.7-1.3-2c-1.8-0.5-1.7-0.7,0.6-3.1l2.5-2.6l-3.1-2.8l-3.1-2.8l-4.8,5c-2.6,2.7-6,5.4-7.5,6   c-1.5,0.6-2.7,1.7-2.7,2.6s-0.8,1.5-1.9,1.5C681.2,294.5,682.2,301.8,688.8,309.2z"
   id="path4012"
   style="fill:#f5f3c5;fill-opacity:1" />
	<path
   d="M791.2,310.1c1.1,1.7,2,2.2,2.7,1.5c0.7-0.7,0.5-1.7-0.8-3C790.6,305.9,789.1,307,791.2,310.1z"
   id="path4014"
   style="fill:#f5f3c5;fill-opacity:1" />
	<path
   d="M661.6,309.7L661.6,309.7c0.8,1.4,1.4,1.7,2.2,1s0.7-1.5-0.2-2.6C661.8,305.9,660.2,307.2,661.6,309.7z"
   id="path4016"
   style="fill:#f5f3c5;fill-opacity:1" />
	<path
   d="M731,309.6L731,309.6c0.8,1.3,6,0.8,6-0.5c0-1.2-3.1-1.9-5.1-1.1C731,308.3,730.7,309,731,309.6z"
   id="path4018"
   style="fill:#f5f3c5;fill-opacity:1" />
	<path
   d="M730.8,295c-1.3,0.2-1.8,1.2-1.9,3.7c-0.1,1.9,0.2,3.9,0.5,4.4s0.7,1.3,0.7,1.8s0.2,1,0.3,1.3c0.1,0.3,0.6,0.3,1.2-0.1   c0.7-0.4,0.7-1,0.1-1.6c-0.6-0.6-0.4-2,0.5-3.9C733.9,296.9,733.3,294.6,730.8,295z"
   id="path4020"
   style="fill:#f5f3c5;fill-opacity:1" />
	<path
   d="M735,305.6c0.5,0.8,1,0.8,1.8,0c0.8-0.8,0.8-1.4,0-2.2C735.5,302.1,734,303.9,735,305.6z"
   id="path4022"
   style="fill:#f5f3c5;fill-opacity:1" />
	<path
   d="M731.4,291.1c-0.5,0.3-0.7,1-0.4,1.5c0.3,0.5,1,0.7,1.5,0.4c0.5-0.3,0.7-1,0.4-1.5C732.6,290.9,731.9,290.8,731.4,291.1z"
   id="path4024"
   style="fill:#f5f3c5;fill-opacity:1" />
	<path
   d="M724.4,273.4c-4.9,0.7-5.4,0.6-5.4-0.6c0-0.7-0.4-1.3-0.8-1.3h-1.4c-0.4,0-0.2,0.5,0.4,1.1c0.8,0.8,0.7,1.7-0.4,3.5   c-1.7,2.6-0.9,5.4,1,3.5c1.5-1.5,2.7-1.4,2.7,0.4c0,0.8,0.8,1.9,1.7,2.4h0c2.8,1.6,6.1-2.4,5.3-6.3   C727,273.6,726.4,273.1,724.4,273.4z"
   id="path4026"
   style="fill:#f5f3c5;fill-opacity:1" />
	<path
   d="M747.7,282.8c0.6-0.6,0.8-1.9,0.4-2.8c-0.5-1.3-1-1.4-1.8-0.6c-0.6,0.6-0.8,1.9-0.4,2.8   C746.4,283.4,746.9,283.6,747.7,282.8z"
   id="path4028"
   style="fill:#f5f3c5;fill-opacity:1" />
	<path
   d="M614.7,272.5c-2.9,0-4.4,6.4-2.1,8.8c1.5,1.5,2,1.5,4.2-0.1c1.7-1.2,1.7-1.6,0.2-5C616.3,274.2,615.2,272.5,614.7,272.5z"
   id="path4030"
   style="fill:#f5f3c5;fill-opacity:1" />
	<path
   d="M709,271.6c1.4-2.7,1.2-4.1-0.6-4.1c-1.2,0-4,5.9-3.3,7v0C705.9,276,707.2,274.9,709,271.6z"
   id="path4032"
   style="fill:#f5f3c5;fill-opacity:1" />
	<path
   d="M716,259.9c2,0.5,3.2,2.3,4.1,5.8c0.1,0.4,0.3,1.1,0.4,1.5c0.3,1,0.7,2.5,0.9,3.7c0.1,0.5,0.7,0.4,1.3-0.2   c0.9-0.9,0.8-1.5-0.1-2.7c-0.7-0.8-1-1.6-0.7-1.7c0.3-0.1,1-0.2,1.5-0.3c2.6-0.4,2.1-2.1-1.5-5.5c-6.7-6.4-7-6.9-5-9.1   c0.9-1,1.6-2.9,1.4-4.2c-0.3-1.8-1-2.3-3.3-2.3c-2.8,0-3,0.2-3.8,5.3C710.2,256.3,711.5,258.8,716,259.9z"
   id="path4034"
   style="fill:#f5f3c5;fill-opacity:1" />
	<path
   d="M713,263.6c0.5,0.8,1,0.8,1.8,0c0.8-0.8,0.8-1.4,0-2.2C713.5,260.1,712,261.9,713,263.6z"
   id="path4036"
   style="fill:#f5f3c5;fill-opacity:1" />
	<path
   d="M225.5,246c-0.6,0.4-0.8,1.1-0.5,1.6v0c0.8,1.2,3.2,1.2,4-0.1C229.8,246.3,227,245.1,225.5,246z"
   id="path4038"
   style="fill:#f5f3c5;fill-opacity:1" />
	<path
   d="M238.6,243.1c-0.2,0.5-1.1,1.5-2,2.1c-1.7,1.3-1.1,1.7,3.4,2.6v0c1.1,0.2,3.3,0,4.9-0.4c1.6-0.4,3.3-0.7,3.9-0.6   s1.2-0.3,1.5-1C251.1,243.2,239.7,240.5,238.6,243.1z"
   id="path4040"
   style="fill:#f5f3c5;fill-opacity:1" />
	<path
   d="M686,240.5c-1.6,0-3.7,3.4-2.8,4.4c1.1,1.1,3,0.7,4.3-0.8C688.8,242.4,688,240.5,686,240.5z"
   id="path4042"
   style="fill:#f5f3c5;fill-opacity:1" />
	<path
   d="M234.4,241.2c0.9-1.1-0.4-2.2-7-5.5c-8.6-4.4-12.3-5-15.5-2.7c-1.9,1.4-1.9,1.5,0.6,2.4c1.4,0.5,2.4,1.2,2.3,1.6   c-0.5,1.3-0.2,1.7,0.8,1.1c0.7-0.4,0.7-1.1-0.1-2.1c-0.8-1-0.8-1.4-0.1-1.4c1.6,0,12.1,5.1,12,5.9c0,0.4,0,1,0,1.4l0,0   C227.6,243.1,233.2,242.6,234.4,241.2z"
   id="path4044"
   style="fill:#f5f3c5;fill-opacity:1" />
	<path
   d="M715.8,230.8c0.6-5,0-5.9-2.4-3.7c-2.1,1.9-2.4,6.4-0.6,8.1C714.3,237,715.2,235.8,715.8,230.8z"
   id="path4046"
   style="fill:#f5f3c5;fill-opacity:1" />
	<path
   d="M729,223.6c0.5,0.8,1.2,0.7,2.3-0.4c1.1-1.1,1.3-1.9,0.5-2.6C730.5,219.2,728,221.9,729,223.6z"
   id="path4048"
   style="fill:#f5f3c5;fill-opacity:1" />
	<path
   d="M752.9,188.4c-1.1-0.9-1.6-0.6-2.3,1.3c-0.7,1.9-1.9,2.6-5.2,3c-2.8,0.4-5.1,1.5-6.7,3.2c-1.8,1.9-2.8,2.3-3.7,1.6   c-2.2-1.9-2.6,0.1-0.5,3.1c1.1,1.6,1.7,3.3,1.4,3.9c-0.4,0.6-0.4,1.7-0.1,2.5c1,2.6,2.7,1.6,4.3-2.4c1.1-2.8,2-3.8,3.2-3.4   c0.9,0.2,2.3-0.3,3-1.1c1.1-1.3,0.9-1.7-1.1-2.5c-2.3-0.9-2.3-0.9-0.1-1c1.3,0,2.7,0.8,3.4,2.1c1.2,2.2,1.2,2.2,2.8,0.3   c1.1-1.3,2.9-1.9,5.6-2l4,0l1.5-6.2c0.8-3.4,1.8-6.5,2.3-6.9c1.2-1.2,0.9-6.1-0.5-7.1c-2.2-1.6-4.2-0.9-4.5,1.7   c-0.7,5.9-1.2,7.2-2.7,6c-0.9-0.7-1.6-0.8-2-0.2c-0.3,0.5-0.1,1.3,0.5,1.6c0.7,0.5,0.7,1.1-0.1,2.1   C754.5,189.2,753.9,189.3,752.9,188.4z"
   id="path4050"
   style="fill:#f5f3c5;fill-opacity:1" />
	<path
   d="M481,195.5c0.8-1.2-2-2.4-3.5-1.5c-0.6,0.4-0.8,1.1-0.5,1.6v0C477.8,196.8,480.2,196.8,481,195.5z"
   id="path4052"
   style="fill:#f5f3c5;fill-opacity:1" />
	<path
   d="M501,194.5c0.8-1.2-2-2.4-3.5-1.5c-0.6,0.4-0.8,1.1-0.5,1.6l0,0C497.8,195.8,500.2,195.8,501,194.5z"
   id="path4054"
   style="fill:#f5f3c5;fill-opacity:1" />
	<path
   d="M438.1,181.8c0.9,0.9,4.4-1.2,4.4-2.7c0-1.8-2.7-3.9-4-3.1C437.4,176.7,437.1,180.8,438.1,181.8z"
   id="path4056"
   style="fill:#f5f3c5;fill-opacity:1" />
	<path
   d="M426.7,180.9c0.7-0.4,1.6-0.9,2-0.9c0.4-0.1,1-0.2,1.3-0.3c0.3-0.1,0.3-0.6-0.1-1.1c-0.3-0.6-1.2-0.7-1.8-0.3   c-0.6,0.4-1.5,0.8-1.9,0.8c-0.4,0-0.8,0.4-0.8,0.8v1.3C425.5,181.4,426.1,181.3,426.7,180.9z"
   id="path4058"
   style="fill:#f5f3c5;fill-opacity:1" />
	<path
   d="M773.6,165.1c-0.5-0.3-1.5-0.3-2.3,0c-0.8,0.3-2.4-0.6-3.7-2c-1.3-1.4-2.3-2.1-3-1.9l-0.1-0.1v0.1c-0.7,0.2-1,1.3-1,3.4   c0,1.9-0.5,2.9-1.4,2.9c-2.2,0-2.7,1.5-1.6,4.5h0c1,2.6,3.8,3,3.2,0.6c-0.2-0.8,0.4-1,1.6-0.6c1.1,0.3,2.4,0,3.1-0.9   c0.7-0.8,1.9-1.5,2.6-1.5C772.8,169.5,774.8,165.9,773.6,165.1z"
   id="path4060"
   style="fill:#f5f3c5;fill-opacity:1" />
	<path
   d="M440.8,172.6c0.8-0.8,0.8-1.4,0-2.2c-1.3-1.3-2.8,0.5-1.8,2.2C439.5,173.4,440,173.4,440.8,172.6z"
   id="path4062"
   style="fill:#f5f3c5;fill-opacity:1" />
	<path
   d="M275.6,147.3c-3.7,3.4-4,4-2.8,5.6c1.3,1.8,3.3,1.8,8.2-0.1c1.2-0.5,1.5-0.3,1,0.5c-0.4,0.7-0.5,2-0.1,2.9l0,0   c0.6,1.6,0.8,1.6,2-0.1c0.9-1.2,1.6-1.4,2-0.7c0.4,0.6,1.1,0.8,1.6,0.5c0.5-0.3,0.7-1,0.4-1.5c-0.3-0.5-1.1-0.7-1.6-0.3   c-0.6,0.4-0.8-0.1-0.4-1.3c0.9-2.8-2.5-5.7-5.6-4.8c-2.3,0.7-2.3,0.7-0.5-1.3C283.1,143,279.8,143.5,275.6,147.3z"
   id="path4064"
   style="fill:#f5f3c5;fill-opacity:1" />
	<path
   d="M267,149.6c0.8-1.3-3.3-3.3-5.3-2.6c-1.5,0.6-1.5,0.8,0.3,2.1h0C264.2,150.8,266.1,150.9,267,149.6z"
   id="path4066"
   style="fill:#f5f3c5;fill-opacity:1" />
	<path
   d="M403.6,122.1c0.6,0.4,0.6,1-0.1,1.8c-0.7,0.9-0.4,1.7,1,3c1.6,1.3,1.8,2.1,0.9,3.1c-0.8,0.9-0.8,1.6-0.1,2   c1.1,0.7,1.2,0.5,1.4-1.6c0.2-2.3,2.1-1.8,2.3,0.6c0.1,1.6-0.5,2.6-1.9,2.9c-1.1,0.3-1.7,1-1.4,1.5s0.2,1.3-0.4,1.6   c-1.5,1-0.2,2.5,2.3,2.6c1.8,0.1,1.6,0.3-1.1,1.5c-3.2,1.4-3.9,2.4-2.6,3.7v0c0.4,0.4,1,0.4,1.5,0.1c0.5-0.3,3.2-0.7,6.1-1   c7.2-0.6,8.7-1.2,9.8-4.1c1.1-2.8,0.5-4.3-1.6-4.3c-0.8,0-1.5-0.3-1.5-0.8c-0.3-2.9-1.1-4.5-3.6-7.7c-1.6-2-3.2-3.6-3.6-3.6   c-0.4,0,0-1.1,0.9-2.5c1.5-2.2,1.5-2.5,0.1-3.1c-0.9-0.3-2-0.3-2.6,0c-1.7,1-1.2-0.4,1-3.2c3.3-4.2,0.7-5-3.3-1.1   C403.7,117.2,402,121.1,403.6,122.1z"
   id="path4068"
   style="fill:#f5f3c5;fill-opacity:1" />
	<path
   d="M94,135.5c-2.2-1.8-2.6,0.5-0.9,4.5v0c1,2.5,1.9,3.4,2.5,2.8C96.8,141.6,95.8,137,94,135.5z"
   id="path4070"
   style="fill:#f5f3c5;fill-opacity:1" />
	<path
   d="M392.8,138.9c0.8,2,1.3,2,6.2-0.7c3.3-1.8,4.1-2.8,4.6-6c0.6-3.4,0.3-3.9-2.1-5.2c-2.5-1.3-2.9-1.2-4.5,0.6   c-1,1.1-1.4,2-0.9,2c0.5,0-0.2,0.5-1.5,1c-1.8,0.7-2.1,1.3-1.3,2.1c0.8,0.8,0.8,1.6,0,2.8C392.7,136.5,392.5,138,392.8,138.9z"
   id="path4072"
   style="fill:#f5f3c5;fill-opacity:1" />
	<path
   d="M218.4,135.4c-0.8-1.4-1.4-1.7-2.2-1c-0.8,0.8-0.7,1.5,0.2,2.6h0C218.2,139.1,219.7,137.9,218.4,135.4z"
   id="path4074"
   style="fill:#f5f3c5;fill-opacity:1" />
	<path
   d="M92.8,130.4c-1.3-1.3-2.8,0.5-1.8,2.2c0.5,0.8,1,0.8,1.8,0S93.6,131.2,92.8,130.4z"
   id="path4076"
   style="fill:#f5f3c5;fill-opacity:1" />
	<path
   d="M92.5,128c1.1-0.7,0.6-4.1-0.6-3.8c-0.9,0.3-1.3,2.2-0.7,3.5C91.5,128.2,92,128.3,92.5,128z"
   id="path4078"
   style="fill:#f5f3c5;fill-opacity:1" />
	<path
   d="M46.9,115.3c-0.7-0.8-6.4,2.8-6.4,4.1c0,0.4,0.3,1.1,0.7,1.4h0C42.1,121.8,47.6,116.5,46.9,115.3   C46.9,115.4,46.9,115.4,46.9,115.3l0.1-0.1L46.9,115.3z"
   id="path4080"
   style="fill:#f5f3c5;fill-opacity:1" />
	<path
   d="M356,67.4c-2.8,0.2-2.9,0.1-1.1-1.2c1-0.8,1.6-1.9,1.2-2.5c-0.5-0.7,0.1-1.2,1.7-1.2c1.6,0,2.6,0.7,3,2.1   c0.4,1.3,1.2,2,2.4,1.7c2.8-0.5,2.9-3.9,0.2-6.1c-1.5-1.2-1.7-1.7-0.7-1.4c1.8,0.6,4.3-1.6,3.1-2.7c-0.4-0.4-1.5-0.7-2.5-0.7   s-1.7-0.6-1.6-1.3c0.1-0.7-0.6-1.1-1.8-1c-1.4,0.2-2.1-0.3-2.2-1.6c-0.2-2.5,2.6-2.2,6.2,0.6c1.5,1.2,3.3,2.2,4,2.2   c2.4,0,2.6-1.5,0.3-3.2l-2.2-1.7c0,0,0,0,0-0.1l3.1,0c3.6,0,5.1-1.5,2.9-2.7c-0.8-0.4-1.4-1.3-1.3-1.8c0.1-0.5-1.2-1.3-2.8-1.6   l-2.8-0.5c0,0,0,0,0-0.1l2.8-0.4c2.3-0.3,3.2-1,2.8-1.6l0.2,0l-0.2,0c-0.3-0.5-1.4-1-3.3-1.2c-2.5-0.4-3-0.7-1.8-1.2   c0.9-0.4,3.3-0.4,5.3-0.1c3.6,0.6,4.9-0.7,2.3-2.4c-1.2-0.8-1.8-1-3.8-1.2c-0.5-0.1-1-0.5-1-1s0.6-0.8,1.3-0.8   c1.5,0.2,1.7-1.8,0.3-2c-2.7-0.4-2.8-0.6-0.7-1.4c1.2-0.5,2.6-1.7,2.9-2.7c0.4-1,1.3-2.1,2-2.6c2.2-1.3,0.3-2.9-2.6-2.2   c-1.8,0.4-2.3,0.3-1.6-0.4c0.5-0.6,3-1.1,5.5-1.3c2.9-0.2,4.4-0.7,4.3-1.6c-0.1-0.7,0.6-1.3,1.6-1.3c3.1,0,8.5-3.1,7.3-4.2   c-1.3-1.3-8.7-1.3-13.4,0c-3.5,1-6,0.2-3.7-1.2c0.6-0.4,0.8-1.1,0.4-1.6c-0.3-0.5-1-0.7-1.5-0.4s-0.7,0.9-0.5,1.3   c0.3,0.4-1.1,1.5-3,2.3c-3.2,1.4-3.4,1.4-3.2-0.1c0.2-1.4-0.8-1.6-7.2-1.6c-6.1,0-8.7,0.6-13.7,2.9c-3.4,1.6-6.7,2.6-7.4,2.4   c-2.5-0.8,14.9-6.8,19.9-6.8c5.5,0,12.4-2.4,11.6-4.1l0.1,0l-0.1,0c0,0,0,0,0-0.1c-0.4-0.7-2.7-0.8-6.3-0.4   c-4.3,0.5-5.2,0.4-3.9-0.5c1-0.6,1.5-1.5,1.2-2c-0.7-1.2-8.9-1.2-13.5,0c-4.9,1.3-13.5,2.2-12.7,1.4c0.4-0.4,2.3-0.9,4.3-1.3   c5.2-0.8,3.8-2.6-2.1-2.7c-2.8,0-5.9-0.4-7-0.7c-2.7-0.9-9.1,0.7-8.8,2.1c0.3,1.6-1.3,1.5-4.9-0.4c-2.2-1.1-3.7-1.3-5.2-0.6   c-1.4,0.6-2.7,0.6-3.8-0.1c-1.9-1.2-4.8,0.6-4.8,2.9c0,2.1,2.2,2.9,3.4,1.3c0.9-1.2,1.3-1.2,2.8,0.3c1,1,1.6,1.8,1.5,1.9   c-1.6,0.6-8.4,0.6-9.7-0.1c-0.9-0.5-3.2-0.5-5.1-0.1c-2.7,0.6-3.4,1.2-3.1,2.7c0.3,1.9,0.3,1.9-1.7,0.1c-1.9-1.7-4.8-1.5-3.7,0.2   c0.3,0.4-2.1,0.6-5.2,0.3c-6.4-0.4-11.7,1.6-11.7,4.5c0,1-0.7,1.8-1.5,1.9c-0.8,0.1-2,0.2-2.5,0.4c-0.6,0.1-1.4,0.2-1.9,0.1   c-0.5-0.1-2.9,0.8-5.4,2c-3.9,1.8-4.3,2.3-3.1,3.5c1.1,1.1,2.2,1.2,4.6,0.5c1.8-0.5,3.2-0.6,3.2-0.2c-0.1,1.9-4.1,5.2-6.3,5.2   c-1.4,0-2.8,0.4-3.1,1c-0.3,0.5-1.2,0.7-1.9,0.4c-2-0.8-8.8,2.4-8.4,3.8c0.5,1.6,4.6,2.6,9.1,2.3c2-0.2,3.7,0.1,3.7,0.6   c0,0.5-1.1,0.9-2.4,0.9c-3.5,0-7.8,1.8-7.1,3c0.3,0.6,1.5,1,2.6,1s1.7,0.5,1.4,1c-0.9,1.4,3.6,2.9,6,2c1.1-0.4,5.6-0.8,9.9-0.9   c4.4-0.1,8.3-0.4,8.8-0.7c0.4-0.3,0.8,0,0.8,0.5s1.3,2.6,3,4.4c1.7,1.9,3,3.8,3,4.2c0,0.4,0.8,1.7,1.8,2.7s1.8,3.3,1.8,5   c0,3.8,2.2,4.7,3.5,1.6c0.9-2.2,1-2.2,1.5-0.3c1,3.3,0.7,4-1.7,4.5c-3.3,0.8-2.9,2.4,0.7,2.8c4.8,0.5,5.9,2.1,3.4,4.7   c-2,2.2-2,2.3-0.3,3.3c1.6,0.9,1.6,1.1,0.2,1.1c-2.1,0-4.2,2.6-3.3,4.1c0.5,0.8,1,0.8,1.8,0c2-2,3-1.1,1.2,0.9c-1,1.1-1.4,2-0.9,2   c0.5,0,0.1,0.5-0.9,1.1c-1,0.6-1.5,1.5-1,2.2c0.4,0.7,0.8,1.6,0.8,2.2c0,0.5,0.6,0.9,1.3,0.7c0.7-0.1,1.1,0.3,1,1   c-0.4,1.8,4.5,9,8.2,12.1c2.3,1.9,3.8,2.5,5.3,2c1.2-0.4,1.8-0.3,1.4,0.1c-0.4,0.4-0.2,1.4,0.4,2.1h0c1.1,1.4,2.4,1,6.3-1.9   c1.3-1,1.9-2.5,1.8-5c-0.1-2,0.3-3.9,0.8-4.2s1-1.4,1-2.5c0-2.3,7.7-9.1,9.5-8.4c3.2,1.2,9.2-4,8.6-7.5c-0.1-0.8,0.3-1.1,0.9-0.6   c0.6,0.4,2-0.2,3.1-1.4c1.6-1.7,3.1-2.1,8.2-2c3.5,0.1,7.3-0.5,8.6-1.1c1.3-0.7,4.1-1.8,6.4-2.4C368.6,68.9,365.8,66.7,356,67.4z"
   id="path4082"
   style="fill:#f5f3c5;fill-opacity:1" />
	<path
   d="M415.8,108.6c0.8-0.8,0.8-1.4,0-2.2c-1.3-1.3-2.8,0.5-1.8,2.2C414.5,109.4,415,109.4,415.8,108.6z"
   id="path4084"
   style="fill:#f5f3c5;fill-opacity:1" />
	<path
   d="M399.1,105.6c0.3,0.5,1,0.7,1.6,0.3c0.5-0.3,0.7-0.9,0.4-1.2c-0.3-0.3-0.1-1.1,0.5-1.9c0.6-0.7,0.8-1.8,0.4-2.4   c-0.9-1.5-2.8-0.1-2.1,1.5c0.3,0.8,0.1,1.6-0.4,2C398.9,104.4,398.7,105.1,399.1,105.6L399.1,105.6z"
   id="path4086"
   style="fill:#f5f3c5;fill-opacity:1" />
	<path
   d="M244,64.2c1.9-1.4,1.9-1.6,0.2-2.2c-1-0.4-2.4-0.2-3.1,0.5c-1.1,0.9-2.3,0.4-5.4-2.3c-3.5-2.9-4.5-3.3-7.4-2.7   c-1.8,0.4-3.2,1.2-3,1.9c0.3,1.4-2.4,1.6-3.3,0.1c-0.3-0.6-1.4-0.9-2.3-0.8c-1.3,0.2-1.6-0.4-1.3-3c0.3-2.9,0.1-3.3-2.3-3.3   c-1.4,0-3.7,0.7-5,1.5c-2.1,1.4-2.4,1.4-2.9,0c-1.5-3.9-11.7,1.1-11.7,5.7c0,2.9,3.9,8.8,5.8,8.8L214,69c7,0.2,11.2,0.8,14,2.1   c2.2,1,4.8,1.9,5.7,2c2.5,0.2,3.2,1.3,1.9,2.8c-1.4,1.7-0.3,3,1.5,1.6c1-0.8,1.5-0.5,2,1.5c0.5,2.1,0.1,3-2,4.7   c-1.4,1.1-2.4,2.5-2.1,3c0.3,0.5-1.2,0.9-3.4,0.9c-4.2,0-6.8,2-5.8,4.5c0.6,1.6,4.3,2,6.5,0.6c1.5-1,7.2,1.4,8.4,3.6   c0.4,0.7,1.5,1.3,2.3,1.3s1.3,0.6,1.2,1.2c-0.2,0.8,1,1.3,3,1.4c1.8,0.1,4.9,1,7,2.1l0,0c4.4,2.2,6.1,1.9,3.8-0.7   c-1.5-1.7-1.5-1.8,0.1-2.2c3.4-0.7,2.3-4.8-2.5-9.5c-3.8-3.6-4.3-4.6-3.1-5.4c2.2-1.4,2.6-1.3,6,2.1c3,3,3.2,3,5.1,1.4   c1.1-1,1.7-2.1,1.5-2.5c-0.3-0.4,0.5-1,1.7-1.3l2.2-0.6l-2.3-2.5c-1.3-1.4-2.9-2.3-3.5-2s-2-0.5-3-1.6c-1-1.1-3.1-2-4.6-2   c-3,0-4.7-2.5-2.4-3.4c3.7-1.4-4.2-7.2-9-6.7C242,65.7,242,65.7,244,64.2z"
   id="path4088"
   style="fill:#f5f3c5;fill-opacity:1" />
	<path
   d="M221.3,99.3c-0.6,0.6-0.8,1.9-0.4,2.8c0.5,1.3,1,1.4,1.8,0.6c0.6-0.6,0.8-1.9,0.4-2.8C222.6,98.7,222.1,98.5,221.3,99.3z"
   id="path4090"
   style="fill:#f5f3c5;fill-opacity:1" />
	<path
   d="M214.7,101.4c1.4-0.8,1.7-1.4,1-2.2c-1.2-1.2-4.5,0.9-3.6,2.4l0,0C212.4,102.2,213.5,102.1,214.7,101.4z"
   id="path4092"
   style="fill:#f5f3c5;fill-opacity:1" />
	<path
   d="M0.3,95.2c-0.5,0.3-0.3,1.2,0.3,2h0c1.3,1.6,6.6,1.5,6.1-0.1C6.4,95.8,1.5,94.4,0.3,95.2z"
   id="path4094"
   style="fill:#f5f3c5;fill-opacity:1" />
	<path
   d="M384.2,87c-0.7-0.6-1.7-1.8-2-2.8c-0.6-1.5-1.4-1.7-5.4-1.1c-2.6,0.4-5.6,0.8-6.8,0.8c-1.1,0.1-1.8,0.4-1.5,0.8   c0.8,1.1-3.3,3.6-6.5,3.9c-1.6,0.2-2.5,0.6-2.7,1.1l-0.2,0l0.2,0c-0.3,0.6,0.7,1.4,2.9,1.7c1.6,0.3,2.7,0.9,2.4,1.4   c-0.3,0.5,0.4,1.2,1.5,1.7l0,0c3.3,1.3,6,1,11.6-1.2C384,90.8,386.3,88.6,384.2,87z"
   id="path4096"
   style="fill:#f5f3c5;fill-opacity:1" />
	<path
   d="M359,86.5c0.9,1.5,5.1,1.2,6.5-0.5c1-1.2,0.9-1.6-0.4-2.1C363,83.1,358.2,85.2,359,86.5L359,86.5z"
   id="path4098"
   style="fill:#f5f3c5;fill-opacity:1" />
	<path
   d="M228,79.5L228,79.5c1,1.7,4.9,0.7,5.3-1.3c0.2-1.2-0.4-2-1.7-2.4c-1.1-0.3-1.8-0.9-1.6-1.4c0.3-0.4,0.1-1.1-0.4-1.4   c-0.5-0.3-1.2-0.2-1.5,0.4c-0.3,0.5-0.1,1.2,0.5,1.6c0.7,0.5,0.7,1.1-0.1,2C227.9,77.8,227.7,78.9,228,79.5z"
   id="path4100"
   style="fill:#f5f3c5;fill-opacity:1" />
	<path
   d="M539.6,73.5c2.2-1.2,2.5-2.5,0.8-3.5c-1.4-0.9-4.3,2-3.5,3.5l0,0C537.4,74.2,538.2,74.2,539.6,73.5z"
   id="path4102"
   style="fill:#f5f3c5;fill-opacity:1" />
	<path
   d="M285.5,72c1.5,1.8,2.6,1.9,3.5,0.4c1-1.6-1.1-3.3-3.1-2.5C284.6,70.4,284.5,70.8,285.5,72L285.5,72z"
   id="path4104"
   style="fill:#f5f3c5;fill-opacity:1" />
	<path
   d="M562.1,66.6c-0.7,0.7-0.4,1.5,0.9,2.5c2.3,1.7,3.2,1.8,4,0.5C567.9,68.1,563.3,65.3,562.1,66.6z"
   id="path4106"
   style="fill:#f5f3c5;fill-opacity:1" />
	<path
   d="M554.5,47c0.6,0.4-0.2,1.7-1.7,3.2c-1.5,1.4-2.6,3-2.5,3.4s-0.2,0.9-0.7,0.9c-1.1,0-3.9,5-3.7,6.5c0,0.1,0,0.1,0.1,0.2   c0,0.1,0,0.1,0.1,0.2c0.3,0.4,0.8,0.6,1.4,0.6c0.8,0,1.6,0.6,1.8,1.3c0.2,0.7,0,1.2-0.4,1c-0.7-0.2-1.3,0.5-1.3,1.5l0,0   c0,0.1,2.5,0.3,5.5,0.4c5.5,0.2,8.2-1.1,4.8-2.4c-4.5-1.7-4.3-4.7,0.7-10.2c4.1-4.6,8.1-7.1,11-7.1c2.1,0,13.1-3.4,16.1-5   c1.9-1,2-1.3,0.7-2.6c-1.2-1.2-2.1-1.1-6.2,0.7c-2.9,1.3-6,1.9-7.9,1.7c-1.8-0.3-5,0.3-7.5,1.4c-2.4,1-5.6,1.9-7.2,1.9   C554.5,44.5,552.8,46,554.5,47z"
   id="path4108"
   style="fill:#f5f3c5;fill-opacity:1" />
	<path
   d="M854.1,65.7c0.7,1.1,6.2,0.9,8.7-0.4c1.5-0.7,1.6-1.2,0.6-2.4C861.5,60.6,852.6,63.2,854.1,65.7L854.1,65.7z"
   id="path4110"
   style="fill:#f5f3c5;fill-opacity:1" />
	<path
   d="M171.5,55.1c1.4,1.7,0.6,1.9-2,0.5c-1.2-0.6-2.1-0.6-2.5-0.1c-0.3,0.5,1.8,2.7,4.6,4.8l0,0c4.9,3.6,5.4,3.8,7.9,2.5   c3.6-1.8,4.1-3.6,1.7-5.7c-1.4-1.2-1.7-2-1-2.8c1.8-1.8-0.5-5-2.6-3.8c-0.9,0.5-3,1.4-4.6,2C170.8,53.4,170.5,53.8,171.5,55.1z"
   id="path4112"
   style="fill:#f5f3c5;fill-opacity:1" />
	<path
   d="M220.5,56.1L220.5,56.1c1.3,1.5,7.4,1.2,9.3-0.6c1.1-1-4.5-4-7.3-4C220,51.5,218.9,54,220.5,56.1z"
   id="path4114"
   style="fill:#f5f3c5;fill-opacity:1" />
	<path
   d="M133,43.9c-0.2,3,1.7,4.5,3.8,2.9c0.7-0.5,2.4-0.6,3.7-0.2c2.3,0.7,2.3,0.7,0.3,0.8c-2.3,0.1-3.7,1.4-2.6,2.5v0   c1.1,1.1,6.3,0.7,10-0.9c2-0.8,4.8-1.5,6.3-1.5c2.9,0,5.6-2.3,4.6-3.9c-0.3-0.5-1.4-0.8-2.3-0.7c-1,0.1-2.2-0.7-2.8-1.8   c-1.5-3.1-4-2.7-3.9,0.7c0.1,2.2-0.3,2.8-2,2.8c-1.2,0-3.1-0.7-4.2-1.5c-1.2-0.8-4-1.6-6.4-1.8C133.4,41,133.1,41.2,133,43.9z"
   id="path4116"
   style="fill:#f5f3c5;fill-opacity:1" />
	<path
   d="M190.7,45.2c0.3,2.7,0.8,2.9,7.5,3.6c1.2,0.1,2.5,0.6,3,1l0,0c0.8,0.8,20.1-0.1,21.5-1c0.4-0.2,0.5-1,0.2-1.8   c-0.3-0.8,0-1.7,0.6-2c0.6-0.4,0.8-1.1,0.5-1.6c-0.4-0.6-1-0.6-1.8,0c-0.6,0.5-2.3,0.9-3.7,0.9s-6.3,0.2-11.1,0.5   c-8.8,0.5-10.9-0.1-12.2-3.5c-0.4-1.2-1.7-1.8-3.9-1.8c-4.2,0-6.7-1.4-4.2-2.4c1.3-0.5,1.4-1,0.7-1.8c-1.2-1.2-3.6-0.2-2.7,1.2   c0.3,0.5-0.3,0.9-1.4,0.9c-1.1,0-2.3,0.5-2.6,1c-1.2,1.9,1.7,4,5.6,4C189.9,42.5,190.4,42.8,190.7,45.2z"
   id="path4118"
   style="fill:#f5f3c5;fill-opacity:1" />
	<path
   d="M182.6,45c-1.5,1.5-1.5,1.8,0.3,3.1v0c2.3,1.7,2,1.6,4,0.8c2.2-0.9,2-3.1-0.5-4.5C184.7,43.6,184,43.7,182.6,45z"
   id="path4120"
   style="fill:#f5f3c5;fill-opacity:1" />
	<path
   d="M761,47.6c0.4-0.6,1.5-0.6,3.1,0c3,1.1,5.1,0.3,3.5-1.4c-1.9-1.9-1.2-3.1,0.8-1.3c1.6,1.4,2.3,1.5,4.1,0.6   c1.7-0.9,1.9-1.4,1-2.6c-1.3-1.5-8.7-1.7-9.6-0.3c-0.3,0.5-1.8,0.1-3.4-0.8c-2.4-1.4-3.1-1.5-4.4-0.4c-1.9,1.5-2,4.2-0.4,5.9   C757.1,48.8,760.2,48.9,761,47.6z"
   id="path4122"
   style="fill:#f5f3c5;fill-opacity:1" />
	<path
   d="M168.2,39.7c-1.7,1.2-1.6,1.5,1.3,4.6v0c3.7,4,7.4,4.1,7.8,0.1C177.8,40.3,171.8,37.2,168.2,39.7z"
   id="path4124"
   style="fill:#f5f3c5;fill-opacity:1" />
	<path
   d="M778,46.1c2,1.5,6.5,1.5,6.7,0.2l0.3,0l-0.3-0.1c0-0.1,0-0.1,0-0.2c-0.4-1.3-5.3-2.6-7.2-1.9   C776.3,44.6,776.4,44.9,778,46.1z"
   id="path4126"
   style="fill:#f5f3c5;fill-opacity:1" />
	<path
   d="M167.7,45.9c0.6-0.3,0.5-1.2-0.2-2c-0.6-0.8-1.6-1.1-2.1-0.8c-0.6,0.3-0.5,1.2,0.2,2C166.2,45.9,167.2,46.3,167.7,45.9z"
   id="path4128"
   style="fill:#f5f3c5;fill-opacity:1" />
	<path
   d="M121,44.2c0.8-0.3,1.7-0.1,2.1,0.5v0c0.7,1.1,4.3-2.7,4.4-4.6c0-0.5,0.7-0.4,1.4,0.3c1.1,0.9,1.8,0.6,3.5-1.5   c1.5-1.9,1.8-3,1.1-3.7s-1.4-0.7-2.2,0.2c-0.7,0.7-2.3,1.2-3.8,1.2c-3,0-10.7,6.4-9.1,7.5C119.1,44.4,120.2,44.5,121,44.2z"
   id="path4130"
   style="fill:#f5f3c5;fill-opacity:1" />
	<path
   d="M751.8,44.6c0.8-0.8,0.8-1.4,0-2.2c-1.3-1.3-2.8,0.5-1.8,2.2C750.5,45.4,751,45.4,751.8,44.6z"
   id="path4132"
   style="fill:#f5f3c5;fill-opacity:1" />
	<path
   d="M185,24.9c1.3,0.9,3.7,1.6,5.2,1.7s2.1,0.3,1.3,0.6l-3,1c-1.3,0.4-1.3,0.6,0.1,1.7c0.9,0.6,1.6,1.6,1.5,2.2   c-0.1,0.5,1.6,1.1,3.8,1.3c2.9,0.2,4.5-0.2,6.1-1.8c1.8-1.7,2.4-1.9,3.3-0.8c0.8,1,0.6,1.6-0.9,2.6c-1.1,0.7-1.8,1.5-1.5,1.9   c0.3,0.3-0.2,1.2-1.2,1.9c-3.1,2.3,0,3.6,9.3,4c4.8,0.2,9,0.6,9.3,0.9l0,0c0.8,0.8,1.6,0.6,5.6-1c4.3-1.8,4.3-4.1,0-3.6   c-2.7,0.3-2.7,0.2,1-1.8c2.2-1.1,4.5-2.1,5.1-2.1c1.8,0,4.7-3.7,3.9-5c-0.4-0.7-1.8-0.9-3.3-0.5c-1.7,0.4-2.3,0.3-1.6-0.3   c0.6-0.5,2.1-1.1,3.5-1.3c1.5-0.2,2.4-0.9,2.2-1.7c-0.2-0.9,0.3-1.1,1.5-0.6c4.1,1.7,5.6,1.8,6.7,0.3c0.6-0.8,4.6-3.1,8.9-5.2   c4.3-2,7.8-3.9,7.8-4.2c0-0.3-1-0.9-2.3-1.4c-1.8-0.7-1.9-0.9-0.5-1c2.4-0.1,9.7-3.9,9.7-5c0-0.5-1.4-1.8-3.1-2.9   c-2.5-1.6-3.8-1.8-6.2-1.1c-4,1.1-4.9,1.1-4.1-0.1c1.1-1.7-4.6-3.1-10.7-2.6c-3.2,0.3-7.9,0.1-10.4-0.3c-2.5-0.5-4.8-0.5-5-0.1   s-1.4,0.5-2.5,0.3c-1.1-0.3-2.8-0.2-3.7,0.3s-2.3,0.7-3,0.6c-1.2-0.2-3.9,3.7-3.5,5.1c0.1,0.4-1.7,0.6-4,0.5   c-3.1-0.1-4.2,0.2-4,1.1c0.2,0.9-0.6,1.3-2.5,1.1c-1.5-0.1-3.5,0-4.3,0.4c-0.8,0.3-2.8,0.7-4.5,0.9c-1.7,0.2-2.6,0.6-2.9,1.1   l-0.1,0l0.1,0c-0.2,0.6,0.8,1.3,3.1,1.5c1.8,0.2,3,0.7,2.8,1.1c-0.3,0.5,0.6,1.6,2,2.5c1.9,1.3,2.9,1.4,3.9,0.5   c0.9-0.8,2-0.8,3.2-0.2c1,0.5,3.8,1.3,6.3,1.7c3.4,0.6,4,0.9,2.5,1.5c-1.1,0.4-3.2,0.2-4.7-0.3c-2.7-1-5.9,0.3-5.9,2.5   c0,1.8,8.1,6,10.3,5.3c1.6-0.5,1.9-0.4,1.1,0.5c-1.6,1.7-11.7,0.3-11-1.6c0.3-0.7-0.3-1.8-1.2-2.3c-0.9-0.5-1.7-1.8-1.7-2.8   c0-1-0.5-1.9-1-1.9c-1.4-0.1-4.7-1.4-6.5-2.5c-3.2-2-4.3-2.2-5.9-1.2c-0.9,0.6-1.5,1.6-1.3,2.3c0.2,0.7-0.3,1-1.2,0.7   c-0.9-0.3-2.1,0.4-3,1.8C182.7,23.2,182.7,23.5,185,24.9z"
   id="path4134"
   style="fill:#f5f3c5;fill-opacity:1" />
	<path
   d="M445.4,31c1.3,1.2,2.1,1.4,2.6,0.6c0.5-0.8,1.1-0.8,2.1,0.1c1.1,0.9,1.8,0.9,3.2-0.3c2.1-1.8,5.2-3,5.2-2   c0,0.4-1,1.2-2.3,1.7c-2.4,1.1-2.6,3.1-0.2,2.8c0.8-0.1,1.4,0.3,1.4,0.8s-0.9,0.9-1.9,0.9c-3,0-3.5,1.9-0.7,2.9   c1.4,0.5,2.8,1.4,3.1,2l0,0c1.2,2,2.5,1,5-3.9c1.4-2.7,2.8-5.1,3.3-5.4c1.2-0.8,4.4,2,4,3.5c-0.4,1.8,5.8,2,7.2,0.3   c0.8-0.9,0.1-1.8-2.6-3.3c-2-1.2-4.3-2.1-5.1-2.1c-0.8,0-1.2-0.5-0.9-1c0.3-0.6-0.4-1.4-1.7-1.9c-3.4-1.4,0.2-1.3,5.7,0.1   c3.9,1,4.7,0.9,7.5-1.1c1.7-1.2,3.6-2.3,4.3-2.4c1-0.2,2.2-1.5,1.5-1.7c-0.1,0-2-0.5-4.3-1.1c-7.5-1.9-8.7-1.9-9.2,0.2   c-0.4,1.5-0.8,1.7-1.9,0.8c-1.5-1.3-6.3-2-7.6-1.2c-0.5,0.3-0.3,1.2,0.4,2c0.9,1.1,0.9,1.7,0.1,2.6c-0.9,0.9-1.5,0.8-2.4-0.4   c-2.1-2.6-4.6-3-5.8-0.8c-0.6,1.1-1.8,2-2.7,2c-1.4,0-1.4-0.2,0.3-1.4c1.7-1.3,1.8-1.5,0.3-2.1c-2.4-0.9-8.4,0.9-8.4,2.6   c0,0.9,0.8,1.3,1.9,1.1c1.7-0.3,1.8-0.1,0.6,1.2c-0.7,0.9-1.7,1.4-2.1,1.1C443.7,26.9,443.7,29.4,445.4,31z"
   id="path4136"
   style="fill:#f5f3c5;fill-opacity:1" />
	<path
   d="M138.1,35.2c0.7-0.3,1.9,0.1,2.5,0.9l0,0c0.7,0.8,1.5,1.4,1.8,1.4c1.2,0,8.1-5.1,8.1-6c0-1.5-2.4-2.5-5.5-2.1   c-4,0.4-4.8,1-3.5,2.6c0.8,0.9,0.7,1.4-0.4,1.9c-0.8,0.3-2-0.1-2.7-0.9c-0.8-0.9-1.6-1.1-2.2-0.5C135,33.7,136.4,35.8,138.1,35.2z"
   id="path4138"
   style="fill:#f5f3c5;fill-opacity:1" />
	<path
   d="M160.2,27.3c1,0.7,1.8,1.7,1.6,2.1c-0.1,0.4,0.6,0.6,1.5,0.5c3.2-0.4,4.6,0.6,3.2,2.2c-1.2,1.4-0.9,1.8,0.8,1.2   c0.4-0.1,0.6-0.6,0.5-1c-0.5-1.5,1.5-0.7,3.2,1.2h0c1.4,1.5,2.1,1.7,3.2,0.9c1.1-0.9,1-1.7-1-4.2c-3-3.9-11.2-7.3-13.4-5.4   C158.5,25.8,158.6,26.1,160.2,27.3z"
   id="path4140"
   style="fill:#f5f3c5;fill-opacity:1" />
	<path
   d="M183.5,33.1c1-1.2,0.8-1.7-1.5-2.5c-3.6-1.4-5.1-0.3-2.9,2.1C181.2,34.9,181.9,35,183.5,33.1z"
   id="path4142"
   style="fill:#f5f3c5;fill-opacity:1" />
	<path
   d="M661.9,33.3L661.9,33.3c0.4,0.6,2,0.5,4.4-0.4c2.1-0.7,4.7-1.4,5.9-1.4s2.6-0.7,3.3-1.4c0.9-1.1,0.6-1.8-1.6-3.1   c-1.5-1-3.6-1.8-4.6-1.9C667,25,661,31.8,661.9,33.3z"
   id="path4144"
   style="fill:#f5f3c5;fill-opacity:1" />
	<path
   d="M641.6,22.9c0.9,0.6,1.8,1.6,2,2.2c0.2,0.5,3.1,1.7,6.4,2.6s6.9,2.1,8,2.7v0c2.6,1.5,4,0.1,4.3-4.1c0.3-4.5-2-6.6-4.1-3.7   c-1.4,2-1.5,2-2,0.2c-0.3-1-0.1-2.6,0.4-3.4c0.6-1.2,0.1-2.1-2.3-3.6l-3.2-2l-3.4,2.2c-1.9,1.2-3.4,2.6-3.4,3.2   c0,0.5-1,1.4-2.2,1.8C640.3,21.6,640.2,21.8,641.6,22.9z"
   id="path4146"
   style="fill:#f5f3c5;fill-opacity:1" />
	<path
   d="M488.5,29.5c1.4,0,2.1-1.8,1-2.5c-1.3-0.8-3.2,0.4-2.5,1.6C487.4,29.1,488,29.5,488.5,29.5z"
   id="path4148"
   style="fill:#f5f3c5;fill-opacity:1" />
	<path
   d="M175.7,24.9c0.6-0.3,0.5-1.2-0.2-2c-0.6-0.8-1.6-1.1-2.1-0.8c-0.6,0.3-0.5,1.2,0.2,2C174.2,24.9,175.2,25.3,175.7,24.9z"
   id="path4150"
   style="fill:#f5f3c5;fill-opacity:1" />
	<path
   d="M540.8,22.4c-0.1,0.3,0.2,0.6,0.7,0.6s1.2,0.3,1.6,0.7l0,0c1,1,2.6-0.1,1.9-1.3c-0.3-0.5-1-0.7-1.4-0.4   c-0.5,0.3-1.1,0.1-1.4-0.4c-0.3-0.5,0.4-1.2,1.7-1.5c3-0.8,3.2-0.8,3.2,0.3c0,1.8,1.5,2.4,2.9,1.2c1-0.8,1.6-0.9,2.1-0.1   c0.5,0.7,1.3,0.7,2.7,0c1.4-0.8,1.7-1.4,1-2.2s-1.5-0.7-2.5,0.1c-1.1,0.9-1.6,0.8-2.1-0.5c-0.4-0.9-0.9-1.4-1.3-1s-1.2,0.2-1.9-0.4   c-0.9-0.7-1.5-0.7-1.9,0.1c-0.5,0.8-1.2,0.6-2.4-0.4c-1.5-1.3-2-1.4-3.6-0.2c-1.7,1.2-1.7,1.6-0.4,3.1   C540.4,21,540.9,22.1,540.8,22.4z"
   id="path4152"
   style="fill:#f5f3c5;fill-opacity:1" />
	<path
   d="M496.1,22.6c0.8,1.2,3.2,1.2,4-0.1c0.8-1.2-2-2.4-3.5-1.5C496,21.4,495.7,22.1,496.1,22.6L496.1,22.6z"
   id="path4154"
   style="fill:#f5f3c5;fill-opacity:1" />
	<path
   d="M534.7,22c0.4,0,1,0.4,1.4,0.8v0c1,1,2.6-0.1,1.9-1.3c-0.3-0.5-1-0.7-1.4-0.4c-0.5,0.3-1.1-0.1-1.4-0.9   c-0.3-0.8,0.2-1.7,1.1-2c1.1-0.4,1.3-0.9,0.6-1.6c-1.1-1.1-5.7,0.2-6.8,2C529.5,19.3,532.9,21.9,534.7,22z"
   id="path4156"
   style="fill:#f5f3c5;fill-opacity:1" />
	<path
   d="M557.2,18.9c0.4,0.6,0.8,1.5,0.9,1.9c0.1,0.4,0.2,1,0.3,1.4v0c0.1,0.4,1-0.1,2.1-1.1c1.9-1.7,1.9-4.2,0-3   c-0.5,0.3-1.1,0.1-1.5-0.5c-0.4-0.6-1.1-0.8-1.6-0.4C556.9,17.4,556.8,18.2,557.2,18.9z"
   id="path4158"
   style="fill:#f5f3c5;fill-opacity:1" />
	<path
   d="M565.1,19.6c0.3,0.5,0.9,0.9,1.3,0.9c1.2,0,4.2-3.6,3.5-4.3C569,15.4,564.4,18.6,565.1,19.6L565.1,19.6z"
   id="path4160"
   style="fill:#f5f3c5;fill-opacity:1" />
	<path
   d="M572.5,17.8v1.5l0,0c0,0.4,0.5,0.2,1.1-0.4c0.6-0.6,1.7-0.9,2.4-0.6c1.6,0.6,2.9-1.3,1.5-2.1c-0.6-0.3-1.6-0.3-2.3,0.2   c-0.7,0.4-1.6,0.8-2,0.8C572.9,17,572.5,17.4,572.5,17.8z"
   id="path4162"
   style="fill:#f5f3c5;fill-opacity:1" />
	<path
   d="M550.5,16c0.5-0.3,1.1-0.1,1.4,0.4h0c0.3,0.5,1.1,0.8,1.8,0.7c2.1-0.3,3.8-1.7,3.3-2.6c-0.6-0.9-2.4-0.8-4.2,0.3   c-0.6,0.4-1.5,0.3-1.8-0.3c-0.4-0.6-1.1-0.8-1.6-0.4c-0.5,0.3-0.7,1-0.4,1.5S550,16.3,550.5,16z"
   id="path4164"
   style="fill:#f5f3c5;fill-opacity:1" />
	<path
   d="M562.3,15.5c0.1-0.1,0.2-0.2,0.2-0.3c0-0.1-0.1-0.2-0.2-0.3c0.2-0.4,0.5-1.1,1-1.6c0.9-1.1,1-1.8,0.3-2.2   c-1-0.6-1.4,0.1-1.1,1.8c0.1,0.5-0.5,0.6-1.3,0.3c-2-0.8-2.8,0.4-1.5,2C560.7,16.5,562.7,16.7,562.3,15.5z"
   id="path4166"
   style="fill:#f5f3c5;fill-opacity:1" />
	<polygon
   points="562.5,15.1 562.5,15.1 562.5,15.1  "
   id="polygon4168"
   style="fill:#f5f3c5;fill-opacity:1" />
	<path
   d="M640.5,16.5c1.4,0,2.1-1.8,1-2.5c-1.3-0.8-3.2,0.4-2.5,1.6C639.4,16.1,640,16.5,640.5,16.5z"
   id="path4170"
   style="fill:#f5f3c5;fill-opacity:1" />
	<path
   d="M572.5,14.5c1.4,0,2.1-1.8,1-2.5c-1.3-0.8-3.2,0.4-2.5,1.6C571.4,14.1,572,14.5,572.5,14.5z"
   id="path4172"
   style="fill:#f5f3c5;fill-opacity:1" />
	<path
   d="M375.5,12.5c1.4,0,2.1-1.8,1-2.5c-1.3-0.8-3.2,0.4-2.5,1.6C374.4,12.1,375,12.5,375.5,12.5z"
   id="path4174"
   style="fill:#f5f3c5;fill-opacity:1" />
</g>
</svg>