<?xml version="1.0" encoding="UTF-8" standalone="no"?>
<svg
   xmlns:dc="http://purl.org/dc/elements/1.1/"
   xmlns:cc="http://creativecommons.org/ns#"
   xmlns:rdf="http://www.w3.org/1999/02/22-rdf-syntax-ns#"
   xmlns:svg="http://www.w3.org/2000/svg"
   xmlns="http://www.w3.org/2000/svg"
   xmlns:sodipodi="http://sodipodi.sourceforge.net/DTD/sodipodi-0.dtd"
   xmlns:inkscape="http://www.inkscape.org/namespaces/inkscape"
   id="Warstwa_1"
   data-name="Warstwa 1"
   viewBox="0 0 800 800"
   version="1.1"
   sodipodi:docname="logo-black.svg"
   inkscape:version="0.92.3 (2405546, 2018-03-11)">
  <metadata
     id="metadata8003">
    <rdf:RDF>
      <cc:Work
         rdf:about="">
        <dc:format>image/svg+xml</dc:format>
        <dc:type
           rdf:resource="http://purl.org/dc/dcmitype/StillImage" />
        <dc:title>Obszar roboczy 2</dc:title>
      </cc:Work>
    </rdf:RDF>
  </metadata>
  <sodipodi:namedview
     pagecolor="#ffffff"
     bordercolor="#666666"
     borderopacity="1"
     objecttolerance="10"
     gridtolerance="10"
     guidetolerance="10"
     inkscape:pageopacity="0"
     inkscape:pageshadow="2"
     inkscape:window-width="1920"
     inkscape:window-height="974"
     id="namedview8001"
     showgrid="false"
     inkscape:zoom="0.295"
     inkscape:cx="400"
     inkscape:cy="1068.5212"
     inkscape:window-x="0"
     inkscape:window-y="27"
     inkscape:window-maximized="1"
     inkscape:current-layer="Warstwa_1" />
  <defs
     id="defs7966">
    <style
       id="style7964">.cls-1{fill:#f5f3c5;}</style>
  </defs>
  <title
     id="title7968">Obszar roboczy 2</title>
  <path
     class="cls-1"
     d="M337.08,165.26c-5.68-11.54-15.93-16.4-27.6-19.17-11.49-2.73-22.87-.91-34.18,1.29a47.1,47.1,0,0,0-8.17,2.7,2.42,2.42,0,0,0-1.29,1.92,2.39,2.39,0,0,0,1.66,1.57,13.29,13.29,0,0,0,4.26-.23,65.9,65.9,0,0,0,10-2.39c5.33-2,10.83-1.78,16.2-1.27A78,78,0,0,1,314,153c6.56,2.09,10.72,7.32,14.77,12.7,4.25,5.63,4.95,11.62,2.92,18-2.33,7.24-5.18,14.32-7.83,21.47a13.38,13.38,0,0,1-1.09,1.85,100.51,100.51,0,0,1-10.82,14.44c-8.3,9.75-18.53,17.13-28.94,24.3-5.67,3.91-11.71,7.25-17.39,11.12-6.87,4.69-13.53,9.68-20.3,14.51s-13.63,9.1-19,15.46a5.75,5.75,0,0,1-2.21,1.31,25.24,25.24,0,0,0-8.27,6.07,41.67,41.67,0,0,1-4.54,4c-4.69,3.53-9.43,7-14.18,10.43a16.85,16.85,0,0,1-3,1.66c-5,2.2-10,4.4-15,6.53-5.42,2.31-10.8,4.77-16.34,6.75-3.52,1.27-5.14-.07-4.36-3.75,1.41-6.72,3.2-13.37,5.14-20,1.55-5.21,4.44-10,4.58-15.65a17.53,17.53,0,0,1,1.49-5.37c1.06-2.83,2.42-5.55,3.39-8.4a39.44,39.44,0,0,0,1.65-7.11c.35-2.56-1.85-5.71-3.88-6-1.72-.25-4.15,1.67-5,4.15-.49,1.49-.66,3.09-1,4.63-.5,2.24-1,4.47-1.53,6.71-1.27,5.9-2.51,11.8-3.76,17.69-.5,2.4-.45,5.09-1.58,7.13-3.52,6.42-5,13.42-6.66,20.39a27.82,27.82,0,0,1-2.93,7.17,9.7,9.7,0,0,1-3.71,3.32,73,73,0,0,1-7.44,3.33,12.39,12.39,0,0,1-2.88.78c-3.83.55-7.67,1-11.5,1.56-2.68.41-4-.28-4-3-.12-6-.37-12.09,1.59-18,1.18-3.54,2.62-7,3.29-10.69a74.71,74.71,0,0,1,8.37-23.78c2.56-4.5,5-9.09,7.29-13.7,1-1.86,1.68-3.91-.29-6.26-2.55,2.7-4.7,5.19-5.75,8.64a18.11,18.11,0,0,1-3,6.1c-4.88,6-6.08,12.92-6.42,20.84-5.29,3.72-7,10.16-8.56,16.53-1.8,7.1-3.27,14.28-4.9,21.42-.78,3.41-2.58,5.62-6.38,5.95-4.58.38-9.13,1.16-13.71,1.53-3.29.26-6.14,1.11-8.53,3.55-1.57,1.61-2.25,3.35-1.61,5.46.69,2.27,2.28,3.83,4.7,3.78,3.13-.07,6.25-.59,9.38-.83,3.42-.25,6.84-.53,10.26-.56a2.83,2.83,0,0,1,3,3c.45,5.87,1.56,11.72.32,17.63a13.65,13.65,0,0,0,0,3.44c.2,3.45.57,6.89.63,10.34.1,5.74-.09,11.49.05,17.22s.52,11.2.86,16.79c.11,1.72.46,3.42.68,5.13.36,2.83.8,5.66,1,8.5.32,3.72.41,7.45.71,11.18.22,2.69,2,4.39,4.16,5.71s3.55,1.27,5.22-.83a15.94,15.94,0,0,0,2.86-4.76q4.55-14.32,8.74-28.75c1.19-4.12,1.81-8.41,2.92-12.56,2.21-8.32,4.62-16.58,6.85-24.89.59-2.21.22-4.9,1.36-6.69,3.07-4.8,3.38-10.3,4.83-15.51a21.31,21.31,0,0,1,.57-2.08,4.17,4.17,0,0,1,4.26-3,19.68,19.68,0,0,1,4.66.64c7.21,2.09,14.13,4.85,20.26,9.33,1.5,1.1,3.27,1.82,4.85,2.81,3,1.92,6.42,3.5,8.95,6,6.19,6,12.05,12.29,17.89,18.62,3.2,3.48,6.08,7.27,9.11,10.93,2.11,2.54,4.32,5,6.29,7.66a2,2,0,0,1,.57.29,60.05,60.05,0,0,1,7.69,7.44,14.64,14.64,0,0,1,2.95,1.54c1.51,1,5.81,4.35,7.67,2.43.88-.89.62-3.49.61-4.77-1.09-3.62-2.36-7.08-5.42-9.36a10.69,10.69,0,0,1-6.52-3.72c-2.76-3.1-5.68-6.07-8.43-9.17-2.29-2.57-4.34-5.36-6.68-7.88-3.8-4.11-7.74-8.09-11.65-12.1-6.05-6.2-12.34-12.25-19.88-16.48-9-5.06-18.26-9.75-28.77-11.24-5-.71-6.73-5-2.87-9.69a8,8,0,0,1,3.19-2.11q9.84-3.84,19.76-7.48a58.82,58.82,0,0,0,18.31-10.17,23,23,0,0,1,5.58-3.21c5.79-2.6,11.24-5.62,15.74-10.21a79.25,79.25,0,0,1,7.88-7.24c4.54-3.5,9.32-6.69,14-10,1.87-1.33,3.66-2.79,5.6-4,2.17-1.38,4.43-2.61,6.69-3.84,2.64-1.43,5.43-2.6,7.94-4.23,3.36-2.18,6.46-4.76,9.77-7s7-4.45,10.44-6.82c4.49-3.1,8.71-6.62,13.36-9.46a41.13,41.13,0,0,0,9.92-8.16c2.07-2.39,4.34-4.6,6.5-6.9,3.45-3.66,7-7.26,10.3-11a55.06,55.06,0,0,0,6.63-8.42c5.56-9.61,10.34-19.52,12.56-30.6C340.38,176.82,339.93,171.08,337.08,165.26ZM141.69,354.73c-.46,6.24-2.4,12.09-4.24,18q-4.63,14.81-9,29.69c-.52,1.78-.54,3.7-1,5.52-.58,2.5-1.24,5-2,7.45s-1.64,4.9-2.59,7.3a23.06,23.06,0,0,1-1.75,3l-1.5-.16c-.82-2.24-2.14-4.43-2.34-6.73-.42-4.56-.22-9.18-.29-13.77a57.93,57.93,0,0,0-.27-8.14,90.22,90.22,0,0,1-1.52-18.87c.33-6.74-.19-13.51-.36-20.27-.16-6.5,2.64-11.83,10.74-11.31,3.58.22,7.17.55,10.71,1.09C140.63,348.23,142,350.37,141.69,354.73Z"
     id="path7970"
     style="fill:#f3eff5;fill-opacity:1" />
  <path
     class="cls-1"
     d="M525.84,304.54c-.77-2.32.09-4.44.82-6.6a23.87,23.87,0,0,0,1.38-5c.35-3.09-1.41-4.91-4.52-5a6.32,6.32,0,0,0-2.13.24C510,292.3,499.67,298,492,307.81c-3.73,4.81-3.24,9.87-.75,14.55,2.87,5.39,7.35,9.08,13.46,11.37,9.88,3.7,19.24,1.64,28.75-.77,7.51-1.91,15-4,22.53-5.75a11.91,11.91,0,0,1,5.13.25,3.76,3.76,0,0,1,2.4,2,2.75,2.75,0,0,1-1.67,3.55,13.52,13.52,0,0,1-3.77.69,37.53,37.53,0,0,0-10.33,2.66c-7.74,3-15.54,5.66-24.06,6.29-6.86.51-13.67,1.66-20.59,1.49-2.35-.06-3.45,1.67-4.73,3.28q-4.68,5.91-9.61,11.6c-2.84,3.29-6.77,4.26-10.87,4.51-2.83.17-6.47-3.43-7-7.22a32.81,32.81,0,0,1,0-9.44c1.16-7.08,3.25-14,4-21.16.61-5.61,2.12-11.26,1.3-17.12-2.42-.29-2.94,1.38-3.63,2.69-2.34,4.45-4.43,9-6.95,13.39s-5,9.09-8.45,12.84c-6.38,7-13.36,13.54-21.83,18.08-6.71,3.6-13.49,7.32-21.09,8.52-6.93,1.09-14,1.8-20.84-1a15.65,15.65,0,0,0-5-.89c-8.52-.54-14.06-6.44-13.87-14.91,0-1.87-.06-3.75.13-5.61s1.06-3.63,3.18-4.16c1.93-.48,3.45.54,4.63,3,.3.64.3,1.46.71,2a7.19,7.19,0,0,0,2.47,2.57c1.46.62,2.38-.63,2.94-1.87.83-1.82,1.63-3.67,2.33-5.55.81-2.15,1.37-4.4,2.25-6.52a17.38,17.38,0,0,1,6.78-8.15c4.34-2.79,8.44-5.93,12.76-8.76,2.81-1.84,6.05-1.74,9.21-1.11s4.51,2.42,4.53,5.84a7,7,0,0,1-.1,1.72c-2.22,9.26-4.45,18.45-11.71,25.47-2.19,2.12-3.63,5-6.07,8.51,2.56.08,4.06.38,5.46.14a73.1,73.1,0,0,0,21.53-7.46,34.61,34.61,0,0,0,11.49-9.59c7.46-9.71,13.66-20.19,20-30.64.59-1,1.47-1.8,2-2.82.91-1.89,2.06-3.82,2.32-5.83a14,14,0,0,1,2.34-6.35,50.27,50.27,0,0,0,7.51-16.37c.61-2.46,2.33-4.62,3.17-7a139.22,139.22,0,0,1,9.43-20.73,13.72,13.72,0,0,0,1.56-5.35c.57-6.88,3.79-12.87,6.11-19.17.89-2.41,1.62-4.89,2.45-7.33q3.09-9.15,6.22-18.29a6.76,6.76,0,0,1,.78-1.54c1.89-2.68,5-2.56,6.65.3a8.26,8.26,0,0,1,.67,7.09c-1.5,4.48-3.12,8.93-4.58,13.43-1.87,5.73-3.59,11.51-5.44,17.25-.79,2.46-1.87,4.84-2.59,7.32-1.56,5.37-2.85,10.81-4.48,16.15-2.61,8.51-5.44,17-8.1,25.45a18.18,18.18,0,0,0-.95,5c-.05,2.63,1.66,3.57,4,2.37a13.24,13.24,0,0,0,2.08-1.53,70.51,70.51,0,0,1,20.51-10.76,32.35,32.35,0,0,1,9.29-1.55c4.24-.18,7,2.27,7.78,6.49a10.37,10.37,0,0,1-.1,5.11c-1.7,4.71-3.7,9.32-5.76,13.88C529,304.43,528.78,304.34,525.84,304.54ZM477.77,348c.19,1.57.29,3.16.59,4.71.56,2.92,2.87,4.08,5.45,2.48a28.51,28.51,0,0,0,9.92-10.59,3,3,0,0,0-.75-4.22c-2.47-2-4.89-4-7.5-5.75s-4.76-1.19-5.6,2C478.89,340.35,478.45,344.22,477.77,348Zm-80.2-1.42c3.34.49,3.51.59,5.61-1.44,3.39-3.27,6.73-6.61,9.86-10.14a10.2,10.2,0,0,0,1.94-4.6,3.4,3.4,0,0,0-.92-2.95,3.75,3.75,0,0,0-3.15.2c-2.65,1.41-5,3.16-6.4,6.08-1.1,2.29-2.73,4.32-4,6.53C399.36,342.2,397.45,343.77,397.57,346.61Z"
     id="path7972"
     style="fill:#f3eff5;fill-opacity:1" />
  <path
     class="cls-1"
     d="M369.4,320.53A16.48,16.48,0,0,0,372,317.6c2.33-4.44,4.44-9,6.75-13.46s4.84-9.12,7.34-13.63a33.37,33.37,0,0,1,2.65-3.46c1.4,3.58,1.67,6.51.24,9.52-2.84,6-6,11.79-8.36,17.95-2,5.19-5.09,9.62-7.76,14.36a40.88,40.88,0,0,0-4.06,8.95c-1,3.69-3.28,7-4.32,10.74-1.62,5.76-3.13,11.65-.62,17.65.91,2.17,2.32,3.18,4.67,2.9a7.08,7.08,0,0,1,1.72-.05c2.17.24,2.92,1.48,2.26,3.62a7.78,7.78,0,0,1-13.21,2.74c-1.8-2.12-2.79-4.95-4-7.51-.43-.88-.4-2-.83-2.88a3.19,3.19,0,0,0-4.71-1.47,18.27,18.27,0,0,0-2.3,1.95c-5.48,4.64-10.89,9.36-16.47,13.87-5.33,4.3-13.2,3.45-16.95-1.62a8.77,8.77,0,0,1-.76-1c-2.5-4.57.54-16.66,4.83-19.66a20.64,20.64,0,0,0,4.46-3.91c5.4-6.94,13-8.77,21-4.87,5.15,2.52,9.36.79,11.13-4.63.62-1.91,1.14-3.86,1.62-5.81,1.53-6.26,1.93-12.79,4.47-18.83.71-1.69.75-3.65,1.14-5.47q3.33-16,6.69-32c2-9.75,6.77-18.28,12-26.58,4.15-6.55,8.28-13.12,12.28-19.76a23.36,23.36,0,0,1,8.44-7.83c2.59-1.56,6-1,8.48,1a7.17,7.17,0,0,1,2.37,8.57c-2.77,7.21-4.88,14.74-9.25,21.28a20.85,20.85,0,0,0-2.27,5c-1.16,3.49-2.14,7-3.19,10.58-.53,1.8-1.55,3-3.49,3.08-1.57-1.31-.95-2.7-.46-4,2-5.52,4.14-11,6.06-16.56,1.26-3.65,2.28-7.39,3.26-11.14.17-.67-.23-2.06-.69-2.23a4.25,4.25,0,0,0-3.12,0,27.65,27.65,0,0,0-9.92,10c-1.54,2.58-3.36,5-4.63,7.73-2.25,4.82-4.64,9.64-6.14,14.71-2.16,7.29-3.9,14.68-6.34,21.93-2.14,6.35-2.83,13.19-4.06,19.83a9.4,9.4,0,0,0,.38,2.83Zm-30.46,34.75c-5.32.8-8.74,3.68-11.51,7.46-.82,1.13-1.68,2.8-.28,3.84a4.53,4.53,0,0,0,3.9.57,87.11,87.11,0,0,0,9.85-5.92c1.29-.88,2.3-2.61,1.27-4.1C341.48,356.13,339.86,355.77,338.94,355.28Z"
     id="path7974"
     style="fill:#f3eff5;fill-opacity:1" />
  <path
     class="cls-1"
     d="M297.8,356.63c-.11,1.29.1,2.72-.39,3.84-2.57,5.8.67,11,1.64,16.35.31,1.72,1.84,2.3,3.56,2.62,4.93.93,6.2,3.65,3.88,8a10.73,10.73,0,0,0-1.25,2.26c-1,4.16-4.66,4.59-7.75,4.83-3.43.27-5.9-2.07-7.08-5.33a52.7,52.7,0,0,1-1.35-5.44c-.71-2.82-1.32-3.4-4.07-3.37a15.85,15.85,0,0,0-3.77.7c-11.24,3-22.56-2.27-24.91-14.62a28.9,28.9,0,0,1-.82-6.82c.21-3.88,1.09-7.55,3.84-10.72a51.22,51.22,0,0,1,21.16-14.37c4.14-1.54,8.28-.66,11.95,1.76a5.53,5.53,0,0,1,2.33,2.95c1.24,5.74,2.22,11.54,3.29,17.32Zm-31.31,7.47a32.57,32.57,0,0,0,.54,4.15,6.94,6.94,0,0,0,7.18,5c4.78-.43,9.87-4.83,10.39-9.58.54-5,.68-10,.72-15,0-2.83-1.82-4.13-4.65-3.52a9.56,9.56,0,0,0-3.44,1.63,26.46,26.46,0,0,0-4.56,3.94C269.38,354.49,266.24,358.47,266.49,364.1Z"
     id="path7976"
     style="fill:#f3eff5;fill-opacity:1" />
  <path
     class="cls-1"
     d="M185.82,203.89c-.57-.46-1.32-.79-1.34-1.15a3.22,3.22,0,0,1,.54-2.28c1.33-1.28,2.93-2.26,4.36-3.44,2.19-1.82,4.31-3.73,6.49-5.57,1-.83,2.1-1.1,2.95.14a1.75,1.75,0,0,1-.83,2.82c-3.93,1.76-7.93,3.34-9.7,7.85C188,203,186.74,203.31,185.82,203.89Z"
     id="path7978"
     style="fill:#f3eff5;fill-opacity:1" />
  <path
     class="cls-1"
     d="M171.47,217.35a62.17,62.17,0,0,1-3.73,5.12,2.32,2.32,0,0,1-2.19.45,2.67,2.67,0,0,1-1-2.1C164.73,217.93,167.41,216.37,171.47,217.35Z"
     id="path7980"
     style="fill:#f3eff5;fill-opacity:1" />
  <path
     class="cls-1"
     d="M151.76,237.25c.77,1.06,1.51,1.64,1.64,2.33.27,1.52-2.06,4.68-3.61,4.93-.57.1-1.77-.41-1.78-.67a7.23,7.23,0,0,1,.52-3.62C149.18,239.11,150.48,238.38,151.76,237.25Z"
     id="path7982"
     style="fill:#f3eff5;fill-opacity:1" />
  <path
     class="cls-1"
     d="M160,231.18c-.9-1.22-1.62-1.79-1.76-2.48-.23-1.24,1.84-3.28,3-2.93.56.16,1.34,1.38,1.18,1.78A23.08,23.08,0,0,1,160,231.18Z"
     id="path7984"
     style="fill:#f3eff5;fill-opacity:1" />
  <path
     class="cls-1"
     d="M244,162c-.07-1.86.28-3.07,2.16-3a1.16,1.16,0,0,1,.75.84C247,161.54,246.17,162.34,244,162Z"
     id="path7986"
     style="fill:#f3eff5;fill-opacity:1" />
  <path
     class="cls-1"
     d="M599,405c-1-3.73-5.14-4.78-7.95-2.09a28.49,28.49,0,0,0-3.56,4.58c-1.69,2.44-3.07,5.13-4.95,7.41-5,6.11-10.2,12.06-15.34,18.06a6.08,6.08,0,0,1-1.49,1.22c-2.75,1.66-4.68.88-5.47-2.27a9.4,9.4,0,0,1-.28-3.08c1-11,1.88-21.93,3-32.87.58-5.65,1.45-11.28,2.42-16.88A53,53,0,0,1,568,368.64c1.73-4.36,2.48-8.62,1.36-13.2-.55-2.24-1.94-3.58-3.94-3.61-4.74-.08-7.6,2.66-7.44,7.44a18.72,18.72,0,0,1-1.43,7.94c-1.44,3.47-3.2,6.9-4,10.53-1.15,5.43-4.43,9.6-7.25,14s-6.29,8.25-9,12.63a65.73,65.73,0,0,1-10.56,12.83,9.05,9.05,0,0,1-5.71,2.75,13,13,0,0,0-8.95,4.14c-2.47,2.81-4.87,5.69-7.42,8.43-3.37,3.61-4.74,7.28-1.2,11.62a2.72,2.72,0,0,1-.25,3.9,117.47,117.47,0,0,1-9.67,8.34c-3.66,2.66-6.71,1-6.59-3.58a40.58,40.58,0,0,1,1.48-11.12c1.47-4.64,1.78-9.71,4.66-13.89a3.14,3.14,0,0,0,.35-1.11c1.95-9.43,7-17.51,11.43-25.83,3.16-5.95,4.75-12.26,6.1-18.72a6.67,6.67,0,0,0,.07-1.55c-.11-2.62-1.1-3.71-3.7-4.15-4.29-.71-7.92,1.92-8.26,6.62-.43,5.85-3.12,10.91-4.87,16.3a52.27,52.27,0,0,1-8.08,14.92c-1.45,2-3,3.86-4.58,5.75a16.16,16.16,0,0,0-2.07,2.26c-3.21,6.15-8.86,10.1-13.63,14.75S455,446.14,451,451.59a19,19,0,0,1-3,3c-3.34,2.88-6.86,5.55-10.07,8.57-5.65,5.31-12.35,9.43-17.29,15.58-1.24,1.53-3.28,2.51-5.11,3.45s-3,.21-3.48-1.7a7.35,7.35,0,0,1-.17-1.93c.13-3.5.3-7,.45-10.48.09-2.07-.45-4.43.37-6.15,2.19-4.62,2-9.59,2.91-14.39.74-3.94,1.3-7.9,2-11.85a47.26,47.26,0,0,1,1.29-6.39,15.27,15.27,0,0,0,.72-8,5,5,0,0,0-4.58-4.08c-1.9,0-3.69,1.5-4.39,3.78-.19.62-.17,1.3-.38,1.91-1.13,3.16-1.68,6.78-3.61,9.36a74.2,74.2,0,0,0-6.15,9.93c-2.16,4-5.46,7.51-8.4,11.11-.65.8-2,1.71-2.78,1.53s-1.58-1.52-2-2.52a13.78,13.78,0,0,1-.75-3.8A36.15,36.15,0,0,1,390,429c1.52-3.08.89-5.91,0-8.64a5.79,5.79,0,0,0-9.07-2.22c-1.19,1.12-1.63,3.11-2.24,4.77s-.46,4.13-1.6,5c-2.57,2-3.79,4.86-5.74,7.21a94.59,94.59,0,0,0-10.48,16.32,24.51,24.51,0,0,1-8.5,9.41,15.85,15.85,0,0,1-7.22,2.44c-5.76.31-10.86-2.13-15.64-5.09a3.65,3.65,0,0,1-1.39-2.82c.08-1.43,1.55-1.44,2.74-1.5,2.19-.11,4.47.08,6.55-.45,4.74-1.21,9.33-3,14.08-4.12a11.94,11.94,0,0,0,6.45-4c3.83-4.34,3.78-7.65-.77-11.23q-11.89-9.35-24.23-18.11c-3.85-2.76-8.32-4.5-12.6-6.56a50,50,0,0,0-15.52-4.62c-4.07-.51-8.25-.17-12.37-.21-1.38,0-2.86.28-4-.42-1.91-.3-3.82-.51-5.73-.66-.5,1.36-.83,1.44-2.9,1.4-.1-.26-.21-.52-.31-.79l1.8-.72a85.43,85.43,0,0,0-30.39,3.91c-11.85,3.67-20.45,10-30.16,17.27-6.44,4.83-14.15,7-21.57,9.92-6.9,2.72-13.7,5.63-20.55,8.45.05,1,.08,2.29-.46,2.94-1.23,1.45-2.73,3.09-4.44,3.64-3.17,1-5.69,3-8.5,4.55a112.11,112.11,0,0,0-19.35,14.18,39,39,0,0,1-3.53,3,46.88,46.88,0,0,0-11.19,11.25,114.3,114.3,0,0,0-6.57,10.91,4,4,0,0,0,.3,4.73c.72.91,1.38,1.88,2.09,2.8,2.94,3.8,7.2,5.85,11.1,8.39a35,35,0,0,0,14,5.36c2.43.37,4.81,1,7.22,1.51,7,1.43,13.88,3.19,20.9,4.16,6.39.89,12.9,1,19.36,1.31,10.33.5,20.66.91,31,1.32,3,.11,5.95.09,8.92.17,7.07.2,13.78-1.84,20.62-3.16,5.17-1,10.12-2.25,14.13-5.91a8.39,8.39,0,0,1,2-1.1c8.65-4.13,16.58-9.06,20.89-18.18a11.26,11.26,0,0,1,1.79-3,7.88,7.88,0,0,0,1.87-7.24,17.6,17.6,0,0,0-2-5.73c-2.3-3.89-4.37-8.13-7.51-11.25-3.9-3.88-8.72-6.86-13.26-10.06-2.94-2.07-6-3.94-9.17-5.72s-6.54-3.65-9.94-5.18c-4-1.8-8.13-3.38-12.25-4.9-5.2-1.91-10.27-4.26-16-4.12a10.63,10.63,0,0,1-4.72-1.53c-.71-.37-1-1.49-1.69-2.5,5.72-2.33,9.94-6.57,15.88-7.18a8.7,8.7,0,0,0,2.13-.91c3-1.24,6-2.43,8.93-3.72,4.39-1.9,8.71-4,13.61-4.26a3.82,3.82,0,0,0,1.08-.45c6-2.44,12.12-4.4,18.74-4.19a40.42,40.42,0,0,0,6.21-.42c6.08-.75,12.13-1.26,18,1.37.56.25,1.3.1,1.9.31,4.6,1.59,9.51,2.29,13.37,5.81a25.54,25.54,0,0,0,7.76,5c5.6,2.14,9.26,6.58,13.49,10.32,3,2.63,2.43,4.71-1.31,5.81s-7.6,1.6-11.35,2.58a59,59,0,0,1-25.8.68,42.64,42.64,0,0,0-5.39-.66c-3.64-.16-5,1.25-4.61,4.94a9.91,9.91,0,0,0,1.34,4,13,13,0,0,0,7.65,5.65,29.26,29.26,0,0,1,4,1.46c4.46,2.06,8.92,4.1,13.3,6.31,8.63,4.34,17.73,5.15,27.2,4.2,4.92-.49,8.4-2.88,11.28-6.67,5.63-7.42,9-16,12.4-24.49.46-1.14.35-2.93,2.23-2.47,1.73.43,1.78,2,1.54,3.5a14.15,14.15,0,0,0-.31,3.09c.32,4.64.55,9.29,1.19,13.88a9.51,9.51,0,0,0,2.39,4.8c4,4.25,8.76,5.49,14.14.09,2.28-2.28,4.18-4.94,6.3-7.39a9.05,9.05,0,0,1,2.25-2.08c1.73-1,3.09-.14,3.14,1.82a16.35,16.35,0,0,1-.29,3.49,121.64,121.64,0,0,0-1.76,22.79,29.54,29.54,0,0,1-.92,5.71c-.32,1.52-1,3-1.16,4.5a12.92,12.92,0,0,1-4.2,8.09q-8.26,8.19-16.41,16.52c-1.79,1.84-3.25,4-5,5.85-2.59,2.69-5.33,5.25-8,7.85-.92.9-2,1.65-2.83,2.63-2.55,3.09-5,6.25-7.51,9.41a67.38,67.38,0,0,0-5.36,7.07c-3.12,5.22-6,10.58-8.87,15.94a35.42,35.42,0,0,0-1.47,4c-.84,2.15-1.73,4.29-2.62,6.43a36.08,36.08,0,0,0-1.52,3.57c-1.53,5.2-3.08,10.4-4.45,15.65-2.26,8.71-2.46,17.34.93,25.9a121.61,121.61,0,0,0,8.37,17.5c3.64,6.13,8.28,11.26,14.58,14.69,4.26,2.32,9,4.09,13.75,3,7.72-1.74,14.16-5.53,16.88-13.74.6-1.81,1.82-3.41,2.55-5.19,1.12-2.72,2.19-5.48,3-8.29.78-2.56,1.2-5.23,1.85-7.83.81-3.24,1.86-6.42,2.5-9.69.67-3.42,1-6.91,1.43-10.38.63-5.12,1.27-10.24,1.79-15.37.31-3.09.35-6.21.57-9.31.67-9.3,1.39-18.59,2.05-27.88.11-1.54-.17-3.11,0-4.63,1.21-10.13,2.83-20.23,3.65-30.4a32.17,32.17,0,0,1,5.18-14.82c4.17-6.67,9.85-11.92,15.9-16.87,4.8-3.92,9.32-8.19,13.95-12.32,3.19-2.83,6.35-5.69,9.53-8.54,1.73-1.55,3.58-3,5.19-4.65,5.29-5.46,10.48-11,15.75-16.5,1-1.05,2.42-2.15,3.7-1.05.7.6.5,2.29.64,3.51a4.37,4.37,0,0,1-.21,1.14c-.65,4.48-1.45,9-1.89,13.47-.78,7.9,1.78,11.18,9.24,12.62,2.39.46,4.36-.45,6.25-1.55a60.09,60.09,0,0,0,7.48-4.89,90.76,90.76,0,0,0,9.49-8.56c3.67-4,6.93-8.31,10.36-12.5a12.24,12.24,0,0,0,1-1.23,134.42,134.42,0,0,1,12.35-16.9c2.75-3.2,6.26-5.91,7.28-10.36.1-.46.61-.82.92-1.23,3.3-4.32,6.56-8.66,9.89-13a25.16,25.16,0,0,1,2.38-2.35l.9.38a22.62,22.62,0,0,1,.16,3c-.31,4.52-.61,9-1,13.55-.53,5.39-1.47,10.76-1.72,16.16a46.49,46.49,0,0,0,.94,11.53c.77,3.63,3.72,5.62,7.35,6a14,14,0,0,0,11.87-4.73c4.67-5,9.09-10.24,13.57-15.42,1.52-1.76,2.84-3.71,4.41-5.43,2.29-2.48,3.16-2.44,5.7-.14,1.93,1.74,3.75,1.67,5.17-.53a6.47,6.47,0,0,0,1.12-3.94A80.59,80.59,0,0,0,599,405ZM230.8,444.82a100.35,100.35,0,0,1,10.08,2.81,218.94,218.94,0,0,1,25.65,11c8.56,4.28,14.65,11,20.5,18a22.37,22.37,0,0,1,3.78,8c.81,2.79-.69,5.24-2.61,7.33-1.48,1.61-2.88,3.3-4.36,4.91a15.24,15.24,0,0,1-2.51,2.38c-6.86,4.63-13.71,9.35-21.65,11.9-4.27,1.37-8.81,1.88-13.22,2.78l-.1-.33c-7.09.44-14.19,1.18-21.29,1.25-7.36.07-14.74-.5-22.11-.81-3.23-.14-6.46-.27-9.69-.51-2.45-.17-4.88-.48-7.32-.76-1.79-.22-3.58-.45-5.35-.75-4.59-.78-9.47-.84-13.67-2.56-6.65-2.73-13.85-3.15-20.45-5.82-.71-.28-1.5-.38-2.23-.64-6.83-2.36-9-7.11-6.28-13.74A25.62,25.62,0,0,1,145.44,479c3.67-3,7.1-6.41,10.82-9.4,3.11-2.5,6.5-4.66,9.78-7a16,16,0,0,1,2.94-1.87c6.44-2.58,11.77-7,17.62-10.52A51.81,51.81,0,0,1,216.27,443c1.94.08,3.9,0,5.82.22C225,443.62,227.93,444.14,230.8,444.82Zm169,71.58q-.22,5.82-.62,11.64a33.36,33.36,0,0,1-.66,3.81,69.19,69.19,0,0,0-1.41,7.61c-.44,5.66-.39,11.35-.92,17-.65,6.79-1.69,13.55-2.56,20.32-.09.64-.25,1.27-.32,1.91-.6,5.65-1,11.31-1.81,16.94-.43,3.19-1.44,6.3-2,9.48-.52,2.91-.77,5.86-1.18,8.78a13.2,13.2,0,0,1-.5,2.26c-1.2,3.82-2.41,7.64-3.67,11.43s-2.63,7.28-5.61,10.06a43.51,43.51,0,0,0-4.62,5.24c-1.87,2.41-4.18,2.78-6.93,2a17.46,17.46,0,0,1-10.81-7.68c-1.23-2-2.67-3.81-4-5.72a13.08,13.08,0,0,1-1.87-3c-3.55-10.62-8.24-21-6-32.75.66-3.43,1-6.83,2.54-10.11,1.66-3.62,2.38-7.65,3.95-11.31,2.34-5.44,4-11.19,7.31-16.2,2-3,4-6,6-9,1-1.51,1.79-3.12,2.75-4.63a29.34,29.34,0,0,1,2.89-4.13c4.85-5.35,9.7-10.71,14.75-15.87,3.79-3.88,7.86-7.47,11.85-11.14a27.89,27.89,0,0,1,3.16-2C399.68,513.69,399.88,515.05,399.83,516.4Z"
     id="path7988"
     style="fill:#f3eff5;fill-opacity:1" />
  <path
     class="cls-1"
     d="M574.65,309.78a12.08,12.08,0,0,1,.11-1.35c1-5.4,5.51-6.7,9.71-8.5,3.8-1.64,6.57.13,9.25,2.41,2.23,1.9,2.51,4.14,1.1,6.7-2.82,5.15-7.52,7.87-12.86,9.35C578,319.47,574.62,315.16,574.65,309.78Z"
     id="path7990"
     style="fill:#f3eff5;fill-opacity:1" />
  <path
     class="cls-1"
     d="M473.89,532.87v20.55h29.57v7.25H473.89v23.85h-8.43v-59h41.62v7.33Z"
     id="path7992"
     style="fill:#f3eff5;fill-opacity:1" />
  <path
     class="cls-1"
     d="M537.25,581.27A28.91,28.91,0,0,1,526,570.45a31.18,31.18,0,0,1,0-30.84,28.93,28.93,0,0,1,11.25-10.83,34.82,34.82,0,0,1,32.1,0,28.87,28.87,0,0,1,11.21,10.79,31.6,31.6,0,0,1,0,30.92,28.85,28.85,0,0,1-11.21,10.78,34.82,34.82,0,0,1-32.1,0ZM565,574.74a21.55,21.55,0,0,0,8.17-8.13,23.94,23.94,0,0,0,0-23.17,21.62,21.62,0,0,0-8.17-8.13,23.11,23.11,0,0,0-11.67-2.95,23.57,23.57,0,0,0-11.75,2.95,21.51,21.51,0,0,0-8.26,8.13,23.94,23.94,0,0,0,0,23.17,21.44,21.44,0,0,0,8.26,8.13,23.57,23.57,0,0,0,11.75,3A23.11,23.11,0,0,0,565,574.74Z"
     id="path7994"
     style="fill:#f3eff5;fill-opacity:1" />
  <path
     class="cls-1"
     d="M616.78,532.87H596.56v-7.33h48.79v7.33H625.13v51.65h-8.35Z"
     id="path7996"
     style="fill:#f3eff5;fill-opacity:1" />
  <path
     class="cls-1"
     d="M672.65,581.27a28.91,28.91,0,0,1-11.25-10.82,31.11,31.11,0,0,1,0-30.84,28.93,28.93,0,0,1,11.25-10.83,34.82,34.82,0,0,1,32.1,0A28.78,28.78,0,0,1,716,539.57a31.53,31.53,0,0,1,0,30.92,28.75,28.75,0,0,1-11.2,10.78,34.82,34.82,0,0,1-32.1,0Zm27.76-6.53a21.62,21.62,0,0,0,8.17-8.13,23.94,23.94,0,0,0,0-23.17,21.69,21.69,0,0,0-8.17-8.13,23.13,23.13,0,0,0-11.67-2.95A23.63,23.63,0,0,0,677,535.31a21.48,21.48,0,0,0-8.25,8.13,23.94,23.94,0,0,0,0,23.17,21.41,21.41,0,0,0,8.25,8.13,23.63,23.63,0,0,0,11.76,3A23.13,23.13,0,0,0,700.41,574.74Z"
     id="path7998"
     style="fill:#f3eff5;fill-opacity:1" />
</svg>
