<?xml version="1.0" encoding="UTF-8" standalone="no"?>
<!-- Created with Inkscape (http://www.inkscape.org/) -->

<svg
   xmlns:dc="http://purl.org/dc/elements/1.1/"
   xmlns:cc="http://creativecommons.org/ns#"
   xmlns:rdf="http://www.w3.org/1999/02/22-rdf-syntax-ns#"
   xmlns:svg="http://www.w3.org/2000/svg"
   xmlns="http://www.w3.org/2000/svg"
   xmlns:sodipodi="http://sodipodi.sourceforge.net/DTD/sodipodi-0.dtd"
   xmlns:inkscape="http://www.inkscape.org/namespaces/inkscape"
   width="645"
   height="515"
   viewBox="0 0 170.65625 136.26043"
   version="1.1"
   id="svg2324"
   inkscape:version="0.92.3 (2405546, 2018-03-11)"
   sodipodi:docname="logo-slim.svg">
  <defs
     id="defs2318">
    <clipPath
       clipPathUnits="userSpaceOnUse"
       id="clipPath1527">
      <rect
         style="opacity:1;fill:#fceff5;fill-opacity:1;stroke:#f4f4f9;stroke-opacity:1"
         id="rect1529"
         width="722.03387"
         height="616.94916"
         x="37.288136"
         y="101.69492" />
    </clipPath>
    <clipPath
       clipPathUnits="userSpaceOnUse"
       id="clipPath1523">
      <rect
         style="opacity:1;fill:#fceff5;fill-opacity:1;stroke:#f4f4f9;stroke-opacity:1"
         id="rect1525"
         width="722.03387"
         height="616.94916"
         x="37.288136"
         y="101.69492" />
    </clipPath>
    <clipPath
       clipPathUnits="userSpaceOnUse"
       id="clipPath1519">
      <rect
         style="opacity:1;fill:#fceff5;fill-opacity:1;stroke:#f4f4f9;stroke-opacity:1"
         id="rect1521"
         width="722.03387"
         height="616.94916"
         x="37.288136"
         y="101.69492" />
    </clipPath>
    <clipPath
       clipPathUnits="userSpaceOnUse"
       id="clipPath1515">
      <rect
         style="opacity:1;fill:#fceff5;fill-opacity:1;stroke:#f4f4f9;stroke-opacity:1"
         id="rect1517"
         width="722.03387"
         height="616.94916"
         x="37.288136"
         y="101.69492" />
    </clipPath>
    <clipPath
       clipPathUnits="userSpaceOnUse"
       id="clipPath1511">
      <rect
         style="opacity:1;fill:#fceff5;fill-opacity:1;stroke:#f4f4f9;stroke-opacity:1"
         id="rect1513"
         width="722.03387"
         height="616.94916"
         x="37.288136"
         y="101.69492" />
    </clipPath>
    <clipPath
       clipPathUnits="userSpaceOnUse"
       id="clipPath1507">
      <rect
         style="opacity:1;fill:#fceff5;fill-opacity:1;stroke:#f4f4f9;stroke-opacity:1"
         id="rect1509"
         width="722.03387"
         height="616.94916"
         x="37.288136"
         y="101.69492" />
    </clipPath>
    <clipPath
       clipPathUnits="userSpaceOnUse"
       id="clipPath1503">
      <rect
         style="opacity:1;fill:#fceff5;fill-opacity:1;stroke:#f4f4f9;stroke-opacity:1"
         id="rect1505"
         width="722.03387"
         height="616.94916"
         x="37.288136"
         y="101.69492" />
    </clipPath>
    <clipPath
       clipPathUnits="userSpaceOnUse"
       id="clipPath1499">
      <rect
         style="opacity:1;fill:#fceff5;fill-opacity:1;stroke:#f4f4f9;stroke-opacity:1"
         id="rect1501"
         width="722.03387"
         height="616.94916"
         x="37.288136"
         y="101.69492" />
    </clipPath>
    <clipPath
       clipPathUnits="userSpaceOnUse"
       id="clipPath1495">
      <rect
         style="opacity:1;fill:#fceff5;fill-opacity:1;stroke:#f4f4f9;stroke-opacity:1"
         id="rect1497"
         width="722.03387"
         height="616.94916"
         x="37.288136"
         y="101.69492" />
    </clipPath>
    <clipPath
       clipPathUnits="userSpaceOnUse"
       id="clipPath1491">
      <rect
         style="opacity:1;fill:#fceff5;fill-opacity:1;stroke:#f4f4f9;stroke-opacity:1"
         id="rect1493"
         width="722.03387"
         height="616.94916"
         x="37.288136"
         y="101.69492" />
    </clipPath>
    <clipPath
       clipPathUnits="userSpaceOnUse"
       id="clipPath1487">
      <rect
         style="opacity:1;fill:#fceff5;fill-opacity:1;stroke:#f4f4f9;stroke-opacity:1"
         id="rect1489"
         width="722.03387"
         height="616.94916"
         x="37.288136"
         y="101.69492" />
    </clipPath>
    <clipPath
       clipPathUnits="userSpaceOnUse"
       id="clipPath1483">
      <rect
         style="opacity:1;fill:#fceff5;fill-opacity:1;stroke:#f4f4f9;stroke-opacity:1"
         id="rect1485"
         width="722.03387"
         height="616.94916"
         x="37.288136"
         y="101.69492" />
    </clipPath>
    <clipPath
       clipPathUnits="userSpaceOnUse"
       id="clipPath1479">
      <rect
         style="opacity:1;fill:#fceff5;fill-opacity:1;stroke:#f4f4f9;stroke-opacity:1"
         id="rect1481"
         width="722.03387"
         height="616.94916"
         x="37.288136"
         y="101.69492" />
    </clipPath>
    <clipPath
       clipPathUnits="userSpaceOnUse"
       id="clipPath1475">
      <rect
         style="opacity:1;fill:#fceff5;fill-opacity:1;stroke:#f4f4f9;stroke-opacity:1"
         id="rect1477"
         width="722.03387"
         height="616.94916"
         x="37.288136"
         y="101.69492" />
    </clipPath>
    <clipPath
       clipPathUnits="userSpaceOnUse"
       id="clipPath1471">
      <rect
         style="opacity:1;fill:#fceff5;fill-opacity:1;stroke:#f4f4f9;stroke-opacity:1"
         id="rect1473"
         width="722.03387"
         height="616.94916"
         x="37.288136"
         y="101.69492" />
    </clipPath>
    <clipPath
       clipPathUnits="userSpaceOnUse"
       id="clipPath1527-3">
      <rect
         style="opacity:1;fill:#fceff5;fill-opacity:1;stroke:#f4f4f9;stroke-opacity:1"
         id="rect1529-6"
         width="722.03387"
         height="616.94916"
         x="37.288136"
         y="101.69492" />
    </clipPath>
    <clipPath
       clipPathUnits="userSpaceOnUse"
       id="clipPath1523-7">
      <rect
         style="opacity:1;fill:#fceff5;fill-opacity:1;stroke:#f4f4f9;stroke-opacity:1"
         id="rect1525-5"
         width="722.03387"
         height="616.94916"
         x="37.288136"
         y="101.69492" />
    </clipPath>
    <clipPath
       clipPathUnits="userSpaceOnUse"
       id="clipPath1519-3">
      <rect
         style="opacity:1;fill:#fceff5;fill-opacity:1;stroke:#f4f4f9;stroke-opacity:1"
         id="rect1521-5"
         width="722.03387"
         height="616.94916"
         x="37.288136"
         y="101.69492" />
    </clipPath>
    <clipPath
       clipPathUnits="userSpaceOnUse"
       id="clipPath1515-6">
      <rect
         style="opacity:1;fill:#fceff5;fill-opacity:1;stroke:#f4f4f9;stroke-opacity:1"
         id="rect1517-2"
         width="722.03387"
         height="616.94916"
         x="37.288136"
         y="101.69492" />
    </clipPath>
    <clipPath
       clipPathUnits="userSpaceOnUse"
       id="clipPath1511-9">
      <rect
         style="opacity:1;fill:#fceff5;fill-opacity:1;stroke:#f4f4f9;stroke-opacity:1"
         id="rect1513-1"
         width="722.03387"
         height="616.94916"
         x="37.288136"
         y="101.69492" />
    </clipPath>
    <clipPath
       clipPathUnits="userSpaceOnUse"
       id="clipPath1507-2">
      <rect
         style="opacity:1;fill:#fceff5;fill-opacity:1;stroke:#f4f4f9;stroke-opacity:1"
         id="rect1509-7"
         width="722.03387"
         height="616.94916"
         x="37.288136"
         y="101.69492" />
    </clipPath>
    <clipPath
       clipPathUnits="userSpaceOnUse"
       id="clipPath1503-0">
      <rect
         style="opacity:1;fill:#fceff5;fill-opacity:1;stroke:#f4f4f9;stroke-opacity:1"
         id="rect1505-9"
         width="722.03387"
         height="616.94916"
         x="37.288136"
         y="101.69492" />
    </clipPath>
    <clipPath
       clipPathUnits="userSpaceOnUse"
       id="clipPath1499-3">
      <rect
         style="opacity:1;fill:#fceff5;fill-opacity:1;stroke:#f4f4f9;stroke-opacity:1"
         id="rect1501-6"
         width="722.03387"
         height="616.94916"
         x="37.288136"
         y="101.69492" />
    </clipPath>
    <clipPath
       clipPathUnits="userSpaceOnUse"
       id="clipPath1495-0">
      <rect
         style="opacity:1;fill:#fceff5;fill-opacity:1;stroke:#f4f4f9;stroke-opacity:1"
         id="rect1497-6"
         width="722.03387"
         height="616.94916"
         x="37.288136"
         y="101.69492" />
    </clipPath>
    <clipPath
       clipPathUnits="userSpaceOnUse"
       id="clipPath1491-2">
      <rect
         style="opacity:1;fill:#fceff5;fill-opacity:1;stroke:#f4f4f9;stroke-opacity:1"
         id="rect1493-6"
         width="722.03387"
         height="616.94916"
         x="37.288136"
         y="101.69492" />
    </clipPath>
    <clipPath
       clipPathUnits="userSpaceOnUse"
       id="clipPath1487-1">
      <rect
         style="opacity:1;fill:#fceff5;fill-opacity:1;stroke:#f4f4f9;stroke-opacity:1"
         id="rect1489-8"
         width="722.03387"
         height="616.94916"
         x="37.288136"
         y="101.69492" />
    </clipPath>
    <clipPath
       clipPathUnits="userSpaceOnUse"
       id="clipPath1483-7">
      <rect
         style="opacity:1;fill:#fceff5;fill-opacity:1;stroke:#f4f4f9;stroke-opacity:1"
         id="rect1485-9"
         width="722.03387"
         height="616.94916"
         x="37.288136"
         y="101.69492" />
    </clipPath>
    <clipPath
       clipPathUnits="userSpaceOnUse"
       id="clipPath1479-2">
      <rect
         style="opacity:1;fill:#fceff5;fill-opacity:1;stroke:#f4f4f9;stroke-opacity:1"
         id="rect1481-0"
         width="722.03387"
         height="616.94916"
         x="37.288136"
         y="101.69492" />
    </clipPath>
    <clipPath
       clipPathUnits="userSpaceOnUse"
       id="clipPath1475-2">
      <rect
         style="opacity:1;fill:#fceff5;fill-opacity:1;stroke:#f4f4f9;stroke-opacity:1"
         id="rect1477-3"
         width="722.03387"
         height="616.94916"
         x="37.288136"
         y="101.69492" />
    </clipPath>
    <clipPath
       clipPathUnits="userSpaceOnUse"
       id="clipPath1471-7">
      <rect
         style="opacity:1;fill:#fceff5;fill-opacity:1;stroke:#f4f4f9;stroke-opacity:1"
         id="rect1473-5"
         width="722.03387"
         height="616.94916"
         x="37.288136"
         y="101.69492" />
    </clipPath>
  </defs>
  <sodipodi:namedview
     id="base"
     pagecolor="#ffffff"
     bordercolor="#666666"
     borderopacity="1.0"
     inkscape:pageopacity="0.0"
     inkscape:pageshadow="2"
     inkscape:zoom="0.35"
     inkscape:cx="-51.428571"
     inkscape:cy="560"
     inkscape:document-units="mm"
     inkscape:current-layer="layer1"
     showgrid="false"
     units="px"
     inkscape:showpageshadow="false"
     inkscape:window-width="1920"
     inkscape:window-height="974"
     inkscape:window-x="1920"
     inkscape:window-y="27"
     inkscape:window-maximized="1" />
  <metadata
     id="metadata2321">
    <rdf:RDF>
      <cc:Work
         rdf:about="">
        <dc:format>image/svg+xml</dc:format>
        <dc:type
           rdf:resource="http://purl.org/dc/dcmitype/StillImage" />
        <dc:title></dc:title>
      </cc:Work>
    </rdf:RDF>
  </metadata>
  <g
     inkscape:label="Layer 1"
     inkscape:groupmode="layer"
     id="layer1"
     transform="translate(0,-160.73955)">
    <g
       id="g1546"
       transform="matrix(0.26458333,0,0,0.26458333,-20.410863,123.13809)"
       style="fill:#f3eff5;fill-opacity:1">
      <path
         clip-path="url(#clipPath1527-3)"
         style="fill:#f3eff5;fill-opacity:1"
         id="path7970"
         d="m 337.08,165.26 c -5.68,-11.54 -15.93,-16.4 -27.6,-19.17 -11.49,-2.73 -22.87,-0.91 -34.18,1.29 a 47.1,47.1 0 0 0 -8.17,2.7 2.42,2.42 0 0 0 -1.29,1.92 2.39,2.39 0 0 0 1.66,1.57 13.29,13.29 0 0 0 4.26,-0.23 65.9,65.9 0 0 0 10,-2.39 c 5.33,-2 10.83,-1.78 16.2,-1.27 A 78,78 0 0 1 314,153 c 6.56,2.09 10.72,7.32 14.77,12.7 4.25,5.63 4.95,11.62 2.92,18 -2.33,7.24 -5.18,14.32 -7.83,21.47 a 13.38,13.38 0 0 1 -1.09,1.85 100.51,100.51 0 0 1 -10.82,14.44 c -8.3,9.75 -18.53,17.13 -28.94,24.3 -5.67,3.91 -11.71,7.25 -17.39,11.12 -6.87,4.69 -13.53,9.68 -20.3,14.51 -6.77,4.83 -13.63,9.1 -19,15.46 a 5.75,5.75 0 0 1 -2.21,1.31 25.24,25.24 0 0 0 -8.27,6.07 41.67,41.67 0 0 1 -4.54,4 c -4.69,3.53 -9.43,7 -14.18,10.43 a 16.85,16.85 0 0 1 -3,1.66 c -5,2.2 -10,4.4 -15,6.53 -5.42,2.31 -10.8,4.77 -16.34,6.75 -3.52,1.27 -5.14,-0.07 -4.36,-3.75 1.41,-6.72 3.2,-13.37 5.14,-20 1.55,-5.21 4.44,-10 4.58,-15.65 a 17.53,17.53 0 0 1 1.49,-5.37 c 1.06,-2.83 2.42,-5.55 3.39,-8.4 a 39.44,39.44 0 0 0 1.65,-7.11 c 0.35,-2.56 -1.85,-5.71 -3.88,-6 -1.72,-0.25 -4.15,1.67 -5,4.15 -0.49,1.49 -0.66,3.09 -1,4.63 -0.5,2.24 -1,4.47 -1.53,6.71 -1.27,5.9 -2.51,11.8 -3.76,17.69 -0.5,2.4 -0.45,5.09 -1.58,7.13 -3.52,6.42 -5,13.42 -6.66,20.39 a 27.82,27.82 0 0 1 -2.93,7.17 9.7,9.7 0 0 1 -3.71,3.32 73,73 0 0 1 -7.44,3.33 12.39,12.39 0 0 1 -2.88,0.78 c -3.83,0.55 -7.67,1 -11.5,1.56 -2.68,0.41 -4,-0.28 -4,-3 -0.12,-6 -0.37,-12.09 1.59,-18 1.18,-3.54 2.62,-7 3.29,-10.69 a 74.71,74.71 0 0 1 8.37,-23.78 c 2.56,-4.5 5,-9.09 7.29,-13.7 1,-1.86 1.68,-3.91 -0.29,-6.26 -2.55,2.7 -4.7,5.19 -5.75,8.64 a 18.11,18.11 0 0 1 -3,6.1 c -4.88,6 -6.08,12.92 -6.42,20.84 -5.29,3.72 -7,10.16 -8.56,16.53 -1.8,7.1 -3.27,14.28 -4.9,21.42 -0.78,3.41 -2.58,5.62 -6.38,5.95 -4.58,0.38 -9.13,1.16 -13.71,1.53 -3.29,0.26 -6.14,1.11 -8.53,3.55 -1.57,1.61 -2.25,3.35 -1.61,5.46 0.69,2.27 2.28,3.83 4.7,3.78 3.13,-0.07 6.25,-0.59 9.38,-0.83 3.42,-0.25 6.84,-0.53 10.26,-0.56 a 2.83,2.83 0 0 1 3,3 c 0.45,5.87 1.56,11.72 0.32,17.63 a 13.65,13.65 0 0 0 0,3.44 c 0.2,3.45 0.57,6.89 0.63,10.34 0.1,5.74 -0.09,11.49 0.05,17.22 0.14,5.73 0.52,11.2 0.86,16.79 0.11,1.72 0.46,3.42 0.68,5.13 0.36,2.83 0.8,5.66 1,8.5 0.32,3.72 0.41,7.45 0.71,11.18 0.22,2.69 2,4.39 4.16,5.71 2.16,1.32 3.55,1.27 5.22,-0.83 a 15.94,15.94 0 0 0 2.86,-4.76 q 4.55,-14.32 8.74,-28.75 c 1.19,-4.12 1.81,-8.41 2.92,-12.56 2.21,-8.32 4.62,-16.58 6.85,-24.89 0.59,-2.21 0.22,-4.9 1.36,-6.69 3.07,-4.8 3.38,-10.3 4.83,-15.51 a 21.31,21.31 0 0 1 0.57,-2.08 4.17,4.17 0 0 1 4.26,-3 19.68,19.68 0 0 1 4.66,0.64 c 7.21,2.09 14.13,4.85 20.26,9.33 1.5,1.1 3.27,1.82 4.85,2.81 3,1.92 6.42,3.5 8.95,6 6.19,6 12.05,12.29 17.89,18.62 3.2,3.48 6.08,7.27 9.11,10.93 2.11,2.54 4.32,5 6.29,7.66 a 2,2 0 0 1 0.57,0.29 60.05,60.05 0 0 1 7.69,7.44 14.64,14.64 0 0 1 2.95,1.54 c 1.51,1 5.81,4.35 7.67,2.43 0.88,-0.89 0.62,-3.49 0.61,-4.77 -1.09,-3.62 -2.36,-7.08 -5.42,-9.36 a 10.69,10.69 0 0 1 -6.52,-3.72 c -2.76,-3.1 -5.68,-6.07 -8.43,-9.17 -2.29,-2.57 -4.34,-5.36 -6.68,-7.88 -3.8,-4.11 -7.74,-8.09 -11.65,-12.1 -6.05,-6.2 -12.34,-12.25 -19.88,-16.48 -9,-5.06 -18.26,-9.75 -28.77,-11.24 -5,-0.71 -6.73,-5 -2.87,-9.69 a 8,8 0 0 1 3.19,-2.11 q 9.84,-3.84 19.76,-7.48 a 58.82,58.82 0 0 0 18.31,-10.17 23,23 0 0 1 5.58,-3.21 c 5.79,-2.6 11.24,-5.62 15.74,-10.21 a 79.25,79.25 0 0 1 7.88,-7.24 c 4.54,-3.5 9.32,-6.69 14,-10 1.87,-1.33 3.66,-2.79 5.6,-4 2.17,-1.38 4.43,-2.61 6.69,-3.84 2.64,-1.43 5.43,-2.6 7.94,-4.23 3.36,-2.18 6.46,-4.76 9.77,-7 3.31,-2.24 7,-4.45 10.44,-6.82 4.49,-3.1 8.71,-6.62 13.36,-9.46 a 41.13,41.13 0 0 0 9.92,-8.16 c 2.07,-2.39 4.34,-4.6 6.5,-6.9 3.45,-3.66 7,-7.26 10.3,-11 a 55.06,55.06 0 0 0 6.63,-8.42 c 5.56,-9.61 10.34,-19.52 12.56,-30.6 1.38,-6.64 0.93,-12.38 -1.92,-18.2 z M 141.69,354.73 c -0.46,6.24 -2.4,12.09 -4.24,18 q -4.63,14.81 -9,29.69 c -0.52,1.78 -0.54,3.7 -1,5.52 -0.58,2.5 -1.24,5 -2,7.45 -0.76,2.45 -1.64,4.9 -2.59,7.3 a 23.06,23.06 0 0 1 -1.75,3 l -1.5,-0.16 c -0.82,-2.24 -2.14,-4.43 -2.34,-6.73 -0.42,-4.56 -0.22,-9.18 -0.29,-13.77 a 57.93,57.93 0 0 0 -0.27,-8.14 90.22,90.22 0 0 1 -1.52,-18.87 c 0.33,-6.74 -0.19,-13.51 -0.36,-20.27 -0.16,-6.5 2.64,-11.83 10.74,-11.31 3.58,0.22 7.17,0.55 10.71,1.09 4.35,0.7 5.72,2.84 5.41,7.2 z"
         class="cls-1"
         inkscape:connector-curvature="0" />
      <path
         clip-path="url(#clipPath1523-7)"
         style="fill:#f3eff5;fill-opacity:1"
         id="path7972"
         d="m 525.84,304.54 c -0.77,-2.32 0.09,-4.44 0.82,-6.6 a 23.87,23.87 0 0 0 1.38,-5 c 0.35,-3.09 -1.41,-4.91 -4.52,-5 a 6.32,6.32 0 0 0 -2.13,0.24 C 510,292.3 499.67,298 492,307.81 c -3.73,4.81 -3.24,9.87 -0.75,14.55 2.87,5.39 7.35,9.08 13.46,11.37 9.88,3.7 19.24,1.64 28.75,-0.77 7.51,-1.91 15,-4 22.53,-5.75 a 11.91,11.91 0 0 1 5.13,0.25 3.76,3.76 0 0 1 2.4,2 2.75,2.75 0 0 1 -1.67,3.55 13.52,13.52 0 0 1 -3.77,0.69 37.53,37.53 0 0 0 -10.33,2.66 c -7.74,3 -15.54,5.66 -24.06,6.29 -6.86,0.51 -13.67,1.66 -20.59,1.49 -2.35,-0.06 -3.45,1.67 -4.73,3.28 q -4.68,5.91 -9.61,11.6 c -2.84,3.29 -6.77,4.26 -10.87,4.51 -2.83,0.17 -6.47,-3.43 -7,-7.22 a 32.81,32.81 0 0 1 0,-9.44 c 1.16,-7.08 3.25,-14 4,-21.16 0.61,-5.61 2.12,-11.26 1.3,-17.12 -2.42,-0.29 -2.94,1.38 -3.63,2.69 -2.34,4.45 -4.43,9 -6.95,13.39 -2.52,4.39 -5,9.09 -8.45,12.84 -6.38,7 -13.36,13.54 -21.83,18.08 -6.71,3.6 -13.49,7.32 -21.09,8.52 -6.93,1.09 -14,1.8 -20.84,-1 a 15.65,15.65 0 0 0 -5,-0.89 c -8.52,-0.54 -14.06,-6.44 -13.87,-14.91 0,-1.87 -0.06,-3.75 0.13,-5.61 0.19,-1.86 1.06,-3.63 3.18,-4.16 1.93,-0.48 3.45,0.54 4.63,3 0.3,0.64 0.3,1.46 0.71,2 a 7.19,7.19 0 0 0 2.47,2.57 c 1.46,0.62 2.38,-0.63 2.94,-1.87 0.83,-1.82 1.63,-3.67 2.33,-5.55 0.81,-2.15 1.37,-4.4 2.25,-6.52 a 17.38,17.38 0 0 1 6.78,-8.15 c 4.34,-2.79 8.44,-5.93 12.76,-8.76 2.81,-1.84 6.05,-1.74 9.21,-1.11 3.16,0.63 4.51,2.42 4.53,5.84 a 7,7 0 0 1 -0.1,1.72 c -2.22,9.26 -4.45,18.45 -11.71,25.47 -2.19,2.12 -3.63,5 -6.07,8.51 2.56,0.08 4.06,0.38 5.46,0.14 a 73.1,73.1 0 0 0 21.53,-7.46 34.61,34.61 0 0 0 11.49,-9.59 c 7.46,-9.71 13.66,-20.19 20,-30.64 0.59,-1 1.47,-1.8 2,-2.82 0.91,-1.89 2.06,-3.82 2.32,-5.83 a 14,14 0 0 1 2.34,-6.35 50.27,50.27 0 0 0 7.51,-16.37 c 0.61,-2.46 2.33,-4.62 3.17,-7 a 139.22,139.22 0 0 1 9.43,-20.73 13.72,13.72 0 0 0 1.56,-5.35 c 0.57,-6.88 3.79,-12.87 6.11,-19.17 0.89,-2.41 1.62,-4.89 2.45,-7.33 q 3.09,-9.15 6.22,-18.29 a 6.76,6.76 0 0 1 0.78,-1.54 c 1.89,-2.68 5,-2.56 6.65,0.3 a 8.26,8.26 0 0 1 0.67,7.09 c -1.5,4.48 -3.12,8.93 -4.58,13.43 -1.87,5.73 -3.59,11.51 -5.44,17.25 -0.79,2.46 -1.87,4.84 -2.59,7.32 -1.56,5.37 -2.85,10.81 -4.48,16.15 -2.61,8.51 -5.44,17 -8.1,25.45 a 18.18,18.18 0 0 0 -0.95,5 c -0.05,2.63 1.66,3.57 4,2.37 a 13.24,13.24 0 0 0 2.08,-1.53 70.51,70.51 0 0 1 20.51,-10.76 32.35,32.35 0 0 1 9.29,-1.55 c 4.24,-0.18 7,2.27 7.78,6.49 a 10.37,10.37 0 0 1 -0.1,5.11 c -1.7,4.71 -3.7,9.32 -5.76,13.88 -0.92,2.07 -1.14,1.98 -4.08,2.18 z M 477.77,348 c 0.19,1.57 0.29,3.16 0.59,4.71 0.56,2.92 2.87,4.08 5.45,2.48 a 28.51,28.51 0 0 0 9.92,-10.59 3,3 0 0 0 -0.75,-4.22 c -2.47,-2 -4.89,-4 -7.5,-5.75 -2.61,-1.75 -4.76,-1.19 -5.6,2 -0.99,3.72 -1.43,7.59 -2.11,11.37 z m -80.2,-1.42 c 3.34,0.49 3.51,0.59 5.61,-1.44 3.39,-3.27 6.73,-6.61 9.86,-10.14 a 10.2,10.2 0 0 0 1.94,-4.6 3.4,3.4 0 0 0 -0.92,-2.95 3.75,3.75 0 0 0 -3.15,0.2 c -2.65,1.41 -5,3.16 -6.4,6.08 -1.1,2.29 -2.73,4.32 -4,6.53 -1.15,1.94 -3.06,3.51 -2.94,6.35 z"
         class="cls-1"
         inkscape:connector-curvature="0" />
      <path
         clip-path="url(#clipPath1519-3)"
         style="fill:#f3eff5;fill-opacity:1"
         id="path7974"
         d="m 369.4,320.53 a 16.48,16.48 0 0 0 2.6,-2.93 c 2.33,-4.44 4.44,-9 6.75,-13.46 2.31,-4.46 4.84,-9.12 7.34,-13.63 a 33.37,33.37 0 0 1 2.65,-3.46 c 1.4,3.58 1.67,6.51 0.24,9.52 -2.84,6 -6,11.79 -8.36,17.95 -2,5.19 -5.09,9.62 -7.76,14.36 a 40.88,40.88 0 0 0 -4.06,8.95 c -1,3.69 -3.28,7 -4.32,10.74 -1.62,5.76 -3.13,11.65 -0.62,17.65 0.91,2.17 2.32,3.18 4.67,2.9 a 7.08,7.08 0 0 1 1.72,-0.05 c 2.17,0.24 2.92,1.48 2.26,3.62 a 7.78,7.78 0 0 1 -13.21,2.74 c -1.8,-2.12 -2.79,-4.95 -4,-7.51 -0.43,-0.88 -0.4,-2 -0.83,-2.88 a 3.19,3.19 0 0 0 -4.71,-1.47 18.27,18.27 0 0 0 -2.3,1.95 c -5.48,4.64 -10.89,9.36 -16.47,13.87 -5.33,4.3 -13.2,3.45 -16.95,-1.62 a 8.77,8.77 0 0 1 -0.76,-1 c -2.5,-4.57 0.54,-16.66 4.83,-19.66 a 20.64,20.64 0 0 0 4.46,-3.91 c 5.4,-6.94 13,-8.77 21,-4.87 5.15,2.52 9.36,0.79 11.13,-4.63 0.62,-1.91 1.14,-3.86 1.62,-5.81 1.53,-6.26 1.93,-12.79 4.47,-18.83 0.71,-1.69 0.75,-3.65 1.14,-5.47 q 3.33,-16 6.69,-32 c 2,-9.75 6.77,-18.28 12,-26.58 4.15,-6.55 8.28,-13.12 12.28,-19.76 a 23.36,23.36 0 0 1 8.44,-7.83 c 2.59,-1.56 6,-1 8.48,1 a 7.17,7.17 0 0 1 2.37,8.57 c -2.77,7.21 -4.88,14.74 -9.25,21.28 a 20.85,20.85 0 0 0 -2.27,5 c -1.16,3.49 -2.14,7 -3.19,10.58 -0.53,1.8 -1.55,3 -3.49,3.08 -1.57,-1.31 -0.95,-2.7 -0.46,-4 2,-5.52 4.14,-11 6.06,-16.56 1.26,-3.65 2.28,-7.39 3.26,-11.14 0.17,-0.67 -0.23,-2.06 -0.69,-2.23 a 4.25,4.25 0 0 0 -3.12,0 27.65,27.65 0 0 0 -9.92,10 c -1.54,2.58 -3.36,5 -4.63,7.73 -2.25,4.82 -4.64,9.64 -6.14,14.71 -2.16,7.29 -3.9,14.68 -6.34,21.93 -2.14,6.35 -2.83,13.19 -4.06,19.83 a 9.4,9.4 0 0 0 0.38,2.83 z m -30.46,34.75 c -5.32,0.8 -8.74,3.68 -11.51,7.46 -0.82,1.13 -1.68,2.8 -0.28,3.84 a 4.53,4.53 0 0 0 3.9,0.57 87.11,87.11 0 0 0 9.85,-5.92 c 1.29,-0.88 2.3,-2.61 1.27,-4.1 -0.69,-1 -2.31,-1.36 -3.23,-1.85 z"
         class="cls-1"
         inkscape:connector-curvature="0" />
      <path
         clip-path="url(#clipPath1515-6)"
         style="fill:#f3eff5;fill-opacity:1"
         id="path7976"
         d="m 297.8,356.63 c -0.11,1.29 0.1,2.72 -0.39,3.84 -2.57,5.8 0.67,11 1.64,16.35 0.31,1.72 1.84,2.3 3.56,2.62 4.93,0.93 6.2,3.65 3.88,8 a 10.73,10.73 0 0 0 -1.25,2.26 c -1,4.16 -4.66,4.59 -7.75,4.83 -3.43,0.27 -5.9,-2.07 -7.08,-5.33 a 52.7,52.7 0 0 1 -1.35,-5.44 c -0.71,-2.82 -1.32,-3.4 -4.07,-3.37 a 15.85,15.85 0 0 0 -3.77,0.7 c -11.24,3 -22.56,-2.27 -24.91,-14.62 a 28.9,28.9 0 0 1 -0.82,-6.82 c 0.21,-3.88 1.09,-7.55 3.84,-10.72 a 51.22,51.22 0 0 1 21.16,-14.37 c 4.14,-1.54 8.28,-0.66 11.95,1.76 a 5.53,5.53 0 0 1 2.33,2.95 c 1.24,5.74 2.22,11.54 3.29,17.32 z m -31.31,7.47 a 32.57,32.57 0 0 0 0.54,4.15 6.94,6.94 0 0 0 7.18,5 c 4.78,-0.43 9.87,-4.83 10.39,-9.58 0.54,-5 0.68,-10 0.72,-15 0,-2.83 -1.82,-4.13 -4.65,-3.52 a 9.56,9.56 0 0 0 -3.44,1.63 26.46,26.46 0 0 0 -4.56,3.94 c -3.29,3.77 -6.43,7.75 -6.18,13.38 z"
         class="cls-1"
         inkscape:connector-curvature="0" />
      <path
         clip-path="url(#clipPath1511-9)"
         style="fill:#f3eff5;fill-opacity:1"
         id="path7978"
         d="m 185.82,203.89 c -0.57,-0.46 -1.32,-0.79 -1.34,-1.15 a 3.22,3.22 0 0 1 0.54,-2.28 c 1.33,-1.28 2.93,-2.26 4.36,-3.44 2.19,-1.82 4.31,-3.73 6.49,-5.57 1,-0.83 2.1,-1.1 2.95,0.14 a 1.75,1.75 0 0 1 -0.83,2.82 c -3.93,1.76 -7.93,3.34 -9.7,7.85 -0.29,0.74 -1.55,1.05 -2.47,1.63 z"
         class="cls-1"
         inkscape:connector-curvature="0" />
      <path
         clip-path="url(#clipPath1507-2)"
         style="fill:#f3eff5;fill-opacity:1"
         id="path7980"
         d="m 171.47,217.35 a 62.17,62.17 0 0 1 -3.73,5.12 2.32,2.32 0 0 1 -2.19,0.45 2.67,2.67 0 0 1 -1,-2.1 c 0.18,-2.89 2.86,-4.45 6.92,-3.47 z"
         class="cls-1"
         inkscape:connector-curvature="0" />
      <path
         clip-path="url(#clipPath1503-0)"
         style="fill:#f3eff5;fill-opacity:1"
         id="path7982"
         d="m 151.76,237.25 c 0.77,1.06 1.51,1.64 1.64,2.33 0.27,1.52 -2.06,4.68 -3.61,4.93 -0.57,0.1 -1.77,-0.41 -1.78,-0.67 a 7.23,7.23 0 0 1 0.52,-3.62 c 0.65,-1.11 1.95,-1.84 3.23,-2.97 z"
         class="cls-1"
         inkscape:connector-curvature="0" />
      <path
         clip-path="url(#clipPath1499-3)"
         style="fill:#f3eff5;fill-opacity:1"
         id="path7984"
         d="m 160,231.18 c -0.9,-1.22 -1.62,-1.79 -1.76,-2.48 -0.23,-1.24 1.84,-3.28 3,-2.93 0.56,0.16 1.34,1.38 1.18,1.78 a 23.08,23.08 0 0 1 -2.42,3.63 z"
         class="cls-1"
         inkscape:connector-curvature="0" />
      <path
         clip-path="url(#clipPath1495-0)"
         style="fill:#f3eff5;fill-opacity:1"
         id="path7986"
         d="m 244,162 c -0.07,-1.86 0.28,-3.07 2.16,-3 a 1.16,1.16 0 0 1 0.75,0.84 c 0.09,1.7 -0.74,2.5 -2.91,2.16 z"
         class="cls-1"
         inkscape:connector-curvature="0" />
      <path
         clip-path="url(#clipPath1491-2)"
         style="fill:#f3eff5;fill-opacity:1"
         id="path7988"
         d="m 599,405 c -1,-3.73 -5.14,-4.78 -7.95,-2.09 a 28.49,28.49 0 0 0 -3.56,4.58 c -1.69,2.44 -3.07,5.13 -4.95,7.41 -5,6.11 -10.2,12.06 -15.34,18.06 a 6.08,6.08 0 0 1 -1.49,1.22 c -2.75,1.66 -4.68,0.88 -5.47,-2.27 a 9.4,9.4 0 0 1 -0.28,-3.08 c 1,-11 1.88,-21.93 3,-32.87 0.58,-5.65 1.45,-11.28 2.42,-16.88 A 53,53 0 0 1 568,368.64 c 1.73,-4.36 2.48,-8.62 1.36,-13.2 -0.55,-2.24 -1.94,-3.58 -3.94,-3.61 -4.74,-0.08 -7.6,2.66 -7.44,7.44 a 18.72,18.72 0 0 1 -1.43,7.94 c -1.44,3.47 -3.2,6.9 -4,10.53 -1.15,5.43 -4.43,9.6 -7.25,14 -2.82,4.4 -6.29,8.25 -9,12.63 a 65.73,65.73 0 0 1 -10.56,12.83 9.05,9.05 0 0 1 -5.71,2.75 13,13 0 0 0 -8.95,4.14 c -2.47,2.81 -4.87,5.69 -7.42,8.43 -3.37,3.61 -4.74,7.28 -1.2,11.62 a 2.72,2.72 0 0 1 -0.25,3.9 117.47,117.47 0 0 1 -9.67,8.34 c -3.66,2.66 -6.71,1 -6.59,-3.58 a 40.58,40.58 0 0 1 1.48,-11.12 c 1.47,-4.64 1.78,-9.71 4.66,-13.89 a 3.14,3.14 0 0 0 0.35,-1.11 c 1.95,-9.43 7,-17.51 11.43,-25.83 3.16,-5.95 4.75,-12.26 6.1,-18.72 a 6.67,6.67 0 0 0 0.07,-1.55 c -0.11,-2.62 -1.1,-3.71 -3.7,-4.15 -4.29,-0.71 -7.92,1.92 -8.26,6.62 -0.43,5.85 -3.12,10.91 -4.87,16.3 a 52.27,52.27 0 0 1 -8.08,14.92 c -1.45,2 -3,3.86 -4.58,5.75 a 16.16,16.16 0 0 0 -2.07,2.26 c -3.21,6.15 -8.86,10.1 -13.63,14.75 -4.77,4.65 -9.85,9.11 -13.85,14.56 a 19,19 0 0 1 -3,3 c -3.34,2.88 -6.86,5.55 -10.07,8.57 -5.65,5.31 -12.35,9.43 -17.29,15.58 -1.24,1.53 -3.28,2.51 -5.11,3.45 -1.83,0.94 -3,0.21 -3.48,-1.7 a 7.35,7.35 0 0 1 -0.17,-1.93 c 0.13,-3.5 0.3,-7 0.45,-10.48 0.09,-2.07 -0.45,-4.43 0.37,-6.15 2.19,-4.62 2,-9.59 2.91,-14.39 0.74,-3.94 1.3,-7.9 2,-11.85 a 47.26,47.26 0 0 1 1.29,-6.39 15.27,15.27 0 0 0 0.72,-8 5,5 0 0 0 -4.58,-4.08 c -1.9,0 -3.69,1.5 -4.39,3.78 -0.19,0.62 -0.17,1.3 -0.38,1.91 -1.13,3.16 -1.68,6.78 -3.61,9.36 a 74.2,74.2 0 0 0 -6.15,9.93 c -2.16,4 -5.46,7.51 -8.4,11.11 -0.65,0.8 -2,1.71 -2.78,1.53 -0.78,-0.18 -1.58,-1.52 -2,-2.52 a 13.78,13.78 0 0 1 -0.75,-3.8 A 36.15,36.15 0 0 1 390,429 c 1.52,-3.08 0.89,-5.91 0,-8.64 a 5.79,5.79 0 0 0 -9.07,-2.22 c -1.19,1.12 -1.63,3.11 -2.24,4.77 -0.61,1.66 -0.46,4.13 -1.6,5 -2.57,2 -3.79,4.86 -5.74,7.21 a 94.59,94.59 0 0 0 -10.48,16.32 24.51,24.51 0 0 1 -8.5,9.41 15.85,15.85 0 0 1 -7.22,2.44 c -5.76,0.31 -10.86,-2.13 -15.64,-5.09 a 3.65,3.65 0 0 1 -1.39,-2.82 c 0.08,-1.43 1.55,-1.44 2.74,-1.5 2.19,-0.11 4.47,0.08 6.55,-0.45 4.74,-1.21 9.33,-3 14.08,-4.12 a 11.94,11.94 0 0 0 6.45,-4 c 3.83,-4.34 3.78,-7.65 -0.77,-11.23 q -11.89,-9.35 -24.23,-18.11 c -3.85,-2.76 -8.32,-4.5 -12.6,-6.56 a 50,50 0 0 0 -15.52,-4.62 c -4.07,-0.51 -8.25,-0.17 -12.37,-0.21 -1.38,0 -2.86,0.28 -4,-0.42 -1.91,-0.3 -3.82,-0.51 -5.73,-0.66 -0.5,1.36 -0.83,1.44 -2.9,1.4 -0.1,-0.26 -0.21,-0.52 -0.31,-0.79 l 1.8,-0.72 a 85.43,85.43 0 0 0 -30.39,3.91 c -11.85,3.67 -20.45,10 -30.16,17.27 -6.44,4.83 -14.15,7 -21.57,9.92 -6.9,2.72 -13.7,5.63 -20.55,8.45 0.05,1 0.08,2.29 -0.46,2.94 -1.23,1.45 -2.73,3.09 -4.44,3.64 -3.17,1 -5.69,3 -8.5,4.55 a 112.11,112.11 0 0 0 -19.35,14.18 39,39 0 0 1 -3.53,3 46.88,46.88 0 0 0 -11.19,11.25 114.3,114.3 0 0 0 -6.57,10.91 4,4 0 0 0 0.3,4.73 c 0.72,0.91 1.38,1.88 2.09,2.8 2.94,3.8 7.2,5.85 11.1,8.39 a 35,35 0 0 0 14,5.36 c 2.43,0.37 4.81,1 7.22,1.51 7,1.43 13.88,3.19 20.9,4.16 6.39,0.89 12.9,1 19.36,1.31 10.33,0.5 20.66,0.91 31,1.32 3,0.11 5.95,0.09 8.92,0.17 7.07,0.2 13.78,-1.84 20.62,-3.16 5.17,-1 10.12,-2.25 14.13,-5.91 a 8.39,8.39 0 0 1 2,-1.1 c 8.65,-4.13 16.58,-9.06 20.89,-18.18 a 11.26,11.26 0 0 1 1.79,-3 7.88,7.88 0 0 0 1.87,-7.24 17.6,17.6 0 0 0 -2,-5.73 c -2.3,-3.89 -4.37,-8.13 -7.51,-11.25 -3.9,-3.88 -8.72,-6.86 -13.26,-10.06 -2.94,-2.07 -6,-3.94 -9.17,-5.72 -3.17,-1.78 -6.54,-3.65 -9.94,-5.18 -4,-1.8 -8.13,-3.38 -12.25,-4.9 -5.2,-1.91 -10.27,-4.26 -16,-4.12 a 10.63,10.63 0 0 1 -4.72,-1.53 c -0.71,-0.37 -1,-1.49 -1.69,-2.5 5.72,-2.33 9.94,-6.57 15.88,-7.18 a 8.7,8.7 0 0 0 2.13,-0.91 c 3,-1.24 6,-2.43 8.93,-3.72 4.39,-1.9 8.71,-4 13.61,-4.26 a 3.82,3.82 0 0 0 1.08,-0.45 c 6,-2.44 12.12,-4.4 18.74,-4.19 a 40.42,40.42 0 0 0 6.21,-0.42 c 6.08,-0.75 12.13,-1.26 18,1.37 0.56,0.25 1.3,0.1 1.9,0.31 4.6,1.59 9.51,2.29 13.37,5.81 a 25.54,25.54 0 0 0 7.76,5 c 5.6,2.14 9.26,6.58 13.49,10.32 3,2.63 2.43,4.71 -1.31,5.81 -3.74,1.1 -7.6,1.6 -11.35,2.58 a 59,59 0 0 1 -25.8,0.68 42.64,42.64 0 0 0 -5.39,-0.66 c -3.64,-0.16 -5,1.25 -4.61,4.94 a 9.91,9.91 0 0 0 1.34,4 13,13 0 0 0 7.65,5.65 29.26,29.26 0 0 1 4,1.46 c 4.46,2.06 8.92,4.1 13.3,6.31 8.63,4.34 17.73,5.15 27.2,4.2 4.92,-0.49 8.4,-2.88 11.28,-6.67 5.63,-7.42 9,-16 12.4,-24.49 0.46,-1.14 0.35,-2.93 2.23,-2.47 1.73,0.43 1.78,2 1.54,3.5 a 14.15,14.15 0 0 0 -0.31,3.09 c 0.32,4.64 0.55,9.29 1.19,13.88 a 9.51,9.51 0 0 0 2.39,4.8 c 4,4.25 8.76,5.49 14.14,0.09 2.28,-2.28 4.18,-4.94 6.3,-7.39 a 9.05,9.05 0 0 1 2.25,-2.08 c 1.73,-1 3.09,-0.14 3.14,1.82 a 16.35,16.35 0 0 1 -0.29,3.49 121.64,121.64 0 0 0 -1.76,22.79 29.54,29.54 0 0 1 -0.92,5.71 c -0.32,1.52 -1,3 -1.16,4.5 a 12.92,12.92 0 0 1 -4.2,8.09 q -8.26,8.19 -16.41,16.52 c -1.79,1.84 -3.25,4 -5,5.85 -2.59,2.69 -5.33,5.25 -8,7.85 -0.92,0.9 -2,1.65 -2.83,2.63 -2.55,3.09 -5,6.25 -7.51,9.41 a 67.38,67.38 0 0 0 -5.36,7.07 c -3.12,5.22 -6,10.58 -8.87,15.94 a 35.42,35.42 0 0 0 -1.47,4 c -0.84,2.15 -1.73,4.29 -2.62,6.43 a 36.08,36.08 0 0 0 -1.52,3.57 c -1.53,5.2 -3.08,10.4 -4.45,15.65 -2.26,8.71 -2.46,17.34 0.93,25.9 a 121.61,121.61 0 0 0 8.37,17.5 c 3.64,6.13 8.28,11.26 14.58,14.69 4.26,2.32 9,4.09 13.75,3 7.72,-1.74 14.16,-5.53 16.88,-13.74 0.6,-1.81 1.82,-3.41 2.55,-5.19 1.12,-2.72 2.19,-5.48 3,-8.29 0.78,-2.56 1.2,-5.23 1.85,-7.83 0.81,-3.24 1.86,-6.42 2.5,-9.69 0.67,-3.42 1,-6.91 1.43,-10.38 0.63,-5.12 1.27,-10.24 1.79,-15.37 0.31,-3.09 0.35,-6.21 0.57,-9.31 0.67,-9.3 1.39,-18.59 2.05,-27.88 0.11,-1.54 -0.17,-3.11 0,-4.63 1.21,-10.13 2.83,-20.23 3.65,-30.4 a 32.17,32.17 0 0 1 5.18,-14.82 c 4.17,-6.67 9.85,-11.92 15.9,-16.87 4.8,-3.92 9.32,-8.19 13.95,-12.32 3.19,-2.83 6.35,-5.69 9.53,-8.54 1.73,-1.55 3.58,-3 5.19,-4.65 5.29,-5.46 10.48,-11 15.75,-16.5 1,-1.05 2.42,-2.15 3.7,-1.05 0.7,0.6 0.5,2.29 0.64,3.51 a 4.37,4.37 0 0 1 -0.21,1.14 c -0.65,4.48 -1.45,9 -1.89,13.47 -0.78,7.9 1.78,11.18 9.24,12.62 2.39,0.46 4.36,-0.45 6.25,-1.55 a 60.09,60.09 0 0 0 7.48,-4.89 90.76,90.76 0 0 0 9.49,-8.56 c 3.67,-4 6.93,-8.31 10.36,-12.5 a 12.24,12.24 0 0 0 1,-1.23 134.42,134.42 0 0 1 12.35,-16.9 c 2.75,-3.2 6.26,-5.91 7.28,-10.36 0.1,-0.46 0.61,-0.82 0.92,-1.23 3.3,-4.32 6.56,-8.66 9.89,-13 a 25.16,25.16 0 0 1 2.38,-2.35 l 0.9,0.38 a 22.62,22.62 0 0 1 0.16,3 c -0.31,4.52 -0.61,9 -1,13.55 -0.53,5.39 -1.47,10.76 -1.72,16.16 a 46.49,46.49 0 0 0 0.94,11.53 c 0.77,3.63 3.72,5.62 7.35,6 a 14,14 0 0 0 11.87,-4.73 c 4.67,-5 9.09,-10.24 13.57,-15.42 1.52,-1.76 2.84,-3.71 4.41,-5.43 2.29,-2.48 3.16,-2.44 5.7,-0.14 1.93,1.74 3.75,1.67 5.17,-0.53 a 6.47,6.47 0 0 0 1.12,-3.94 A 80.59,80.59 0 0 0 599,405 Z m -368.2,39.82 a 100.35,100.35 0 0 1 10.08,2.81 218.94,218.94 0 0 1 25.65,11 c 8.56,4.28 14.65,11 20.5,18 a 22.37,22.37 0 0 1 3.78,8 c 0.81,2.79 -0.69,5.24 -2.61,7.33 -1.48,1.61 -2.88,3.3 -4.36,4.91 a 15.24,15.24 0 0 1 -2.51,2.38 c -6.86,4.63 -13.71,9.35 -21.65,11.9 -4.27,1.37 -8.81,1.88 -13.22,2.78 l -0.1,-0.33 c -7.09,0.44 -14.19,1.18 -21.29,1.25 -7.36,0.07 -14.74,-0.5 -22.11,-0.81 -3.23,-0.14 -6.46,-0.27 -9.69,-0.51 -2.45,-0.17 -4.88,-0.48 -7.32,-0.76 -1.79,-0.22 -3.58,-0.45 -5.35,-0.75 -4.59,-0.78 -9.47,-0.84 -13.67,-2.56 -6.65,-2.73 -13.85,-3.15 -20.45,-5.82 -0.71,-0.28 -1.5,-0.38 -2.23,-0.64 -6.83,-2.36 -9,-7.11 -6.28,-13.74 A 25.62,25.62 0 0 1 145.44,479 c 3.67,-3 7.1,-6.41 10.82,-9.4 3.11,-2.5 6.5,-4.66 9.78,-7 a 16,16 0 0 1 2.94,-1.87 c 6.44,-2.58 11.77,-7 17.62,-10.52 A 51.81,51.81 0 0 1 216.27,443 c 1.94,0.08 3.9,0 5.82,0.22 2.91,0.4 5.84,0.92 8.71,1.6 z m 169,71.58 q -0.22,5.82 -0.62,11.64 a 33.36,33.36 0 0 1 -0.66,3.81 69.19,69.19 0 0 0 -1.41,7.61 c -0.44,5.66 -0.39,11.35 -0.92,17 -0.65,6.79 -1.69,13.55 -2.56,20.32 -0.09,0.64 -0.25,1.27 -0.32,1.91 -0.6,5.65 -1,11.31 -1.81,16.94 -0.43,3.19 -1.44,6.3 -2,9.48 -0.52,2.91 -0.77,5.86 -1.18,8.78 a 13.2,13.2 0 0 1 -0.5,2.26 c -1.2,3.82 -2.41,7.64 -3.67,11.43 -1.26,3.79 -2.63,7.28 -5.61,10.06 a 43.51,43.51 0 0 0 -4.62,5.24 c -1.87,2.41 -4.18,2.78 -6.93,2 a 17.46,17.46 0 0 1 -10.81,-7.68 c -1.23,-2 -2.67,-3.81 -4,-5.72 a 13.08,13.08 0 0 1 -1.87,-3 c -3.55,-10.62 -8.24,-21 -6,-32.75 0.66,-3.43 1,-6.83 2.54,-10.11 1.66,-3.62 2.38,-7.65 3.95,-11.31 2.34,-5.44 4,-11.19 7.31,-16.2 2,-3 4,-6 6,-9 1,-1.51 1.79,-3.12 2.75,-4.63 a 29.34,29.34 0 0 1 2.89,-4.13 c 4.85,-5.35 9.7,-10.71 14.75,-15.87 3.79,-3.88 7.86,-7.47 11.85,-11.14 a 27.89,27.89 0 0 1 3.16,-2 c 0.17,2.35 0.37,3.71 0.32,5.06 z"
         class="cls-1"
         inkscape:connector-curvature="0" />
      <path
         clip-path="url(#clipPath1487-1)"
         style="fill:#f3eff5;fill-opacity:1"
         id="path7990"
         d="m 574.65,309.78 a 12.08,12.08 0 0 1 0.11,-1.35 c 1,-5.4 5.51,-6.7 9.71,-8.5 3.8,-1.64 6.57,0.13 9.25,2.41 2.23,1.9 2.51,4.14 1.1,6.7 -2.82,5.15 -7.52,7.87 -12.86,9.35 -3.96,1.08 -7.34,-3.23 -7.31,-8.61 z"
         class="cls-1"
         inkscape:connector-curvature="0" />
      <path
         clip-path="url(#clipPath1483-7)"
         style="fill:#f3eff5;fill-opacity:1"
         id="path7992"
         d="m 473.89,532.87 v 20.55 h 29.57 v 7.25 h -29.57 v 23.85 h -8.43 v -59 h 41.62 v 7.33 z"
         class="cls-1"
         inkscape:connector-curvature="0" />
      <path
         clip-path="url(#clipPath1479-2)"
         style="fill:#f3eff5;fill-opacity:1"
         id="path7994"
         d="M 537.25,581.27 A 28.91,28.91 0 0 1 526,570.45 a 31.18,31.18 0 0 1 0,-30.84 28.93,28.93 0 0 1 11.25,-10.83 34.82,34.82 0 0 1 32.1,0 28.87,28.87 0 0 1 11.21,10.79 31.6,31.6 0 0 1 0,30.92 28.85,28.85 0 0 1 -11.21,10.78 34.82,34.82 0 0 1 -32.1,0 z M 565,574.74 a 21.55,21.55 0 0 0 8.17,-8.13 23.94,23.94 0 0 0 0,-23.17 21.62,21.62 0 0 0 -8.17,-8.13 23.11,23.11 0 0 0 -11.67,-2.95 23.57,23.57 0 0 0 -11.75,2.95 21.51,21.51 0 0 0 -8.26,8.13 23.94,23.94 0 0 0 0,23.17 21.44,21.44 0 0 0 8.26,8.13 23.57,23.57 0 0 0 11.75,3 23.11,23.11 0 0 0 11.67,-3 z"
         class="cls-1"
         inkscape:connector-curvature="0" />
      <path
         clip-path="url(#clipPath1475-2)"
         style="fill:#f3eff5;fill-opacity:1"
         id="path7996"
         d="m 616.78,532.87 h -20.22 v -7.33 h 48.79 v 7.33 h -20.22 v 51.65 h -8.35 z"
         class="cls-1"
         inkscape:connector-curvature="0" />
      <path
         clip-path="url(#clipPath1471-7)"
         style="fill:#f3eff5;fill-opacity:1"
         id="path7998"
         d="m 672.65,581.27 a 28.91,28.91 0 0 1 -11.25,-10.82 31.11,31.11 0 0 1 0,-30.84 28.93,28.93 0 0 1 11.25,-10.83 34.82,34.82 0 0 1 32.1,0 28.78,28.78 0 0 1 11.25,10.79 31.53,31.53 0 0 1 0,30.92 28.75,28.75 0 0 1 -11.2,10.78 34.82,34.82 0 0 1 -32.1,0 z m 27.76,-6.53 a 21.62,21.62 0 0 0 8.17,-8.13 23.94,23.94 0 0 0 0,-23.17 21.69,21.69 0 0 0 -8.17,-8.13 23.13,23.13 0 0 0 -11.67,-2.95 23.63,23.63 0 0 0 -11.74,2.95 21.48,21.48 0 0 0 -8.25,8.13 23.94,23.94 0 0 0 0,23.17 21.41,21.41 0 0 0 8.25,8.13 23.63,23.63 0 0 0 11.76,3 23.13,23.13 0 0 0 11.65,-3 z"
         class="cls-1"
         inkscape:connector-curvature="0" />
    </g>
  </g>
</svg>
